<svg width="808" height="569" viewBox="0 0 808 569" fill="none" xmlns="http://www.w3.org/2000/svg">
<g clip-path="url(#clip0)">
<path opacity="0.1" d="M742.839 152.968C779.64 151.468 808.794 118.25 807.948 78.8798C807.531 59.9686 800.214 41.9821 787.56 28.7645C774.905 15.547 757.919 8.14696 740.23 8.14617H739.103C728.997 2.53806 717.735 -0.259842 706.353 0.0102923C694.97 0.280427 683.835 3.60991 673.972 9.69192C663.16 3.00069 650.822 -0.346671 638.335 0.0232412C602.077 1.01252 572.749 32.8936 572.38 71.6843C572.193 87.7473 577.026 103.417 586.112 116.21C580.016 127.229 576.773 139.786 576.717 152.589C576.507 191.619 605.705 224.134 642.18 225.409C651.003 225.735 659.8 224.209 668.075 220.919C681.401 238.834 696.643 261.016 693.623 268.938C689.843 278.846 692.09 379.412 693.16 419.764C693.181 420.46 693.239 421.154 693.333 421.843C668.357 423.304 650.281 427.539 650.281 432.54C650.281 438.723 678.106 443.778 712.435 443.778C746.764 443.778 774.588 438.746 774.588 432.54C774.588 430.221 770.591 428.011 763.747 426.202C765.56 425.043 767.255 423.686 768.806 422.152C770.187 420.785 771.488 419.161 771.885 417.191C772.283 415.22 771.495 412.855 769.717 412.136C767.744 411.324 765.633 412.793 764.036 414.269C762.439 415.745 760.603 417.43 758.508 417.121C759.584 416.077 760.39 414.752 760.846 413.275C761.302 411.799 761.393 410.222 761.109 408.697C761.017 408.068 760.767 407.478 760.387 406.989C759.288 405.737 757.301 406.27 755.992 407.259C751.815 410.397 750.652 416.464 750.63 421.944C750.211 419.973 750.565 417.925 750.551 415.908C750.536 413.89 750.023 411.649 748.433 410.559C747.435 410.004 746.319 409.738 745.195 409.786C743.323 409.717 741.235 409.918 739.948 411.386C738.358 413.203 738.77 416.263 740.158 418.273C741.546 420.282 743.649 421.534 745.586 422.91L745.882 423.119C739.587 422.392 732.526 421.859 724.923 421.573C725.005 420.93 725.051 420.282 725.06 419.633C725.725 380.549 727.547 285.98 729.939 274.742C732.96 260.536 729.939 174.044 729.939 174.044C729.939 174.044 729.621 164.437 730.054 152.264C734.287 152.921 738.566 153.157 742.839 152.968ZM686.359 209.944C688.23 208.371 690.02 206.691 691.722 204.913L693.659 218.6L686.359 209.944Z" fill="#15C95A"/>
<path opacity="0.1" d="M639.26 291.281C645.746 290.992 651.868 288 656.316 282.944C660.764 277.888 663.185 271.171 663.061 264.23C662.936 257.29 660.276 250.677 655.649 245.808C651.023 240.939 644.797 238.2 638.306 238.177H637.894C634.193 236.127 630.069 235.105 625.902 235.204C621.735 235.302 617.658 236.519 614.045 238.741C609.077 235.634 603.255 234.467 597.572 235.441C591.89 236.415 586.7 239.469 582.889 244.08C579.078 248.692 576.883 254.576 576.679 260.727C576.474 266.877 578.273 272.913 581.768 277.802C579.161 282.531 577.987 288.006 578.408 293.477C578.829 298.947 580.823 304.144 584.118 308.354C587.412 312.563 591.845 315.578 596.806 316.984C601.768 318.39 607.015 318.119 611.826 316.207C616.719 322.776 622.305 330.891 621.221 333.813C619.834 337.453 620.658 374.335 621.048 389.127C621.054 389.386 621.076 389.644 621.113 389.9C611.949 390.434 605.322 391.987 605.322 393.819C605.322 396.137 615.526 397.946 628.116 397.946C640.706 397.946 650.91 396.099 650.91 393.819C650.91 392.961 649.465 392.157 646.95 391.5C647.612 391.071 648.235 390.574 648.807 390.016C649.348 389.545 649.742 388.909 649.935 388.192C650.024 387.833 649.994 387.452 649.851 387.114C649.707 386.776 649.458 386.502 649.147 386.337C648.424 386.044 647.651 386.577 647.065 387.11C646.48 387.643 645.808 388.277 645.035 388.161C645.432 387.78 645.729 387.293 645.896 386.751C646.063 386.209 646.095 385.629 645.989 385.07C645.955 384.84 645.865 384.624 645.728 384.444C645.324 383.988 644.594 384.181 644.117 384.544C642.585 385.696 642.158 387.922 642.151 389.954C642.071 389.217 642.071 388.473 642.151 387.736C642.177 387.366 642.12 386.995 641.984 386.653C641.849 386.311 641.638 386.01 641.37 385.773C641.006 385.567 640.597 385.465 640.185 385.479C639.844 385.426 639.496 385.45 639.165 385.552C638.833 385.653 638.526 385.829 638.263 386.067C638.009 386.436 637.878 386.886 637.891 387.344C637.904 387.802 638.06 388.242 638.335 388.594C638.905 389.278 639.579 389.853 640.33 390.294L640.438 390.372C638.125 390.109 635.538 389.908 632.763 389.807C632.763 389.576 632.806 389.336 632.814 389.096C633.052 374.767 633.724 340.081 634.599 335.961C635.712 330.752 634.599 299.033 634.599 299.033C634.599 299.033 634.483 295.509 634.642 291.042C636.171 291.276 637.717 291.356 639.26 291.281V291.281ZM618.547 312.188C619.232 311.609 619.888 310.993 620.513 310.34L621.236 315.356L618.547 312.188Z" fill="#15C95A"/>
<path opacity="0.1" d="M425.648 568.28C488.31 568.28 539.107 561.553 539.107 553.255C539.107 544.957 488.31 538.231 425.648 538.231C362.987 538.231 312.19 544.957 312.19 553.255C312.19 561.553 362.987 568.28 425.648 568.28Z" fill="#15C95A"/>
<g opacity="0.5">
<path opacity="0.5" d="M195.378 190.692C186.705 203.722 180.035 241.647 178.177 253.078L162.653 252.738C163.456 242.922 181.516 202.98 186.539 192.021C189.336 191.549 192.314 191.093 195.378 190.692Z" fill="#15C95A"/>
<path opacity="0.5" d="M389.133 182.236L382.254 182.374L382.437 192.737L389.316 192.598L389.133 182.236Z" fill="#DCE0ED"/>
<path opacity="0.1" d="M389.137 182.221L389.195 185.591C388.713 185.751 388.211 185.834 387.706 185.838L382.322 185.9L382.257 182.36L389.137 182.221Z" fill="black"/>
<path opacity="0.5" d="M378.889 156.028L385.393 155.897C386.943 155.865 388.467 156.329 389.769 157.23C391.071 158.131 392.091 159.426 392.7 160.951C394.687 165.913 396.443 173.843 392.353 181.865C391.896 182.762 391.224 183.512 390.406 184.037C389.588 184.563 388.653 184.846 387.699 184.856L379.409 184.949L378.889 156.028Z" fill="#DCE0ED"/>
<path opacity="0.5" d="M379.737 184.514C383.577 184.432 386.568 177.888 386.419 169.897C386.269 161.907 383.035 155.495 379.196 155.578C375.356 155.66 372.364 162.204 372.514 170.195C372.663 178.185 375.897 184.596 379.737 184.514Z" fill="#F0F0F4"/>
<path opacity="0.5" d="M328.385 183.194L321.505 183.341L321.675 192.414L328.555 192.267L328.385 183.194Z" fill="#DCE0ED"/>
<path opacity="0.1" d="M328.053 183.573L328.104 186.456C327.623 186.62 327.12 186.704 326.615 186.703L321.231 186.765L321.18 183.712L328.053 183.573Z" fill="black"/>
<path opacity="0.5" d="M317.805 157.388L324.31 157.257C325.859 157.228 327.382 157.693 328.684 158.593C329.985 159.493 331.006 160.788 331.616 162.312C333.611 167.281 335.36 175.211 331.269 183.233C330.812 184.129 330.14 184.879 329.322 185.404C328.504 185.93 327.569 186.213 326.615 186.224L318.326 186.317L317.805 157.388Z" fill="#DCE0ED"/>
<path opacity="0.5" d="M318.319 186.328C322.158 186.251 325.156 179.711 325.015 171.722C324.874 163.733 321.648 157.319 317.809 157.397C313.97 157.474 310.972 164.013 311.113 172.003C311.253 179.992 314.48 186.405 318.319 186.328Z" fill="#F0F0F4"/>
<path opacity="0.5" d="M319.634 162.636C319.634 162.636 317.075 163.123 318.477 166.717C319.215 168.463 319.763 170.294 320.111 172.173C320.111 172.173 322.705 173.549 322.517 168.835C322.329 164.12 319.634 162.636 319.634 162.636Z" fill="#DCE0ED"/>
<path opacity="0.5" d="M63.5221 422.121C85.93 421.67 103.72 400.013 103.257 373.749C102.794 347.486 84.2534 326.561 61.8455 327.013C39.4376 327.465 21.6478 349.122 22.1107 375.385C22.5737 401.649 41.1142 422.573 63.5221 422.121Z" fill="#636780"/>
<path opacity="0.1" d="M77.1061 329.662C55.9017 331.618 39.4528 352.624 39.9009 377.89C40.255 398.263 51.4643 415.413 66.9665 421.882C88.1708 419.926 104.627 398.92 104.179 373.654C103.818 353.281 92.5866 336.131 77.1061 329.662Z" fill="black"/>
<path opacity="0.5" d="M379.189 310.149C397.375 309.782 411.755 288.928 411.308 263.569C410.861 238.21 395.756 217.95 377.57 218.317C359.385 218.684 345.005 239.538 345.452 264.897C345.899 290.256 361.003 310.516 379.189 310.149Z" fill="#636780"/>
<path opacity="0.1" d="M368.41 220.401C354.851 226.275 345.196 244.082 345.565 264.942C345.955 287.231 357.67 305.572 372.847 309.444C386.405 303.57 396.068 285.763 395.699 264.911C395.309 242.621 383.594 224.273 368.41 220.401Z" fill="black"/>
<path opacity="0.5" d="M254.525 256.912L254.835 240.225C254.835 240.225 251.655 233.099 248.591 232.496C245.527 231.894 238.473 231.639 238.473 231.639C238.473 231.639 233.414 255.69 237.187 262.809C240.959 269.927 254.525 256.912 254.525 256.912Z" fill="#15C95A"/>
<path opacity="0.1" d="M254.525 256.912L254.835 240.225C254.835 240.225 251.655 233.099 248.591 232.496C245.527 231.894 238.473 231.639 238.473 231.639C238.473 231.639 233.414 255.69 237.187 262.809C240.959 269.927 254.525 256.912 254.525 256.912Z" fill="black"/>
<path opacity="0.5" d="M198.103 256.247C198.103 256.247 195.804 233.177 207.671 232.52C209.203 232.435 210.728 232.365 212.246 232.18C220.463 231.159 242.882 228.848 240.287 234.39C240.287 234.39 235.301 254.601 239.051 259.593L198.103 256.247Z" fill="#15C95A"/>
<path opacity="0.5" d="M367.181 295.733L383.081 295.903C383.081 295.903 385.249 264.47 386.152 262.005C387.056 259.539 387.272 247.761 384.266 246.107C381.259 244.453 371.257 242.567 371.257 242.567L364.239 260.606L363.95 276.798L367.181 295.733Z" fill="#15C95A"/>
<path opacity="0.1" d="M367.181 295.733L383.081 295.903C383.081 295.903 385.249 264.47 386.152 262.005C387.056 259.539 387.272 247.761 384.266 246.107C381.259 244.453 371.257 242.567 371.257 242.567L364.239 260.606L363.95 276.798L367.181 295.733Z" fill="black"/>
<path opacity="0.5" d="M327.75 244.391L327.62 240.905C327.609 240.629 327.651 240.354 327.743 240.096C327.836 239.838 327.977 239.604 328.158 239.407C328.339 239.21 328.556 239.054 328.795 238.95C329.034 238.847 329.291 238.796 329.549 238.803C337.449 239.004 366.205 239.893 371.286 242.536C371.286 242.536 366.559 286.397 372.811 296.691L371.365 331.788L300.894 327.576L327.75 244.391Z" fill="#15C95A"/>
<path opacity="0.1" d="M321.274 189.254C323.226 189.007 325.545 188.736 328.14 188.481L328.212 192.662L321.339 192.801L321.274 189.254Z" fill="black"/>
<path opacity="0.1" d="M389.31 192.052V192.577L382.437 192.716L382.379 189.54C384.779 190.062 387.108 190.906 389.31 192.052V192.052Z" fill="black"/>
<path opacity="0.5" d="M425.648 295.625L415.263 296.004L393.054 254.709L389.346 247.807L391.782 230.108L393.972 234.336L425.648 295.625Z" fill="#DCE0ED"/>
<path opacity="0.5" d="M330.771 246.215L326.615 253.163L313.498 234.931L307.492 226.576L310.918 221.444L313.671 224.876L330.771 246.215Z" fill="#DCE0ED"/>
<path opacity="0.1" d="M313.642 224.876C313.642 225.231 313.693 225.595 313.722 225.958L313.469 234.931L307.463 226.576L310.896 221.437L313.642 224.876Z" fill="black"/>
<path opacity="0.1" d="M393.972 234.336L393.054 254.709L389.346 247.807L391.782 230.108L393.972 234.336Z" fill="black"/>
<path opacity="0.5" d="M301.732 238.138C301.732 238.138 295.878 197.253 314.445 190.746C314.68 190.664 314.922 190.605 315.167 190.568C319.46 189.926 359.448 184.176 380.356 189.633C380.356 189.633 394.608 191.634 394.601 199.804L390.105 299.775L379.865 299.984L382.033 233.895C382.033 233.895 386.412 205.036 378.282 203.243C370.151 201.45 333.264 198.923 320.342 203.104C320.342 203.104 310.831 201.009 312.797 225.981L312.421 239.39L301.732 238.138Z" fill="#DCE0ED"/>
<path opacity="0.5" d="M333.156 249.677C333.221 248.594 333.024 247.511 332.585 246.533C332.146 245.554 331.479 244.713 330.648 244.089C327.757 241.817 318.831 236.971 318.831 236.971L315.941 237.28L307.745 260.25L309.19 308.648L325.025 328.804L333.156 249.677Z" fill="#15C95A"/>
<path opacity="0.1" d="M333.156 249.677C333.221 248.594 333.024 247.511 332.585 246.533C332.146 245.554 331.479 244.713 330.648 244.089C327.757 241.817 318.831 236.971 318.831 236.971L315.941 237.28L307.745 260.25L309.19 308.648L325.025 328.804L333.156 249.677Z" fill="black"/>
<path opacity="0.5" d="M272.282 301.669L271.725 251.981C271.725 251.981 270.005 232.728 280.773 232.187C280.773 232.187 306.184 231.87 317.292 235.48C317.642 235.594 317.963 235.79 318.233 236.053C318.503 236.317 318.715 236.641 318.853 237.003C318.992 237.364 319.053 237.755 319.033 238.145C319.013 238.535 318.912 238.916 318.738 239.259C316.613 243.394 313.1 254.299 311.799 282.115L312.327 311.894L272.282 301.669Z" fill="#15C95A"/>
<path opacity="0.5" d="M326.442 332.329L280.195 332.112H280.145L257.415 332.004L259.482 299.474L272.094 299.713L312.378 308.462L325.003 328.804L326.442 332.329Z" fill="#15C95A"/>
<path opacity="0.1" d="M326.442 332.329L280.195 332.112H280.145L257.415 332.004L259.482 299.474L272.094 299.713L312.378 308.462L325.003 328.804L326.442 332.329Z" fill="black"/>
<path opacity="0.5" d="M326.442 332.329L280.195 332.112L279.046 310.356L312.378 308.462L325.003 328.804L326.442 332.329Z" fill="#15C95A"/>
<path opacity="0.1" d="M280.145 332.112L257.415 332.004L259.475 299.474C259.475 299.474 266.796 311.461 279.046 310.356L280.145 332.112Z" fill="white"/>
<path opacity="0.5" d="M443.665 355.098C442.943 364.426 436.698 363.081 436.698 363.081L435.542 362.996L424.073 362.108L424.275 347.639C428.157 347.323 432.059 347.495 435.903 348.149C440.218 349.015 443.998 350.947 443.665 355.098Z" fill="#DCE0ED"/>
<path opacity="0.1" d="M443.665 355.098C442.943 364.426 436.698 363.081 436.698 363.081L435.542 362.996C434.264 360.934 433.585 358.514 433.591 356.041C433.533 352.802 434.451 349.912 435.903 348.157C440.218 349.015 443.998 350.947 443.665 355.098Z" fill="black"/>
<path opacity="0.5" d="M264.404 236.6C253.939 236.809 245.671 249.237 245.939 264.354C246.206 279.472 254.908 291.56 265.373 291.343C275.837 291.127 284.105 278.707 283.838 263.589C283.57 248.472 274.869 236.392 264.404 236.6ZM262.597 285.678C254.647 285.84 247.999 277.084 247.803 266.116C247.608 255.149 253.918 246.13 261.896 245.968C269.875 245.805 276.495 254.57 276.69 265.537C276.885 276.504 270.569 285.516 262.597 285.686V285.678Z" fill="#636780"/>
<path opacity="0.5" d="M265.958 272.369L274.985 281.504L278.049 273.111L265.069 265.359L265.958 272.369Z" fill="#636780"/>
<path opacity="0.5" d="M277.391 179.918L285.131 180.768L288.051 184.346L284.083 205.314L275.454 239.151L269.817 262.376L265.806 276.488L263.421 295.107L260.935 307.921L252.949 316.794L236.038 296.243L233.197 289.334L226.44 275.252L243.106 266.503L261.52 264.385L269.781 240.426L276.343 212.726L277.391 179.918Z" fill="#15C95A"/>
<path opacity="0.5" d="M123.056 282.617L114.571 373.345L241.458 365.068L225.999 320.913L201.254 304.412L257.199 304.266L257.061 279.418L234.354 274.649L188.751 271.642L154.494 270.7L121.994 282.795" fill="#15C95A"/>
<path opacity="0.1" d="M123.056 282.617L114.571 373.345L241.458 365.068L225.999 320.913L201.254 304.412L257.199 304.266L257.061 279.418L234.354 274.649L188.751 271.642L154.494 270.7L121.994 282.795" fill="black"/>
<path opacity="0.5" d="M298.133 369.334C298.531 391.832 291.903 412.453 272.47 410.598C247.999 410.536 245.765 392.899 245.368 370.408C244.97 347.918 256.483 330.93 271.06 330.636C285.637 330.342 297.743 346.836 298.133 369.334Z" fill="#636780"/>
<path opacity="0.1" d="M298.285 369.365C297.981 351.952 290.653 338.125 280.6 332.908C267.851 335.768 258.297 351.697 258.658 372.225C258.984 390.658 260.552 405.829 274.558 410.745C292.503 411.069 298.668 391.098 298.285 369.365Z" fill="black"/>
<path opacity="0.5" d="M322.438 333.527L315.138 342.809L328.523 340.073L338.381 330.01L346.996 310.688L359.462 302.163L390.459 306.036L419.1 306.615L429.486 296.367L417.669 294.891L405.73 294.844L375.745 294.721L340.057 294.427L333.105 315.465L327.8 329.933L322.438 333.527Z" fill="#15C95A"/>
<path opacity="0.5" d="M425.713 368.7C425.121 369.69 405.159 373.338 405.159 373.338L350.038 385.24L255.016 388.625L243.684 378.748L237.844 379.984L237.606 380.031L159.611 396.47L158.339 396.3L136.947 393.479L25.2804 378.748L26.1838 361.428L26.7259 351.202L27.8822 329.979L28.894 324.399L38.8024 323.232L43.4277 322.683L115.605 314.128L125.015 313.007L130.305 312.381L181.827 303.825L257.191 304.266L257.061 279.418L285.124 180.768C291.715 181.773 291.629 186.518 291.629 186.518L267.916 279.356L268.639 336.069C321.491 340.707 322.98 328.341 331.399 332.352L340.874 297.665L429.508 296.367C433.078 300.873 425.713 368.7 425.713 368.7Z" fill="#15C95A"/>
<path opacity="0.5" d="M204.918 321.663L234.173 385.649L243.706 388.718L245.816 378.222L234.636 342.647L223.419 322.111L204.918 321.663Z" fill="#15C95A"/>
<path opacity="0.15" d="M204.918 321.663L234.173 385.649L243.706 388.718L245.816 378.222L234.636 342.647L223.419 322.111L204.918 321.663Z" fill="black"/>
<path opacity="0.5" d="M188.948 454.897C217.07 454.331 239.381 426.214 238.779 392.098C238.178 357.982 214.892 330.785 186.77 331.352C158.647 331.919 136.337 360.035 136.938 394.151C137.54 428.267 160.825 455.464 188.948 454.897Z" fill="#636780"/>
<path opacity="0.1" d="M205.012 334.833C178.401 337.36 157.768 364.62 158.346 397.436C158.809 423.891 172.923 446.181 192.357 454.59C218.967 452.07 239.601 424.803 239.022 391.987C238.553 365.539 224.445 343.242 205.012 334.833Z" fill="black"/>
<path opacity="0.5" d="M49.4696 287.858L47.1714 300.618L40.1466 339.702L6.90188 336.943C6.90188 336.943 4.79879 330.451 9.95172 327.892C9.95172 327.892 11.2671 305.734 17.2728 298.639C17.9148 297.833 18.7275 297.202 19.6433 296.8L49.4696 287.858Z" fill="#15C95A"/>
<path opacity="0.1" d="M47.1714 300.618L40.1466 339.702L6.90188 336.943C6.90188 336.943 4.79879 330.451 9.95172 327.892C9.95172 327.892 11.2671 305.734 17.2728 298.639L47.1714 300.618Z" fill="white"/>
<path opacity="0.5" d="M124.292 289.782C128.7 297.372 119.565 368.345 119.565 368.345L37.899 355.608L39.7058 293.615C41.1223 282.471 47.2075 281.048 47.2075 281.048C75.6607 264.934 141.637 260.328 141.637 260.328C201.89 261.564 257.083 279.418 257.083 279.418C188.404 269.525 124.292 289.782 124.292 289.782Z" fill="#15C95A"/>
<path opacity="0.1" d="M119.529 368.383L37.8629 355.646L39.6696 293.654C41.1223 282.471 47.2075 281.048 47.2075 281.048C47.2075 281.048 106.542 273.799 124.256 289.79C128.664 297.372 119.529 368.383 119.529 368.383Z" fill="black"/>
<path opacity="0.5" d="M110.842 364.434L42.5244 353.536L44.0204 300.649C45.2562 291.134 50.3513 289.921 50.3513 289.921C50.3513 289.921 99.9583 283.738 114.774 297.402C118.467 303.887 110.842 364.434 110.842 364.434Z" fill="#15C95A"/>
<path opacity="0.1" d="M104.787 339.215C109.935 339.111 113.966 330.907 113.789 320.891C113.612 310.874 109.296 302.839 104.148 302.942C98.9999 303.046 94.9698 311.25 95.1463 321.266C95.3229 331.283 99.6394 339.318 104.787 339.215Z" fill="black"/>
<path opacity="0.5" d="M104.779 338.728C109.927 338.624 113.957 330.42 113.78 320.404C113.604 310.388 109.287 302.352 104.139 302.456C98.9914 302.559 94.9612 310.763 95.1378 320.78C95.3144 330.796 99.6308 338.832 104.779 338.728Z" fill="#DCE0ED"/>
<path opacity="0.5" d="M105.451 307.164C105.451 307.164 101.642 307.89 103.724 313.246C105.805 318.602 106.159 321.369 106.159 321.369C106.159 321.369 110.018 323.417 109.773 316.392C109.527 309.367 105.451 307.164 105.451 307.164Z" fill="#F0F0F4"/>
<path opacity="0.1" d="M54.6691 331.84C59.4779 331.743 63.2425 324.077 63.0775 314.718C62.9125 305.359 58.8805 297.851 54.0717 297.948C49.2629 298.045 45.4983 305.71 45.6633 315.069C45.8282 324.429 49.8603 331.937 54.6691 331.84Z" fill="black"/>
<path opacity="0.5" d="M54.6605 331.353C59.4694 331.256 63.2339 323.591 63.0689 314.232C62.904 304.873 58.8719 297.364 54.0631 297.461C49.2543 297.558 45.4897 305.224 45.6547 314.583C45.8197 323.942 49.8517 331.45 54.6605 331.353Z" fill="#DCE0ED"/>
<path opacity="0.5" d="M55.3597 300.981C55.3597 300.981 51.551 301.715 53.6324 307.063C55.7138 312.412 56.068 315.186 56.068 315.186C56.068 315.186 59.9272 317.235 59.6815 310.209C59.4358 303.184 55.3597 300.981 55.3597 300.981Z" fill="#F0F0F4"/>
<path opacity="0.1" d="M93.5044 305.927C93.013 312.644 90.8304 362.386 90.8304 362.386L85.6341 361.559L82.7433 361.111L78.884 360.5L78.4214 360.431L63.2445 358.035L65.297 305.278C65.3523 303.901 65.8082 302.577 66.6012 301.491C67.3941 300.405 68.4845 299.61 69.72 299.219C70.2769 299.046 70.8531 298.955 71.4328 298.948H71.8954C72.9361 299.026 74.0635 299.126 75.2487 299.234L76.752 299.396C78.1974 299.551 79.7151 299.744 81.1894 299.976C81.9121 300.1 82.6855 300.223 83.4154 300.363C84.6512 300.602 85.8509 300.865 86.9567 301.174C87.6794 301.375 88.4021 301.607 89.0742 301.854C91.8278 302.867 93.6345 304.235 93.5044 305.927Z" fill="black"/>
<path opacity="0.5" d="M71.4328 298.948L69.5104 358.236L67.8265 358.112L69.72 299.219C70.2769 299.046 70.8531 298.955 71.4328 298.948V298.948Z" fill="#15C95A"/>
<path opacity="0.5" d="M76.752 299.412L75.0319 359.271L72.4374 359.325L75.2487 299.25L76.752 299.412Z" fill="#15C95A"/>
<path opacity="0.5" d="M83.4154 300.37L80.0981 360.469H78.4214V360.392L81.1894 299.953C81.9411 300.115 82.6854 300.239 83.4154 300.37Z" fill="#15C95A"/>
<path opacity="0.5" d="M89.0742 301.87L85.6341 361.559V361.675L82.7433 361.404V361.111L86.9567 301.19C87.7083 301.391 88.4238 301.622 89.0742 301.87Z" fill="#15C95A"/>
<path opacity="0.1" d="M27.7377 349.27C27.7377 349.27 21.5729 318.355 34.3866 316.523C47.2003 314.692 89.4211 317.134 88.3876 329.902C87.3542 342.67 86.3207 362.069 86.3207 362.069L77.5759 360.16C77.5759 360.16 83.5888 330.86 73.3697 329.964C63.1505 329.067 38.1158 326.501 38.1158 326.501C38.1158 326.501 31.3295 325.419 35.6803 350.955L27.7377 349.27Z" fill="black"/>
<path opacity="0.5" d="M27.7883 352.215C27.7883 352.215 21.5946 319.36 34.4011 317.505C47.2075 315.65 89.4428 318.108 88.4093 330.884C87.3758 343.659 86.3351 363.051 86.3351 363.051L77.5903 361.142C77.5903 361.142 83.6105 331.842 73.3914 330.945C63.1722 330.049 38.1303 327.483 38.1303 327.483C38.1303 327.483 31.3801 328.356 35.7309 353.892L27.7883 352.215Z" fill="#DCE0ED"/>
<path opacity="0.5" d="M255.016 388.656L243.706 388.718C234.766 349.997 220.738 326.115 220.738 326.115C216.105 323.595 165.992 324.932 165.992 324.932C160.811 326.022 159.748 343.698 159.748 343.698C159.748 343.698 164.258 347.694 160.023 350.391C158.129 351.597 151.849 351.937 144.593 351.697C135.588 351.38 125.08 350.151 119.63 348.428C109.794 345.336 117.462 339.153 117.462 339.153C117.462 339.153 118.807 337.167 119.529 326.362C120.047 320.052 121.845 313.938 124.798 308.447C125.203 307.674 125.463 307.28 125.463 307.28C125.971 306.747 126.573 306.327 127.233 306.043C140.083 299.999 203.675 304.227 203.675 304.227L227.351 311.763C228.008 312.025 229.042 313.78 230.328 316.593C238.083 333.465 255.016 388.656 255.016 388.656Z" fill="#15C95A"/>
<path opacity="0.1" d="M255.016 388.656L243.706 388.718C234.766 349.997 220.738 326.115 220.738 326.115C216.105 323.595 165.992 324.932 165.992 324.932C160.811 326.022 159.748 343.698 159.748 343.698C159.748 343.698 164.258 347.694 160.023 350.391C158.129 351.597 151.849 351.937 144.593 351.697C135.588 351.38 125.08 350.151 119.63 348.428C109.794 345.336 117.462 339.153 117.462 339.153C117.462 339.153 118.807 337.167 119.529 326.362C120.047 320.052 121.845 313.938 124.798 308.447C125.203 307.674 125.463 307.28 125.463 307.28C125.971 306.747 126.573 306.327 127.233 306.043C140.083 299.999 203.675 304.227 203.675 304.227L227.351 311.763C228.008 312.025 229.042 313.78 230.328 316.593C238.083 333.465 255.016 388.656 255.016 388.656Z" fill="black"/>
<path opacity="0.5" d="M230.343 316.601C208.459 308.014 148.676 314.012 148.676 314.012C142.215 308.323 130.247 308.184 124.827 308.455C125.231 307.682 125.492 307.288 125.492 307.288C126 306.755 126.602 306.334 127.262 306.051C140.112 300.007 203.704 304.235 203.704 304.235L227.38 311.77C228.023 311.964 229.085 313.749 230.343 316.601Z" fill="#15C95A"/>
<path opacity="0.5" d="M152.239 316.353C150.953 321.447 145.655 341.858 145.655 341.858C145.127 345.114 144.772 348.398 144.593 351.697C135.588 351.38 125.08 350.151 119.63 348.428C109.794 345.336 117.462 339.153 117.462 339.153C117.462 339.153 118.807 337.167 119.529 326.362C120.085 319.593 122.117 313.057 125.463 307.28C125.971 306.747 126.573 306.327 127.233 306.043C135.776 307.983 153.2 312.497 152.239 316.353Z" fill="#15C95A"/>
<path opacity="0.1" d="M152.239 316.353C150.953 321.447 145.655 341.858 145.655 341.858C145.127 345.114 144.772 348.398 144.593 351.697C135.588 351.38 125.08 350.151 119.63 348.428C109.794 345.336 117.462 339.153 117.462 339.153C117.462 339.153 118.807 337.167 119.529 326.362C120.085 319.593 122.117 313.057 125.463 307.28C125.971 306.747 126.573 306.327 127.233 306.043C135.776 307.983 153.2 312.497 152.239 316.353Z" fill="white"/>
<path opacity="0.5" d="M163.947 187.384C157.891 188.481 155.491 202.022 155.491 202.022L140.033 261.302L257.061 279.418L285.124 180.768C257.502 168.085 163.947 187.384 163.947 187.384ZM258.919 248.479C258.919 248.479 258.333 254.137 253.86 254.717L178.163 253.078L162.639 252.738L157.428 252.63H157.06C157.06 252.63 151.35 253.851 152.174 248.68C152.174 248.68 157.609 199.533 168.666 195.63C168.666 195.63 169.816 195.344 171.832 194.904C174.997 194.193 180.288 193.08 186.525 192.029C189.314 191.557 192.306 191.101 195.363 190.699C203.754 189.617 212.774 188.945 220.261 189.563C220.261 189.563 275.866 182.924 272.086 196.241C272.101 196.233 261.253 244.391 258.919 248.479Z" fill="#15C95A"/>
<path opacity="0.5" d="M157.443 252.63H157.074C157.074 252.63 151.365 253.851 152.189 248.68C152.189 248.68 157.623 199.533 168.681 195.63C168.681 195.63 169.83 195.344 171.846 194.904C167.958 203.398 155.513 232.496 157.443 252.63Z" fill="#15C95A"/>
<path opacity="0.1" d="M157.443 252.63H157.074C157.074 252.63 151.365 253.851 152.189 248.68C152.189 248.68 157.623 199.533 168.681 195.63C168.681 195.63 169.83 195.344 171.846 194.904C167.958 203.398 155.513 232.496 157.443 252.63Z" fill="black"/>
<path opacity="0.1" d="M169.823 373.338C169.181 374.672 168.197 375.783 166.987 376.542C165.776 377.3 164.388 377.674 162.986 377.619L160.652 377.557L138.602 376.986L130.652 376.785L123.309 376.274L26.1838 361.428L26.7259 351.202L37.899 352.686L42.5171 353.297L111.081 362.378L120.107 363.576L124.48 364.156L142.974 363.638L162.993 363.081C164.005 363.048 165.014 363.234 165.956 363.63C167.685 364.331 169.098 365.714 169.902 367.495C170.316 368.408 170.525 369.412 170.511 370.426C170.497 371.441 170.262 372.438 169.823 373.338Z" fill="black"/>
<path opacity="0.5" d="M169.866 374.319C169.225 375.654 168.241 376.765 167.03 377.523C165.819 378.282 164.431 378.655 163.029 378.601L130.702 377.758L123.352 377.256L19.7517 361.428L11.6067 360.183L7.16928 359.503C-1.57553 357.718 0.860006 348.351 0.860006 348.351C1.39481 344.092 16.2971 339.849 21.1899 339.934C24.4782 339.973 25.0347 345.383 25.0419 348.93C25.0419 350.661 24.9191 351.952 24.9191 351.952L29.7612 352.594L124.516 365.137L163.022 364.055C164.449 364.001 165.86 364.388 167.086 365.171C168.312 365.954 169.3 367.099 169.931 368.468C170.352 369.38 170.566 370.385 170.554 371.402C170.543 372.419 170.307 373.418 169.866 374.319V374.319Z" fill="#DCE0ED"/>
<path opacity="0.1" d="M14.2663 345.97C14.2663 345.97 18.487 351.28 24.9191 351.967C24.9191 351.944 22.2162 345.97 14.2663 345.97Z" fill="black"/>
<path opacity="0.1" d="M13.4641 361.165C13.4641 361.165 -0.137323 361.118 -0.0144619 368.963C0.108399 376.808 8.70144 377.936 8.70144 377.936L130.623 400.489L165.176 400.442C165.176 400.442 177.064 389.908 164.453 385.58L129.626 387.265L13.4135 366.892C13.4135 366.892 16.3911 362.417 13.4641 361.165Z" fill="black"/>
<path opacity="0.5" d="M165.205 401.424L130.659 401.47L22.2523 381.422L14.3025 379.953L8.72312 378.918C8.72312 378.918 0.151762 377.782 -0.014462 369.929C-0.115642 364.303 6.87298 362.741 10.8262 362.309C12.38 362.139 13.4641 362.146 13.4641 362.146C16.355 363.391 13.4063 367.866 13.4063 367.866L17.6414 368.638L129.662 388.269L164.482 386.585C177.093 390.882 165.205 401.424 165.205 401.424Z" fill="#DCE0ED"/>
<path opacity="0.5" d="M23.5893 354.588L30.7152 351.009L34.3794 350.777L34.6757 383.787L23.3219 381.569L18.5086 378.431L15.9719 364.751C15.9719 364.751 16.7886 359.016 17.2367 358.514C17.6847 358.011 23.5893 354.588 23.5893 354.588Z" fill="#DCE0ED"/>
<path opacity="0.1" d="M23.5893 354.588L30.7152 351.009L34.3794 350.777L34.6757 383.787L23.3219 381.569L18.5086 378.431L15.9719 364.751C15.9719 364.751 16.7886 359.016 17.2367 358.514C17.6847 358.011 23.5893 354.588 23.5893 354.588Z" fill="black"/>
<path opacity="0.1" d="M22.2451 381.422L22.3824 381.584L14.4325 380.108L14.3386 379.953C10.0023 372.812 9.56147 366.961 10.8696 362.316C12.4234 362.146 13.5075 362.154 13.5075 362.154C16.3983 363.398 13.4497 367.873 13.4497 367.873L17.6847 368.646C17.4896 375.077 21.4573 380.417 22.2451 381.422Z" fill="black"/>
<path opacity="0.1" d="M33.4616 350.793C32.1245 351.372 30.8959 351.967 29.7613 352.586C24.7023 355.337 21.5513 358.375 19.7517 361.42L11.6068 360.175C14.989 352.284 23.3291 348.582 23.3291 348.582L25.042 348.961L33.4616 350.793Z" fill="black"/>
<path opacity="0.5" d="M24.247 348.528C24.247 348.528 2.10309 358.452 15.3287 380.093L23.2785 381.569C23.2785 381.569 7.21266 362.602 34.3794 350.777L24.247 348.528Z" fill="#DCE0ED"/>
<path opacity="0.5" d="M77.612 358.073L85.8654 357.586L85.1137 393.069L71.7725 390.727L66.0631 387.899L63.3457 380.927L61.3871 373.933L65.7089 367.471L70.6884 363.777L77.612 358.073Z" fill="#DCE0ED"/>
<path opacity="0.1" d="M77.612 358.073L85.8654 357.586L85.1137 393.069L71.7725 390.727L66.0631 387.899L63.3457 380.927L61.3871 373.933L65.7089 367.471L70.6884 363.777L77.612 358.073Z" fill="black"/>
<path opacity="0.5" d="M77.1356 383.59C79.3305 383.546 81.0531 380.292 80.9831 376.323C80.9132 372.354 79.0771 369.173 76.8822 369.217C74.6873 369.261 72.9647 372.515 73.0347 376.484C73.1047 380.453 74.9407 383.634 77.1356 383.59Z" fill="#DCE0ED"/>
<path opacity="0.5" d="M48.5301 397.034C47.2726 390.812 42.7484 389.552 42.7484 389.552C42.7484 389.552 34.0758 387.025 34.0758 397.204C34.0758 397.204 34.2999 403.456 38.2314 405.335L38.5856 412.29C38.5856 412.29 39.0409 418.775 35.5935 418.234C32.1462 417.693 32.5076 411.95 32.5076 411.95C32.5076 411.95 30.5635 405.86 26.1549 409.137C26.1549 409.137 25.1793 412.592 27.5064 414.261C28.8579 415.235 28.9518 417.275 28.7784 418.806C28.6664 419.756 28.7479 420.722 29.0173 421.636C29.2868 422.549 29.7378 423.39 30.3394 424.1C31.0141 424.932 31.8843 425.556 32.8601 425.908C33.8358 426.26 34.8818 426.327 35.8899 426.102C37.7326 425.677 39.3921 424.612 40.6092 423.072C42.6678 420.596 43.791 417.389 43.7602 414.076V405.103C43.7602 405.103 49.7876 403.263 48.5301 397.034ZM41.592 403.487C40.6289 403.506 39.6822 403.218 38.8719 402.661C38.0616 402.104 37.4239 401.302 37.0396 400.357C36.6552 399.413 36.5414 398.367 36.7125 397.354C36.8836 396.34 37.332 395.403 38.001 394.662C38.6699 393.92 39.5294 393.408 40.4707 393.189C41.412 392.97 42.393 393.054 43.2894 393.431C44.1859 393.809 44.9576 394.462 45.5071 395.308C46.0566 396.154 46.3591 397.155 46.3764 398.185C46.3888 398.87 46.2749 399.55 46.041 400.187C45.8071 400.824 45.4579 401.406 45.0134 401.899C44.5689 402.391 44.0379 402.785 43.4508 403.058C42.8637 403.33 42.232 403.476 41.592 403.487V403.487Z" fill="#DCE0ED"/>
<path opacity="0.5" d="M39.3011 386.933C39.0281 387.064 38.7835 387.254 38.5826 387.491C38.3818 387.728 38.229 388.008 38.134 388.311C38.0389 388.614 38.0037 388.936 38.0304 389.254C38.0571 389.573 38.1453 389.883 38.2893 390.163C39.2216 391.948 40.3418 394.259 40.2551 394.878C40.0961 395.921 42.2642 395.017 42.546 394.769C42.8279 394.522 46.7811 394.684 46.9618 391.794C46.9875 390.927 46.8009 390.068 46.4206 389.302C46.0403 388.536 45.4795 387.89 44.7937 387.427L45.5959 381.097L40.1033 380.75L40.2623 386.507L39.3011 386.933Z" fill="#636780"/>
<path opacity="0.1" d="M39.3011 386.933C39.0281 387.064 38.7835 387.254 38.5826 387.491C38.3818 387.728 38.229 388.008 38.134 388.311C38.0389 388.614 38.0037 388.936 38.0304 389.254C38.0571 389.573 38.1453 389.883 38.2893 390.163C39.2216 391.948 40.3418 394.259 40.2551 394.878C40.0961 395.921 42.2642 395.017 42.546 394.769C42.8279 394.522 46.7811 394.684 46.9618 391.794C46.9875 390.927 46.8009 390.068 46.4206 389.302C46.0403 388.536 45.4795 387.89 44.7937 387.427L45.5959 381.097L40.1033 380.75L40.2623 386.507L39.3011 386.933Z" fill="black"/>
<path opacity="0.1" d="M40.7826 386.77C40.7826 386.77 42.734 393.479 41.939 393.726C41.144 393.973 40.7826 386.77 40.7826 386.77Z" fill="black"/>
<path opacity="0.1" d="M42.8206 385.139C42.8206 385.139 44.772 391.84 43.9698 392.095C43.1676 392.35 42.8206 385.139 42.8206 385.139Z" fill="black"/>
<path opacity="0.5" d="M64.4297 364.388L61.7268 384.714C61.7268 384.714 57.9326 384.235 55.8439 383.802C55.3833 383.741 54.9345 383.603 54.5141 383.393C54.4129 383.277 54.1889 383.292 53.8854 383.393C52.8736 383.632 51.074 384.575 50.7054 383.825C50.6812 383.765 50.6469 383.71 50.6043 383.663V383.663C50.2357 383.253 49.5491 383.57 48.877 383.663C48.5179 383.768 48.1348 383.721 47.8074 383.532C47.2364 383.145 46.1018 383.81 45.1695 384.05C44.5841 384.196 44.0709 384.181 43.8325 383.617C43.739 383.434 43.6065 383.277 43.4458 383.159C43.2851 383.04 43.1007 382.964 42.9074 382.937V382.937C42.0257 382.72 40.7898 382.937 40.0816 382.759C39.7997 382.705 39.6046 382.596 39.5395 382.388C39.3878 381.955 38.6 381.762 37.7544 381.615C36.7282 381.422 35.6224 381.29 35.5357 380.842C35.5357 380.695 35.4056 380.633 35.2539 380.626C34.6874 380.732 34.1311 380.892 33.5916 381.105C33.1363 381.236 32.7533 381.252 32.6376 380.896C32.522 380.541 31.9872 380.564 31.3874 380.734C30.9031 380.873 30.3756 381.089 29.9419 381.198C29.5083 381.306 29.3059 381.314 29.2192 381.128C29.053 380.479 27.0944 381.986 26.6175 380.687C26.1405 379.389 19.7156 370.857 27.6148 359.418C27.6148 359.418 29.7829 359.534 31.4885 359.828C32.046 359.895 32.5913 360.048 33.1074 360.284C33.1074 360.284 33.1074 360.284 33.1074 360.284C33.6856 360.624 34.9359 360.515 36.0561 360.585C36.6255 360.58 37.1886 360.712 37.7039 360.971C37.9075 361.083 38.0721 361.262 38.1736 361.482C38.441 362.1 39.0264 362.216 39.6696 362.162C40.5369 362.092 41.4909 361.721 41.8378 361.899C42.481 362.177 44.8732 361.845 45.2923 362.262C45.473 362.533 46.4053 362.262 47.3665 362.069C47.6853 361.969 48.0203 361.943 48.3493 361.992C48.6782 362.042 48.9936 362.165 49.2745 362.355C49.7052 362.694 50.2381 362.851 50.7705 362.795C51.4164 362.715 52.0687 362.715 52.7146 362.795C52.8652 362.838 53.0009 362.926 53.1048 363.05C53.5023 363.553 54.4346 363.468 55.273 363.499C55.699 363.468 56.1239 363.573 56.4944 363.8C56.6267 363.896 56.7773 363.959 56.9352 363.986C58.1696 364.083 59.4107 363.992 60.621 363.715L64.4297 364.388Z" fill="#636780"/>
<path opacity="0.1" d="M31.3657 380.75C30.8815 380.889 30.3539 381.105 29.9202 381.213C23.5315 371.042 28.6194 363.12 31.503 359.843C32.0604 359.91 32.6058 360.064 33.1219 360.299C27.0511 368.09 30.1154 377.658 31.3657 380.75Z" fill="black"/>
<path opacity="0.1" d="M35.2394 380.618C34.673 380.724 34.1166 380.884 33.5772 381.097C28.0846 371.158 33.4182 363.537 36.1283 360.585C36.6977 360.58 37.2609 360.712 37.7761 360.972C31.9438 368.043 33.8663 376.653 35.2394 380.618Z" fill="black"/>
<path opacity="0.1" d="M40.0671 382.751C39.7853 382.697 39.5901 382.589 39.5251 382.38C39.3733 381.947 38.5856 381.754 37.74 381.607C32.9195 372.588 36.9667 365.524 39.7347 362.2C40.6019 362.131 41.5559 361.76 41.9028 361.938C35.5068 369.929 38.8602 379.845 40.0671 382.751Z" fill="black"/>
<path opacity="0.1" d="M45.1622 384.042C44.5768 384.189 44.0637 384.173 43.8252 383.609C43.7317 383.426 43.5993 383.269 43.4386 383.151C43.2779 383.033 43.0934 382.957 42.9001 382.929V382.929C37.2847 372.882 42.6906 365.222 45.408 362.278C45.5886 362.548 46.5209 362.278 47.4821 362.084C39.9298 370.617 44.0709 381.607 45.1622 384.042Z" fill="black"/>
<path opacity="0.1" d="M50.5753 383.625C50.2068 383.215 49.5202 383.532 48.8481 383.625C43.0086 373.678 48.0748 365.98 50.8861 362.819C51.532 362.739 52.1843 362.739 52.8302 362.819C46.3764 370.633 49.2745 380.27 50.5753 383.625Z" fill="black"/>
<path opacity="0.1" d="M55.8439 383.841C55.3832 383.78 54.9345 383.642 54.5141 383.431C54.4129 383.315 54.1889 383.331 53.8854 383.431C48.7035 374.35 52.5845 367.201 55.4031 363.661C55.8291 363.631 56.2539 363.736 56.6244 363.963C56.7568 364.058 56.9074 364.122 57.0653 364.148C51.71 371.769 54.6298 380.827 55.8439 383.841Z" fill="black"/>
<path opacity="0.5" d="M205.498 434.756C219.256 434.462 230.081 416.662 229.676 395C229.271 373.337 217.789 356.015 204.031 356.309C190.272 356.603 179.447 374.403 179.852 396.065C180.257 417.728 191.739 435.05 205.498 434.756Z" fill="#636780"/>
<path opacity="0.1" d="M203.953 428.118C213.954 427.916 221.81 413.523 221.501 395.97C221.191 378.417 212.833 364.351 202.833 364.553C192.832 364.754 184.976 379.147 185.285 396.7C185.594 414.254 193.953 428.32 203.953 428.118Z" fill="black"/>
<path opacity="0.5" d="M203.936 427.137C213.937 426.936 221.793 412.542 221.484 394.989C221.174 377.436 212.816 363.37 202.815 363.572C192.815 363.773 184.958 378.166 185.268 395.719C185.577 413.273 193.935 427.339 203.936 427.137Z" fill="#F0F0F4"/>
<path opacity="0.5" d="M206.356 377.886C207.537 377.862 208.464 376.085 208.425 373.917C208.387 371.749 207.399 370.011 206.217 370.035C205.036 370.059 204.109 371.836 204.148 374.004C204.186 376.172 205.174 377.91 206.356 377.886Z" fill="#636780"/>
<path opacity="0.5" d="M215.52 412.026C216.701 412.002 217.628 410.226 217.59 408.058C217.551 405.89 216.563 404.151 215.382 404.175C214.2 404.199 213.274 405.976 213.312 408.144C213.35 410.312 214.339 412.05 215.52 412.026Z" fill="#636780"/>
<path opacity="0.5" d="M192.154 396.154C193.335 396.13 194.262 394.353 194.223 392.185C194.185 390.017 193.197 388.279 192.015 388.303C190.834 388.327 189.907 390.103 189.946 392.271C189.984 394.439 190.972 396.178 192.154 396.154Z" fill="#636780"/>
<path opacity="0.5" d="M198.827 418.9C200.008 418.876 200.934 417.1 200.896 414.932C200.858 412.764 199.869 411.025 198.688 411.049C197.507 411.073 196.58 412.85 196.619 415.018C196.657 417.186 197.645 418.924 198.827 418.9Z" fill="#636780"/>
<path opacity="0.5" d="M385.256 319.491C385.256 319.491 404.046 370.115 403.172 373.322C403.172 373.322 410.825 378.075 412.632 376.808C414.439 375.54 412.444 353.026 412.444 353.026L408.657 333.241L404.552 321.555L385.256 319.491Z" fill="#15C95A"/>
<path opacity="0.15" d="M385.256 319.491C385.256 319.491 404.046 370.115 403.172 373.322C403.172 373.322 410.825 378.075 412.632 376.808C414.439 375.54 412.444 353.026 412.444 353.026L408.657 333.241L404.552 321.555L385.256 319.491Z" fill="black"/>
<path opacity="0.5" d="M218.201 390.722C219.382 390.698 220.309 388.921 220.271 386.753C220.232 384.585 219.244 382.847 218.063 382.871C216.881 382.895 215.955 384.672 215.993 386.84C216.031 389.008 217.02 390.746 218.201 390.722Z" fill="#636780"/>
<path opacity="0.5" d="M206.848 405.82C210.308 405.75 213.039 401.525 212.949 396.382C212.858 391.24 209.98 387.127 206.52 387.197C203.06 387.267 200.328 391.492 200.419 396.635C200.51 401.778 203.388 405.89 206.848 405.82Z" fill="#636780"/>
<path opacity="0.5" d="M406.402 387.234C406.923 416.75 398.229 443.801 372.731 441.335C340.628 441.25 337.701 418.149 337.181 388.602C336.661 359.055 351.765 336.819 370.881 336.425C389.997 336.031 405.875 357.725 406.402 387.234Z" fill="#636780"/>
<path opacity="0.1" d="M406.598 387.28C406.2 364.434 396.581 346.318 383.391 339.455C366.675 343.203 354.143 364.102 354.62 391.029C355.047 415.212 357.092 435.082 375.485 441.559C399.009 441.984 407.103 415.784 406.598 387.28Z" fill="black"/>
<path opacity="0.1" d="M419.7 374.458C419.7 374.458 415.191 378.717 412.618 375.826C412.618 375.826 405.492 323.008 397.694 322.923L370.874 323.217C370.874 323.217 367.694 324.762 366.429 331.154L350.017 384.289L254.994 387.705L247.449 371.583L326.073 370.246C326.471 368.607 338.713 318.177 347.436 311.762C347.731 311.545 348.052 311.37 348.39 311.245C348.39 311.245 381.086 305.92 391.919 308.926C391.919 308.926 403.194 311.392 406.012 315.016C406.388 315.426 410.732 320.426 412.307 335.212L419.7 374.458Z" fill="black"/>
<path opacity="0.5" d="M419.722 375.44C419.722 375.44 415.212 379.698 412.632 376.808C412.632 376.808 405.514 323.989 397.715 323.897L370.896 324.198C370.896 324.198 367.708 325.744 366.444 332.135L350.038 385.271L255.016 388.656L247.471 372.541L326.095 371.204V371.158C326.492 369.527 338.742 319.097 347.458 312.682C347.756 312.463 348.079 312.287 348.419 312.157C348.419 312.157 381.115 306.839 391.941 309.838C391.941 309.838 403.223 312.311 406.034 315.928C406.41 316.338 410.753 321.338 412.329 336.123L419.722 375.44Z" fill="#15C95A"/>
<path opacity="0.1" d="M419.722 375.44C419.722 375.44 415.212 379.698 412.632 376.808C412.632 376.808 405.514 323.989 397.715 323.897L370.896 324.198C370.896 324.198 367.708 325.744 366.444 332.135L350.038 385.271L255.016 388.656L247.471 372.541L326.095 371.204V371.158C326.492 369.527 338.742 319.097 347.458 312.682C347.756 312.463 348.079 312.287 348.419 312.157C348.419 312.157 381.115 306.839 391.941 309.838C391.941 309.838 403.223 312.311 406.034 315.928C406.41 316.338 410.753 321.338 412.329 336.123L419.722 375.44Z" fill="black"/>
<path opacity="0.5" d="M360.481 318.765C358.27 323.472 339.566 381.229 339.566 381.229L326.095 371.181V371.135C326.492 369.504 338.749 319.02 347.473 312.644C353.24 313.602 361.977 315.573 360.481 318.765Z" fill="#15C95A"/>
<path opacity="0.5" d="M334.341 293.059L324.223 331.023L268.032 330.443L268.596 336.069C268.596 336.069 312.725 342.044 331.356 332.352L340.831 297.665L429.464 296.367L412.509 292.456L334.341 293.059Z" fill="#15C95A"/>
<path opacity="0.1" d="M334.341 293.059L324.223 331.023L268.032 330.443L268.596 336.069C268.596 336.069 312.725 342.044 331.356 332.352L340.831 297.665L429.464 296.367L412.509 292.456L334.341 293.059Z" fill="white"/>
<path opacity="0.1" d="M72.1049 357.857C72.1049 357.857 42.2859 374.644 64.8778 389.39L70.8691 390.743C70.8691 390.743 48.718 374.35 84.9548 357.602L72.1049 357.857Z" fill="black"/>
<path opacity="0.5" d="M73.0228 357.841C73.0228 357.841 43.2037 374.628 65.7956 389.375L71.7869 390.727C71.7869 390.727 49.6214 374.334 85.8581 357.563L73.0228 357.841Z" fill="#DCE0ED"/>
<path opacity="0.5" d="M385.685 422.485C394.927 422.298 402.178 408.43 401.88 391.508C401.581 374.587 393.847 361.02 384.605 361.207C375.362 361.393 368.111 375.262 368.41 392.183C368.708 409.105 376.442 422.671 385.685 422.485Z" fill="#636780"/>
<path opacity="0.1" d="M385.622 416.925C392.34 416.781 397.578 405.547 397.321 391.832C397.065 378.118 391.411 367.116 384.693 367.26C377.976 367.404 372.738 378.638 372.995 392.353C373.251 406.067 378.905 417.069 385.622 416.925Z" fill="black"/>
<path opacity="0.5" d="M385.013 416.369C391.73 416.233 396.978 405.007 396.737 391.295C396.495 377.583 390.854 366.577 384.138 366.712C377.422 366.848 372.173 378.073 372.415 391.786C372.656 405.498 378.297 416.504 385.013 416.369Z" fill="#F0F0F4"/>
<path opacity="0.5" d="M386.539 377.909C387.333 377.893 387.953 376.507 387.923 374.813C387.893 373.118 387.225 371.758 386.431 371.774C385.637 371.79 385.017 373.176 385.047 374.871C385.077 376.565 385.745 377.925 386.539 377.909Z" fill="#636780"/>
<path opacity="0.5" d="M392.761 404.598C393.556 404.582 394.175 403.196 394.145 401.501C394.115 399.807 393.447 398.446 392.653 398.462C391.859 398.478 391.24 399.865 391.269 401.559C391.299 403.253 391.967 404.614 392.761 404.598Z" fill="#636780"/>
<path opacity="0.5" d="M377.035 392.141C377.829 392.125 378.449 390.739 378.419 389.045C378.389 387.35 377.721 385.99 376.927 386.006C376.133 386.022 375.513 387.408 375.543 389.103C375.573 390.797 376.241 392.157 377.035 392.141Z" fill="#636780"/>
<path opacity="0.5" d="M381.561 409.931C382.356 409.915 382.975 408.529 382.945 406.835C382.915 405.14 382.247 403.78 381.453 403.796C380.659 403.812 380.04 405.198 380.069 406.893C380.099 408.587 380.767 409.948 381.561 409.931Z" fill="#636780"/>
<path opacity="0.5" d="M394.52 387.964C395.314 387.948 395.934 386.562 395.904 384.867C395.874 383.173 395.206 381.813 394.412 381.829C393.618 381.845 392.998 383.231 393.028 384.925C393.058 386.62 393.726 387.98 394.52 387.964Z" fill="#636780"/>
<path opacity="0.5" d="M386.924 399.733C389.247 399.686 391.072 396.389 391.001 392.369C390.93 388.349 388.99 385.128 386.667 385.174C384.345 385.221 382.519 388.518 382.59 392.538C382.661 396.559 384.601 399.78 386.924 399.733Z" fill="#636780"/>
<path opacity="0.1" d="M139.787 260.451C139.787 260.451 190.702 261.386 257.061 279.418L139.787 260.451Z" fill="black"/>
<path opacity="0.5" d="M380.855 160.287C380.855 160.287 378.101 160.812 379.604 164.684C380.403 166.563 380.994 168.534 381.368 170.558C381.368 170.558 384.157 172.042 383.962 166.964C383.767 161.886 380.855 160.287 380.855 160.287Z" fill="#DCE0ED"/>
</g>
<path d="M386.463 513.754C385.832 513.69 385.223 513.475 384.681 513.125C384.139 512.774 383.678 512.297 383.333 511.729C380.204 506.666 371.9 492.221 377.732 490.227C378.658 489.906 379.602 489.648 380.558 489.454C385.756 488.473 391.105 489.041 396.021 491.096C400.936 493.15 405.228 496.612 408.426 501.102C409.278 502.277 410.042 503.522 410.71 504.827C410.962 505.333 411.106 505.893 411.131 506.467C411.156 507.04 411.061 507.612 410.854 508.141C410.646 508.67 410.331 509.143 409.931 509.526C409.531 509.908 409.056 510.191 408.542 510.353C403.396 511.976 393.863 514.457 386.463 513.754Z" fill="#15C95A"/>
<path d="M380.703 512.958L412.517 506.805H460.158L453.35 518.028H387.186L380.703 512.958Z" fill="#33323D"/>
<path d="M404.878 151.978C408.448 150.038 413.102 151.978 417.352 152.434C422.859 153.006 428.315 150.888 433.858 151.051C438.904 151.213 443.72 153.34 447.402 157.033C450.473 160.236 452.261 164.589 452.389 169.175C452.526 171.902 451.921 174.614 450.647 176.981C448.002 181.688 441.974 184.88 435.723 185.413C429.566 185.887 423.437 184.166 418.291 180.521C414.186 177.537 411.324 173.565 407.848 170.118C405.376 167.637 398.872 164.507 398.821 161.284C398.785 159.05 402.623 153.184 404.878 151.978Z" fill="#4C4981"/>
<path opacity="0.1" d="M404.878 151.978C408.448 150.038 413.102 151.978 417.352 152.434C422.859 153.006 428.315 150.888 433.858 151.051C438.904 151.213 443.72 153.34 447.402 157.033C450.473 160.236 452.261 164.589 452.389 169.175C452.526 171.902 451.921 174.614 450.647 176.981C448.002 181.688 441.974 184.88 435.723 185.413C429.566 185.887 423.437 184.166 418.291 180.521C414.186 177.537 411.324 173.565 407.848 170.118C405.376 167.637 398.872 164.507 398.821 161.284C398.785 159.05 402.623 153.184 404.878 151.978Z" fill="black"/>
<path d="M418.118 483.743L417.626 494.563C422.405 494.195 427.198 494.097 431.986 494.269C432.377 492.646 431.986 490.938 431.668 489.284C431.084 486.099 430.887 482.847 431.083 479.608C431.141 478.719 422.194 477.807 421.29 477.761C420.192 477.714 419.05 477.552 418.522 478.781C417.937 480.126 418.183 482.274 418.118 483.743Z" fill="#4C4981"/>
<path d="M406.33 487.229L405.846 498.049C410.622 497.681 415.413 497.583 420.199 497.755C420.589 496.132 420.199 494.424 419.881 492.77C419.303 489.584 419.108 486.332 419.303 483.094C419.353 482.197 410.413 481.293 409.51 481.247C408.404 481.2 407.27 481.038 406.742 482.267C406.149 483.612 406.395 485.76 406.33 487.229Z" fill="#4C4981"/>
<path d="M428.633 483.372C427.95 483.642 427.325 484.057 426.797 484.593L423.184 487.824C421.97 488.914 420.372 490.065 418.92 489.369C418.309 488.963 417.742 488.486 417.229 487.947C416.967 487.684 416.633 487.518 416.276 487.475C415.919 487.432 415.558 487.514 415.248 487.708C414.924 488.072 414.728 488.544 414.692 489.045C413.513 495.906 412.987 502.877 413.124 509.851C414.249 510.325 415.436 510.607 416.643 510.685C416.778 510.707 416.915 510.68 417.034 510.608C417.243 510.423 417.128 510.067 417.099 509.781C416.997 508.784 418.298 508.197 419.144 508.63C419.933 509.173 420.521 509.992 420.806 510.948C420.928 511.333 421.142 511.677 421.428 511.945C421.688 512.123 421.982 512.236 422.288 512.278C423.93 512.583 425.593 512.746 427.26 512.764C434.969 513.048 442.678 513.048 450.387 512.764C451.189 512.779 451.989 512.659 452.757 512.409C453.481 512.095 454.116 511.584 454.6 510.929C455.084 510.273 455.4 509.494 455.518 508.668C455.725 506.997 455.333 505.304 454.419 503.931C453.763 502.904 452.895 502.053 451.883 501.442C451.116 501.007 450.316 500.645 449.491 500.36L445.877 498.969C443.239 497.964 440.507 496.89 438.541 494.764C437.452 493.476 436.524 492.042 435.781 490.498C434.415 488.017 432.283 482.228 428.633 483.372Z" fill="#4C4981"/>
<path opacity="0.1" d="M428.633 483.372C427.95 483.642 427.325 484.057 426.797 484.593L423.184 487.824C421.97 488.914 420.372 490.065 418.92 489.369C418.309 488.963 417.742 488.486 417.229 487.947C416.967 487.684 416.633 487.518 416.276 487.475C415.919 487.432 415.558 487.514 415.248 487.708C414.924 488.072 414.728 488.544 414.692 489.045C413.513 495.906 412.987 502.877 413.124 509.851C414.249 510.325 415.436 510.607 416.643 510.685C416.778 510.707 416.915 510.68 417.034 510.608C417.243 510.423 417.128 510.067 417.099 509.781C416.997 508.784 418.298 508.197 419.144 508.63C419.933 509.173 420.521 509.992 420.806 510.948C420.928 511.333 421.142 511.677 421.428 511.945C421.688 512.123 421.982 512.236 422.288 512.278C423.93 512.583 425.593 512.746 427.26 512.764C434.969 513.048 442.678 513.048 450.387 512.764C451.189 512.779 451.989 512.659 452.757 512.409C453.481 512.095 454.116 511.584 454.6 510.929C455.084 510.273 455.4 509.494 455.518 508.668C455.725 506.997 455.333 505.304 454.419 503.931C453.763 502.904 452.895 502.053 451.883 501.442C451.116 501.007 450.316 500.645 449.491 500.36L445.877 498.969C443.239 497.964 440.507 496.89 438.541 494.764C437.452 493.476 436.524 492.042 435.781 490.498C434.415 488.017 432.283 482.228 428.633 483.372Z" fill="black"/>
<path d="M463.157 308.594C463.157 310.799 463.114 313.007 463.027 315.217C462.662 328.745 461.528 342.236 459.63 355.616C459.196 358.622 458.727 361.621 458.04 364.565C457.05 368.778 455.59 372.882 455.149 377.21C454.549 383.393 456.096 389.769 454.788 395.828C454.116 398.92 452.714 401.803 451.897 404.863C451.415 406.69 451.034 408.546 450.755 410.42C450.028 414.748 449.305 419.069 448.587 423.381C448.508 423.822 448.435 424.262 448.363 424.703C447.456 429.793 445.859 434.714 443.622 439.31C442.374 442.18 441.405 445.179 440.731 448.26C439.445 453.377 438.158 458.498 436.872 463.625C435.13 470.542 433.381 477.769 434.704 484.794C432.064 484.619 429.442 484.2 426.87 483.542C423.584 482.692 420.4 481.442 417.38 479.817C416.701 467.891 417.2 455.935 417.691 443.994C418.009 436.427 418.327 428.846 419.52 421.38C420.813 413.241 422.584 405.474 424.131 397.382C426.45 385.271 428.785 373.059 428.561 360.701C428.286 344.695 428.676 328.395 435.202 313.996C435.839 312.284 436.88 310.777 438.223 309.622C439.544 308.769 441.025 308.241 442.56 308.076C447.756 307.134 453.025 306.73 458.293 306.87C460.019 307.027 461.685 307.618 463.157 308.594V308.594Z" fill="#33323D"/>
<path opacity="0.1" d="M463.157 308.594C463.157 310.796 447.518 309.112 447.445 311.314C428.236 308.934 437.233 313.71 436.388 314.352C434.567 315.72 443.311 312.968 441.49 314.352C439.907 315.55 437.45 320.202 435.817 321.308C432.008 323.974 444.706 332.182 441.88 335.992C439.315 339.439 438.715 344.138 439.055 348.513C439.394 352.887 440.587 357.146 441.223 361.497C442.405 369.743 441.581 378.175 438.83 385.982C437.183 390.658 434.87 395.017 432.767 399.476C430.469 404.384 426.219 409.261 426.725 414.733C427.889 427.052 425.88 439.465 425.337 451.831C425.128 456.561 425.135 461.384 426.364 465.936C426.826 467.675 427.469 469.36 427.809 471.13C428.669 475.234 427.99 479.484 426.855 483.557C423.569 482.708 420.385 481.458 417.366 479.832C416.687 467.907 417.185 455.95 417.677 444.009C417.995 436.443 418.313 428.861 419.505 421.395C420.799 413.257 422.569 405.489 424.116 397.397C426.436 385.286 428.77 373.075 428.546 360.717C428.272 344.71 428.662 328.41 435.188 314.012C435.825 312.299 436.866 310.792 438.209 309.637C439.529 308.784 441.01 308.256 442.545 308.091C447.741 307.149 453.01 306.746 458.279 306.886C460.008 307.036 461.68 307.621 463.157 308.594V308.594Z" fill="black"/>
<path d="M464.306 297.596C464.306 301.522 466.359 310.209 463.547 312.729C461.675 314.421 459.363 315.449 457.354 316.956C455.532 318.324 453.979 320.048 452.165 321.462C450.582 322.66 448.818 323.557 447.192 324.693C443.376 327.359 441.707 332.205 438.874 336.008C436.315 339.455 435.716 344.154 436.055 348.528C436.395 352.903 437.587 357.161 438.223 361.513C439.4 369.759 438.577 378.19 435.831 385.997C434.176 390.673 431.871 395.032 429.768 399.492C427.469 404.399 423.213 409.276 423.726 414.748C424.889 427.068 422.873 439.48 422.338 451.846C422.129 456.576 422.136 461.399 423.364 465.951C423.827 467.69 424.463 469.375 424.81 471.145C425.814 475.991 424.687 481.053 423.205 485.76C418.103 484.802 412.943 483.851 407.783 484.261C403.251 484.624 398.749 486.023 394.239 485.443C393.697 472.428 394.81 459.397 395.909 446.421C396.125 443.77 396.357 441.119 396.581 438.46C397.448 428.297 398.308 418.126 398.821 407.924C398.951 405.35 398.098 402.622 398.778 400.141C400.19 394.942 401.601 389.766 403.013 384.614C403.771 382.035 404.336 379.397 404.704 376.723C405.34 371.197 404.285 365.624 403.259 360.176C401.813 352.715 400.368 345.244 398.922 337.762C398.445 335.281 397.961 332.793 397.304 330.343C396.815 328.723 396.407 327.077 396.082 325.412C395.824 323.067 395.689 320.708 395.677 318.348C395.461 314.274 394.572 310.286 394.29 306.221C394.131 304.268 394.189 302.301 394.463 300.363C394.741 298.26 395.439 296.247 396.509 294.458C407.138 289.925 418.17 286.559 429.435 284.411C432.053 283.836 434.713 283.505 437.385 283.421C440.429 283.501 443.461 283.861 446.448 284.496C450.625 285.268 454.882 286.041 458.734 288.051C460.579 288.979 462.265 290.233 463.721 291.761C465.658 293.84 464.443 289.04 465.065 291.9C465.238 292.889 464.292 296.607 464.306 297.596Z" fill="#33323D"/>
<path d="M416.853 486.85C416.17 487.123 415.546 487.541 415.017 488.079L411.404 491.309C410.182 492.399 408.585 493.551 407.14 492.855C406.528 492.45 405.961 491.973 405.449 491.433C405.188 491.168 404.853 491.002 404.496 490.959C404.139 490.916 403.778 490.998 403.468 491.193C403.144 491.557 402.948 492.03 402.912 492.531C401.725 499.39 401.2 506.362 401.343 513.336C402.466 513.81 403.651 514.091 404.856 514.171C404.99 514.193 405.128 514.166 405.246 514.094C405.463 513.908 405.347 513.553 405.318 513.267C405.217 512.27 406.518 511.675 407.356 512.115C408.146 512.658 408.733 513.478 409.019 514.434C409.144 514.817 409.358 515.16 409.64 515.431C409.9 515.608 410.194 515.722 410.5 515.763C412.145 516.069 413.81 516.232 415.48 516.25C423.184 516.536 430.91 516.544 438.607 516.25C439.412 516.264 440.214 516.144 440.984 515.895C441.708 515.578 442.342 515.067 442.824 514.41C443.307 513.752 443.622 512.973 443.738 512.146C443.948 510.477 443.555 508.786 442.639 507.416C441.984 506.392 441.119 505.541 440.11 504.927C439.34 504.494 438.538 504.132 437.71 503.845L434.097 502.454C431.466 501.442 428.734 500.375 426.761 498.242C425.669 496.954 424.739 495.52 423.993 493.976C422.627 491.503 420.495 485.714 416.853 486.85Z" fill="#4C4981"/>
<path d="M452.36 172.197C452.113 173.413 451.595 174.548 450.849 175.505C449.288 177.823 447.561 180.273 445.031 181.193C443.623 181.62 442.152 181.762 440.695 181.61C428.104 180.934 416.077 175.813 406.496 167.049C411.028 163.85 413.442 158.022 414.034 152.256C414.375 147.775 414.132 143.265 413.312 138.855C413.102 137.549 412.885 136.25 412.668 134.99C412.264 132.625 411.223 130.794 413.745 130.137C415.704 129.619 418.363 129.982 420.365 130.137C424.767 130.4 429.262 131.42 432.839 134.303C433.819 135.044 434.64 136 435.246 137.108C436.785 140.2 435.535 143.84 435.174 147.387C435.092 148.191 435.075 149 435.123 149.806C435.405 153.74 437.877 157.133 440.717 159.645C443.557 162.157 446.838 164.089 449.606 166.678C451.153 168.069 452.634 170.025 452.36 172.197Z" fill="#FBBEBE"/>
<path opacity="0.1" d="M435.166 147.341C433.596 147.733 431.988 147.93 430.375 147.928C427.066 147.93 423.801 147.11 420.839 145.533C417.877 143.956 415.297 141.664 413.304 138.839C413.095 137.533 412.878 136.235 412.661 134.975C412.256 132.61 411.216 130.778 413.738 130.121C415.697 129.604 418.356 129.967 420.358 130.121C424.759 130.384 429.255 131.404 432.832 134.287C433.812 135.028 434.633 135.985 435.239 137.093C436.778 140.146 435.528 143.786 435.166 147.341Z" fill="black"/>
<path d="M430.382 146.854C442.209 146.854 451.796 136.601 451.796 123.954C451.796 111.306 442.209 101.053 430.382 101.053C418.555 101.053 408.968 111.306 408.968 123.954C408.968 136.601 418.555 146.854 430.382 146.854Z" fill="#FBBEBE"/>
<path opacity="0.1" d="M465.614 293.863C465.484 294.172 464.465 299.435 464.306 299.737C457.18 298.191 452.743 298.075 445.516 298.191C443.682 298.171 441.85 298.334 440.045 298.678C438.527 299.002 437.045 299.536 435.513 299.791C427.26 301.151 419.447 294.249 411.115 294.929C408.332 295.154 405.672 296.22 403.063 297.248C400.173 298.423 397.282 299.319 394.463 300.34C394.741 298.237 395.439 296.223 396.508 294.435C407.138 289.902 418.17 286.536 429.435 284.387C432.053 283.813 434.713 283.482 437.385 283.398C440.429 283.478 443.461 283.838 446.448 284.472C450.625 285.245 454.882 286.018 458.734 288.028C460.579 288.956 462.265 290.21 463.721 291.737C465.614 293.863 465.029 291.003 465.614 293.863Z" fill="black"/>
<path d="M423.234 170.713C422.786 168.394 421.305 166.547 419.845 164.8C417.089 161.503 414.242 158.29 411.303 155.163C410.353 154.039 409.228 153.1 407.978 152.388C407.349 152.038 406.649 151.858 405.939 151.865C405.23 151.872 404.533 152.065 403.909 152.427C402.796 153.199 402.232 154.56 401.344 155.595C399.421 157.844 396.075 158.378 394.456 160.89C394.098 161.593 393.685 162.263 393.22 162.891C392.525 163.525 391.693 163.963 390.799 164.167L380.594 167.436C379.395 167.815 378.065 168.309 377.494 169.499C377.248 170.133 377.094 170.802 377.039 171.486C376.229 176.424 372.16 179.856 368.583 183.079C367.34 184.199 366.082 185.436 365.555 187.075C365.027 188.713 365.302 190.452 365.627 192.121C366.444 196.365 367.636 200.623 369.963 204.186C371.496 206.597 373.505 208.669 374.769 211.25C375.839 213.714 376.514 216.353 376.764 219.056C377.487 224.134 377.863 229.25 378.267 234.367C378.621 238.865 378.116 243.92 379.337 248.279C380.826 253.573 386.138 256.587 388.494 261.51C389.375 263.58 389.986 265.77 390.308 268.018L392.57 280.276C392.98 282.133 393.205 284.032 393.242 285.941C393.184 290.447 391.023 294.837 391.703 299.281C395.526 297.735 399.212 296.676 403.027 295.138C405.644 294.079 408.303 293.005 411.093 292.781C419.419 292.116 427.231 299.01 435.484 297.65C437.017 297.403 438.498 296.877 440.016 296.545C441.821 296.199 443.653 296.031 445.487 296.042C452.763 295.924 460.03 296.627 467.168 298.137C468.614 295.548 468.852 292.371 468.498 289.38C468.144 286.389 467.24 283.514 466.532 280.593C464.663 272.928 464.12 264.963 464.928 257.089C465.202 255.11 465.368 253.115 465.426 251.115C465.426 243.649 461.191 236.655 461.582 229.196C461.965 221.862 469.799 217.758 473.037 211.266C473.781 209.971 474.155 208.472 474.113 206.953C473.954 205.407 473.044 204.016 472.458 202.563C471.013 199 471.548 194.896 470.724 191.124C470.428 189.803 470.001 188.528 469.698 187.198C468.975 183.535 469.633 179.64 468.758 176.007C468.079 173.194 466.503 170.728 464.827 168.448C461.993 164.584 458.683 160.975 454.55 158.841C450.416 156.708 445.328 156.252 441.288 158.586C440.659 158.921 440.103 159.392 439.654 159.97C439.232 160.659 438.928 161.423 438.758 162.227C437.318 167.382 435.327 172.343 432.825 177.012C431.889 177.163 430.933 177.092 430.026 176.802C429.119 176.512 428.283 176.011 427.578 175.335C426.118 174.005 423.618 172.691 423.234 170.713Z" fill="#4C4981"/>
<path d="M420.069 130.825C420.468 129.798 420.645 128.689 420.589 127.579C420.532 126.466 420.817 125.365 421.399 124.441C422.237 123.351 423.74 123.057 424.543 121.952C425.46 120.692 425.15 118.907 425.424 117.315C425.668 116.052 426.297 114.911 427.212 114.071C428.128 113.232 429.279 112.742 430.483 112.678C432.276 112.623 433.959 113.535 435.723 113.906C438.014 114.393 440.377 113.953 442.675 113.52C444.388 113.195 446.289 112.786 447.359 111.348C448.009 110.376 448.435 109.253 448.602 108.071C448.985 106.224 449.274 104.168 448.385 102.537C447.496 100.907 445.617 100.111 444.627 98.5262C443.767 97.1428 443.694 95.3188 442.82 93.9431C441.461 91.7945 438.628 91.4158 436.222 91.7404C433.815 92.065 431.372 92.8842 428.994 92.3355C426.378 91.7327 423.791 89.53 421.326 90.6352C419.512 91.4544 418.754 93.688 417.641 95.427C416.678 96.9271 415.365 98.1316 413.832 98.9204C411.476 100.134 408.715 100.304 406.453 101.71C405.431 102.36 404.552 103.237 403.876 104.283C403.2 105.329 402.743 106.518 402.536 107.77C402.43 108.226 402.445 108.705 402.579 109.153C402.742 109.495 402.933 109.821 403.15 110.127C404.09 111.719 403.483 113.845 402.572 115.452C401.661 117.06 400.447 118.544 400.158 120.437C399.869 122.331 400.556 124.178 401.445 125.809C402.444 127.363 403.335 128.993 404.111 130.686C404.885 132.703 405.029 134.936 405.803 136.946C406.421 138.499 407.392 139.862 408.627 140.912C409.863 141.962 411.324 142.665 412.878 142.959C413.168 143.043 413.472 143.062 413.769 143.014C414.066 142.966 414.351 142.853 414.605 142.681C414.946 142.328 415.171 141.867 415.248 141.367C415.458 140.513 415.595 139.642 415.66 138.762C415.783 137.031 415.66 135.029 416.383 133.429C417.279 131.428 419.1 132.78 420.069 130.825Z" fill="#33323D"/>
<path opacity="0.1" d="M448.349 102.599C447.452 100.961 445.581 100.172 444.591 98.5881C443.73 97.2046 443.658 95.3807 442.784 94.0049C442.131 93.0277 441.172 92.3337 440.081 92.0496V92.0496C440.955 93.4253 441.02 95.2493 441.888 96.6327C442.87 98.2171 444.742 98.9977 445.638 100.644C446.535 102.29 446.238 104.331 445.855 106.178C445.69 107.359 445.266 108.481 444.619 109.455C443.506 110.885 441.642 111.302 439.929 111.626C437.631 112.059 435.268 112.492 432.977 112.013C431.22 111.634 429.536 110.73 427.737 110.784C426.544 110.854 425.406 111.342 424.499 112.173C423.593 113.005 422.968 114.133 422.721 115.383C422.447 116.928 422.721 118.737 421.84 120.02C421.03 121.125 419.527 121.419 418.696 122.501C418.113 123.427 417.826 124.531 417.879 125.646C417.938 126.753 417.763 127.86 417.366 128.885C416.39 130.848 414.569 129.488 413.651 131.489C412.929 133.089 413.051 135.091 412.929 136.822C412.864 137.704 412.726 138.578 412.517 139.435C412.439 139.933 412.217 140.393 411.881 140.748C411.627 140.92 411.342 141.034 411.044 141.082C410.747 141.13 410.444 141.111 410.153 141.027C409.406 140.887 408.678 140.648 407.985 140.316C409.329 141.697 411.027 142.62 412.864 142.967C413.154 143.051 413.457 143.07 413.755 143.022C414.052 142.974 414.337 142.86 414.591 142.688C414.931 142.335 415.157 141.875 415.234 141.374C415.443 140.521 415.581 139.649 415.646 138.77C415.769 137.039 415.646 135.037 416.369 133.437C417.294 131.435 419.115 132.788 420.083 130.832C420.482 129.806 420.66 128.696 420.604 127.586C420.547 126.474 420.831 125.372 421.413 124.449C422.252 123.359 423.755 123.065 424.557 121.96C425.475 120.7 425.164 118.915 425.439 117.323C425.688 116.067 426.32 114.935 427.236 114.104C428.151 113.273 429.298 112.791 430.498 112.732C432.29 112.67 433.974 113.582 435.737 113.953C438.028 114.44 440.392 113.999 442.69 113.566C444.403 113.242 446.303 112.832 447.373 111.395C448.024 110.423 448.45 109.3 448.616 108.118C448.948 106.286 449.238 104.23 448.349 102.599Z" fill="black"/>
<path d="M402.117 530.734C402.117 538.532 397.014 544.854 390.727 544.854C384.439 544.854 379.344 538.532 379.344 530.734V530.626C379.395 522.897 384.475 516.613 390.727 516.613C394.593 516.613 398.005 518.994 400.057 522.657C401.423 525.097 402.135 527.891 402.117 530.734V530.734Z" fill="#33323D"/>
<path d="M492.875 536.422C492.875 551.439 485.612 563.62 476.657 563.62C467.703 563.62 460.454 551.439 460.454 536.422C460.454 527.92 462.767 520.354 466.395 515.377C469.199 511.512 472.755 509.194 476.657 509.194C477.194 509.192 477.731 509.234 478.262 509.317C481.478 509.851 484.434 511.961 486.811 515.191C487.146 515.635 487.46 516.097 487.751 516.575C490.902 521.567 492.875 528.616 492.875 536.422Z" fill="#33323D"/>
<path d="M483.219 505.291L469.047 506.805L467.226 490.606L467.103 489.547L464.53 466.716L464.414 465.658L451.398 350.167L451.117 347.709L443.355 278.776L443.167 277.13L442.357 269.927L441.815 265.143H453.162L453.776 270.097L453.877 270.885L454.159 273.103L463.894 350.901L464.154 352.988L478.038 463.903L481.08 488.21L483.219 505.291Z" fill="#33323D"/>
<path opacity="0.1" d="M476.643 509.232C477.18 509.231 477.716 509.272 478.247 509.356L477.843 509.65C476.549 510.674 475.533 512.048 474.899 513.63C474.264 515.211 474.033 516.945 474.229 518.654L476.527 542.025C476.534 542.146 476.534 542.268 476.527 542.389C476.498 543.243 476.18 544.056 475.632 544.678C475.083 545.3 474.343 545.687 473.547 545.768C472.752 545.85 471.956 545.619 471.308 545.12C470.659 544.62 470.203 543.886 470.023 543.053C469.076 537.697 467.284 526.753 466.474 516.868C466.431 516.343 466.402 515.848 466.402 515.377C469.184 511.543 472.74 509.232 476.643 509.232Z" fill="black"/>
<path opacity="0.1" d="M480.733 516.613L480.235 516.459C480.083 516.034 479.946 515.616 479.794 515.23C480.129 515.673 480.442 516.135 480.733 516.613V516.613Z" fill="black"/>
<path d="M475.841 502.864C475.841 502.864 464.313 502.091 465.448 515.802C466.265 525.687 468.057 536.623 468.997 541.979C469.155 542.876 469.633 543.673 470.33 544.2C471.027 544.728 471.889 544.946 472.733 544.808V544.808C473.573 544.672 474.332 544.193 474.85 543.473C475.369 542.753 475.607 541.847 475.515 540.943L473.217 517.572C473.019 515.862 473.249 514.126 473.884 512.543C474.519 510.959 475.536 509.585 476.831 508.56C479.555 506.512 483.191 506.388 486.226 515.377L488.307 515.987C488.307 515.987 490.967 501.241 475.841 502.864Z" fill="#504F60"/>
<path opacity="0.1" d="M463.887 350.901C463.315 351.021 462.735 351.083 462.152 351.087H458.091C455.8 351.079 453.592 350.17 451.888 348.534C450.183 346.898 449.101 344.648 448.847 342.214L442.632 281.721C442.472 280.15 442.664 278.562 443.191 277.086C443.719 275.61 444.566 274.289 445.665 273.232C446.763 272.176 448.08 271.413 449.508 271.008C450.936 270.602 452.434 270.566 453.877 270.901L463.887 350.901Z" fill="black"/>
<path opacity="0.1" d="M464.147 352.988C463.493 353.149 462.824 353.23 462.152 353.227H458.091C456.837 353.226 455.597 352.95 454.447 352.419C453.296 351.887 452.259 351.111 451.398 350.136L451.117 347.67L443.355 278.745C444.228 276.577 445.796 274.814 447.777 273.772C449.757 272.731 452.021 272.48 454.159 273.065L463.887 350.87L464.147 352.988Z" fill="black"/>
<path d="M442.632 282.787C444.128 297.341 447.286 328.109 448.847 343.296C449.097 345.731 450.178 347.982 451.884 349.616C453.59 351.251 455.8 352.154 458.091 352.153H462.145C464.081 352.181 465.975 351.55 467.554 350.351C469.132 349.152 470.313 347.447 470.926 345.483C471.177 344.649 471.306 343.778 471.309 342.902C471.309 338.264 466.655 296.259 465.209 283.305C465.072 282.022 464.698 280.78 464.11 279.651C463.522 278.522 462.732 277.529 461.784 276.728C459.883 275.116 457.82 273.734 455.634 272.609C449.136 269.378 441.851 275.167 442.632 282.787Z" fill="#15C95A"/>
<path opacity="0.1" d="M400.057 522.657L397.007 522.518C394.294 522.387 391.602 523.092 389.252 524.551L379.713 530.425C379.59 530.494 379.46 530.571 379.344 530.626C379.395 522.897 384.475 516.613 390.727 516.613C394.586 516.613 398.005 518.994 400.057 522.657Z" fill="black"/>
<path opacity="0.1" d="M481.08 489.277L467.226 490.606L467.103 489.547L464.53 466.717L478.038 464.978L481.08 489.277Z" fill="black"/>
<path d="M467.089 489.547C469.314 524.327 446.542 523.685 446.542 523.685L397.014 521.413C394.299 521.288 391.607 521.994 389.252 523.446L379.713 529.327C378.851 529.858 377.859 530.101 376.867 530.022C375.875 529.943 374.927 529.548 374.148 528.887V528.887C373.134 528.026 372.475 526.777 372.309 525.405C372.143 524.032 372.484 522.645 373.259 521.537L377.292 515.786C378.126 514.598 379.223 513.648 380.484 513.022C381.745 512.397 383.131 512.114 384.519 512.2L436.344 515.361C457.303 515.763 464.414 465.627 464.414 465.627L478.045 463.872L481.08 488.179L467.11 489.516L467.089 489.547Z" fill="#504F60"/>
<path opacity="0.1" d="M453.776 270.097L442.357 269.927L441.815 265.143H453.162L453.776 270.097Z" fill="black"/>
<path d="M398.662 260.652L494.479 263.218C495.256 263.248 495.991 263.599 496.53 264.198C497.07 264.796 497.371 265.595 497.37 266.426V266.426C497.37 266.85 497.291 267.27 497.138 267.661C496.985 268.052 496.761 268.407 496.479 268.705C496.196 269.003 495.861 269.237 495.493 269.395C495.125 269.553 494.731 269.632 494.335 269.625L398.525 268.196C397.739 268.183 396.989 267.841 396.437 267.242C395.885 266.643 395.576 265.837 395.576 264.996V263.852C395.576 263.423 395.656 262.999 395.813 262.604C395.969 262.209 396.198 261.852 396.486 261.553C396.773 261.255 397.114 261.021 397.488 260.866C397.862 260.712 398.261 260.639 398.662 260.652V260.652Z" fill="#33323D"/>
<path d="M405.275 251.54C408.614 252.267 412.307 252.073 415.104 254.168C417.597 256.031 418.804 259.393 418.941 262.67C419.079 265.947 418.277 269.123 417.496 272.269C417.25 273.258 416.773 274.456 415.805 274.487C414.836 274.518 414.359 273.467 413.586 272.941C411.924 271.859 409.575 273.459 407.898 272.408C407.423 272.029 406.982 271.601 406.583 271.133C405.925 270.517 405.109 270.129 404.241 270.019C403.373 269.908 402.494 270.081 401.719 270.514C401.935 269.289 401.89 268.028 401.59 266.823C401.29 265.618 400.741 264.501 399.984 263.553C399.227 262.605 398.281 261.85 397.216 261.344C396.15 260.838 394.993 260.594 393.827 260.629C392.526 260.675 391.132 261.039 389.997 260.366C388.168 259.3 388.32 256.363 389.274 254.4C390.662 251.641 391.717 248.936 394.868 248.936C398.482 248.951 401.813 250.79 405.275 251.54Z" fill="#FBBEBE"/>
<path d="M470.536 255.381L470.493 262.894C470.493 265.722 470.493 268.69 471.801 271.156C472.48 272.439 473.651 273.598 475.038 273.567C475.559 273.567 476.065 273.382 476.585 273.405C478.095 273.467 479.476 275.167 480.885 274.603C481.362 274.409 481.745 273.977 482.237 273.83C482.959 273.598 483.79 274.031 484.52 273.791C485.25 273.552 485.684 272.655 485.966 271.867C487.411 268.095 488.857 263.937 487.809 260.026C487.227 258.265 486.396 256.61 485.344 255.119L480.661 247.707C480.475 247.354 480.212 247.055 479.895 246.833C479.568 246.67 479.207 246.601 478.847 246.632C476.52 246.632 474.345 247.807 472.263 248.951C470.182 250.095 470.55 253.225 470.536 255.381Z" fill="#FBBEBE"/>
<path d="M475.125 213.615C475.385 215.265 475.826 216.876 476.44 218.415C477.264 220.169 478.724 221.645 478.984 223.593C479.295 225.912 477.879 228.586 479.23 230.417C479.779 231.19 480.675 231.554 481.254 232.296C482.641 234.127 481.319 236.825 481.521 239.166C481.702 241.307 483.198 243.085 483.61 245.195C484.022 247.305 483.328 249.917 484.585 251.695C483.306 249.538 480.502 249.113 478.146 249.531C476.212 249.89 474.366 250.664 472.718 251.805C471.07 252.945 469.654 254.43 468.556 256.17C468.908 253.107 468.601 249.998 467.659 247.081C466.814 244.468 465.455 241.933 465.571 239.174C465.643 237.543 466.236 235.943 466.091 234.313C465.867 231.762 463.923 229.822 462.246 228.022C460.208 225.85 458.221 223.268 458.019 220.192C457.831 217.34 459.24 214.643 460.852 212.355C462.08 210.429 463.717 208.84 465.629 207.718C466.893 207.053 470.724 204.271 471.562 204.627C473.362 205.353 474.728 211.853 475.125 213.615Z" fill="#4C4981"/>
<path d="M369.291 190.352C367.34 191.049 365.702 192.502 364.702 194.425C363.722 196.337 362.916 198.345 362.295 200.422C360.774 204.838 358.887 209.101 356.658 213.159C354.967 216.251 353.045 219.218 352.134 222.627C351.317 225.61 351.26 228.856 349.915 231.608C349.258 232.952 348.318 234.143 347.819 235.565C347.169 237.404 347.335 239.429 347.516 241.408L347.986 246.632C348.041 248.349 348.404 250.039 349.055 251.61C349.959 253.457 351.606 254.701 353.196 255.946L360.546 261.518C361.95 262.688 363.5 263.642 365.15 264.354C369.934 266.155 375.095 263.674 380.125 262.994C383.594 262.53 387.106 262.925 390.582 263.327C390.293 260.289 390.387 257.074 391.76 254.4C393.133 251.726 397.318 248.217 400.086 248.943C397.34 246.462 392.794 247.846 389.751 245.782C388.53 244.955 387.489 243.858 386.289 242.984C382.51 240.248 377.089 239.785 374.654 235.65C374.497 235.423 374.397 235.157 374.365 234.877C374.321 234.266 374.806 233.779 375.225 233.331C378.275 230.24 379.799 225.78 380.175 221.321C380.551 216.861 379.886 212.394 379.127 207.989C378.513 204.457 377.826 200.878 376.323 197.663C374.82 194.448 372.442 191.55 369.291 190.352Z" fill="#4C4981"/>
<path opacity="0.1" d="M38.7879 469.901C46.2439 469.901 52.2882 468.807 52.2882 467.458C52.2882 466.11 46.2439 465.016 38.7879 465.016C31.332 465.016 25.2877 466.11 25.2877 467.458C25.2877 468.807 31.332 469.901 38.7879 469.901Z" fill="#15C95A"/>
<path d="M29.7179 456.12C29.7179 456.12 37.4148 455.865 39.7347 454.103C42.0546 452.341 51.5799 450.239 52.1581 453.06C52.7363 455.881 63.7215 467.149 55.0489 467.226C46.3764 467.304 34.8347 465.766 32.5076 464.274C30.1804 462.782 29.7179 456.12 29.7179 456.12Z" fill="#A8A8A8"/>
<path opacity="0.2" d="M55.1935 466.245C46.5209 466.315 34.9937 464.792 32.6738 463.285C30.9104 462.133 30.2093 458.014 29.9781 456.113H29.7179C29.7179 456.113 30.2093 462.752 32.522 464.266C34.8347 465.781 46.3403 467.296 55.0345 467.219C57.5423 467.219 58.4095 466.245 58.3662 464.831C58.0121 465.688 57.0798 466.222 55.1935 466.245Z" fill="black"/>
<path opacity="0.1" d="M117.079 440.91C122.815 440.91 127.465 440.069 127.465 439.032C127.465 437.995 122.815 437.154 117.079 437.154C111.344 437.154 106.694 437.995 106.694 439.032C106.694 440.069 111.344 440.91 117.079 440.91Z" fill="#15C95A"/>
<path d="M110.098 430.299C110.098 430.299 116.024 430.105 117.809 428.753C119.594 427.4 126.923 425.77 127.363 427.98C127.804 430.19 136.267 438.8 129.582 438.885C122.897 438.97 114.037 437.772 112.237 436.613C110.438 435.454 110.098 430.299 110.098 430.299Z" fill="#A8A8A8"/>
<path opacity="0.2" d="M129.698 438.089C123.013 438.143 114.16 436.976 112.353 435.817C110.994 434.928 110.452 431.759 110.271 430.291H110.076C110.076 430.291 110.452 435.407 112.244 436.567C114.037 437.726 122.883 438.885 129.589 438.839C131.519 438.839 132.184 438.066 132.148 436.999C131.873 437.664 131.136 438.074 129.698 438.089Z" fill="black"/>
<path opacity="0.1" d="M69.9513 562.221C83.6459 562.221 94.7475 560.214 94.7475 557.738C94.7475 555.262 83.6459 553.255 69.9513 553.255C56.2567 553.255 45.155 555.262 45.155 557.738C45.155 560.214 56.2567 562.221 69.9513 562.221Z" fill="#15C95A"/>
<path d="M53.2928 536.909C53.2928 536.909 67.4362 536.445 71.7002 533.199C75.9642 529.953 93.4611 526.073 94.5162 531.283C95.5714 536.492 115.771 557.174 99.7993 557.313C83.8273 557.452 62.6952 554.647 58.4457 551.903C54.1961 549.159 53.2928 536.909 53.2928 536.909Z" fill="#A8A8A8"/>
<path opacity="0.2" d="M100.088 555.497C84.1164 555.636 62.9843 552.838 58.7275 550.086C55.4898 547.976 54.1961 540.402 53.7697 536.909H53.2928C53.2928 536.909 54.1889 549.105 58.4457 551.88C62.7025 554.654 83.8345 557.444 99.7992 557.29C104.41 557.243 106.007 555.489 105.913 552.892C105.277 554.484 103.521 555.466 100.088 555.497Z" fill="black"/>
<g opacity="0.1">
<path opacity="0.1" d="M569.143 199.757C570.733 205.044 566.396 223.446 566.396 223.446C566.396 223.446 552.838 211.204 551.219 205.917C550.453 203.38 550.66 200.62 551.796 198.246C552.932 195.872 554.903 194.077 557.276 193.258C559.649 192.438 562.229 192.659 564.449 193.874C566.669 195.089 568.347 197.197 569.114 199.734L569.143 199.757Z" fill="#15C95A"/>
<path opacity="0.1" d="M568.702 132.703C566.057 137.479 550.309 146.228 550.309 146.228C550.309 146.228 549.875 127.254 552.477 122.478C553.745 120.182 555.814 118.519 558.228 117.854C560.643 117.19 563.205 117.578 565.352 118.934C567.499 120.29 569.054 122.502 569.675 125.084C570.297 127.667 569.934 130.407 568.666 132.703H568.702Z" fill="#15C95A"/>
<path opacity="0.1" d="M565.406 371.421C563.787 374.365 554.089 379.745 554.089 379.745C554.089 379.745 553.821 368.066 555.447 365.13C556.227 363.717 557.5 362.694 558.986 362.285C560.471 361.877 562.048 362.116 563.368 362.95C564.689 363.784 565.646 365.145 566.028 366.734C566.41 368.323 566.186 370.008 565.406 371.421Z" fill="#15C95A"/>
<path opacity="0.1" d="M670.966 342.152C669.339 345.089 659.648 350.476 659.648 350.476C659.648 350.476 659.381 338.798 661.007 335.853C661.788 334.441 663.061 333.418 664.548 333.01C666.034 332.602 667.61 332.842 668.931 333.678C670.252 334.513 671.208 335.875 671.59 337.464C671.971 339.054 671.747 340.74 670.966 342.152V342.152Z" fill="#15C95A"/>
<path opacity="0.1" d="M557.521 295.246C554.884 300.03 539.136 308.772 539.136 308.772C539.136 308.772 538.695 289.805 541.304 285.021C541.932 283.885 542.763 282.892 543.749 282.099C544.736 281.306 545.859 280.729 547.054 280.4C548.249 280.072 549.493 279.998 550.715 280.183C551.937 280.369 553.113 280.81 554.175 281.481C555.238 282.153 556.166 283.041 556.908 284.096C557.649 285.152 558.189 286.353 558.496 287.631C558.803 288.909 558.872 290.239 558.699 291.546C558.526 292.853 558.113 294.11 557.485 295.246H557.521Z" fill="#15C95A"/>
</g>
</g>
<defs>
<clipPath id="clip0">
<rect width="807.97" height="568.28" fill="white"/>
</clipPath>
</defs>
</svg>
