<svg width="217" height="213" viewBox="0 0 217 213" fill="none" xmlns="http://www.w3.org/2000/svg">
<path d="M108.418 179.642C149.25 179.642 182.352 146.541 182.352 105.708C182.352 64.8759 149.25 31.7747 108.418 31.7747C67.5855 31.7747 34.4843 64.8759 34.4843 105.708C34.4843 146.541 67.5855 179.642 108.418 179.642Z" fill="#F5F5F5"/>
<path d="M149.09 112.994C149.09 137.587 131.42 149.69 108.477 149.69C85.535 149.69 66.0088 137.587 66.0088 112.994C66.0088 88.4009 84.6072 68.4641 107.55 68.4641C130.492 68.4641 149.09 88.4009 149.09 112.994Z" fill="#333333"/>
<path d="M108.477 179.934C122.924 179.957 137.058 175.728 149.117 167.773C146.393 152.884 136.025 152.035 136.025 152.035H78.8601C78.8601 152.035 69.0767 152.838 66.0209 166.535C78.4502 175.277 93.2811 179.958 108.477 179.934V179.934Z" fill="#15C95A"/>
<path opacity="0.1" d="M96.2269 142.508C103.596 145.261 111.708 145.284 119.093 142.571V139.762H96.2269V142.508Z" fill="black"/>
<path d="M107.702 144.039C125.803 144.039 140.477 129.365 140.477 111.264C140.477 93.1632 125.803 78.4895 107.702 78.4895C89.6013 78.4895 74.9276 93.1632 74.9276 111.264C74.9276 129.365 89.6013 144.039 107.702 144.039Z" fill="#FDA57D"/>
<path d="M69.9258 112.994C69.9258 112.994 90.3354 110.52 105.797 90.7294C105.797 90.7294 126.207 113.201 140.432 110.727C140.432 110.727 148.678 102.068 140.432 93.4094C132.185 84.7508 125.795 73.8244 114.868 75.2675C103.942 76.7106 90.5416 77.3291 84.7692 82.4831C78.9968 87.637 69.9258 112.994 69.9258 112.994Z" fill="#333333"/>
<path d="M108.246 37.4434C109.054 37.4434 109.865 37.4574 110.678 37.4856C128.713 38.1124 145.781 45.7963 158.207 58.8829C170.633 71.9696 177.423 89.4123 177.116 107.456C176.809 125.5 169.428 142.701 156.563 155.357C143.699 168.012 126.379 175.11 108.333 175.122C107.525 175.122 106.714 175.108 105.901 175.08C87.8659 174.453 70.7979 166.769 58.3719 153.683C45.9459 140.596 39.1556 123.153 39.4631 105.11C39.7705 87.0662 47.151 69.8649 60.0156 57.2091C72.8802 44.5534 90.2001 37.4554 108.246 37.4434V37.4434ZM108.251 20.4434V37.4434L108.25 20.4434C85.7455 20.4538 64.1451 29.3017 48.1001 45.0817C32.055 60.8618 22.8487 82.3118 22.4634 104.813C22.0781 127.314 30.5448 149.067 46.0402 165.387C61.5357 181.707 82.8205 191.289 105.311 192.07C106.315 192.105 107.332 192.122 108.333 192.122C130.837 192.111 152.437 183.263 168.481 167.482C184.526 151.702 193.731 130.252 194.116 107.751C194.501 85.25 186.034 63.4978 170.538 47.1781C155.043 30.8584 133.758 21.2766 111.268 20.4958C110.264 20.461 109.249 20.4434 108.251 20.4434V20.4434Z" fill="#CCCCCC"/>
<path d="M99.2628 5.58876e-05L98.528 21.1685L118.638 21.8666L119.373 0.698179L99.2628 5.58876e-05Z" fill="#CCCCCC"/>
<path d="M154.941 10.521L143.408 28.2874L160.286 39.2432L171.819 21.4769L154.941 10.521Z" fill="#CCCCCC"/>
<path d="M196.571 46.674L177.7 56.2939L186.839 74.221L205.71 64.6011L196.571 46.674Z" fill="#CCCCCC"/>
<path d="M185.662 142.756L174.413 159.44L191.976 171.281L203.224 154.597L185.662 142.756Z" fill="#CCCCCC"/>
<path d="M24.3542 40.6954L13.9941 57.9456L32.1522 68.8509L42.5123 51.6008L24.3542 40.6954Z" fill="#CCCCCC"/>
<path d="M28.574 137.303L10.2328 147.897L20.2974 165.321L38.6386 154.727L28.574 137.303Z" fill="#CCCCCC"/>
<path d="M68.3932 8.51494L50.796 18.2739L61.0686 36.7973L78.6658 27.0383L68.3932 8.51494Z" fill="#CCCCCC"/>
<path d="M92.6489 190.516L91.9141 211.684L112.024 212.382L112.759 191.214L92.6489 190.516Z" fill="#CCCCCC"/>
<path d="M155.51 176.769L137.913 186.528L148.186 205.051L165.783 195.292L155.51 176.769Z" fill="#CCCCCC"/>
<path d="M56.2944 173.324L44.762 191.091L61.64 202.046L73.1724 184.28L56.2944 173.324Z" fill="#CCCCCC"/>
<path d="M24.9683 94.9127L0.624634 94.0676L-3.04067e-06 112.061L24.3436 112.906L24.9683 94.9127Z" fill="#CCCCCC"/>
<path d="M191.574 118.712L215.918 119.557L216.542 101.563L192.199 100.718L191.574 118.712Z" fill="#CCCCCC"/>
</svg>
