<svg width="217" height="212" viewBox="0 0 217 212" fill="none" xmlns="http://www.w3.org/2000/svg">
<path d="M108.171 179.357C149.003 179.357 182.104 146.256 182.104 105.423C182.104 64.5907 149.003 31.4895 108.171 31.4895C67.3381 31.4895 34.2369 64.5907 34.2369 105.423C34.2369 146.256 67.3381 179.357 108.171 179.357Z" fill="#F5F5F5"/>
<path d="M108.23 179.649C122.677 179.672 136.81 175.442 148.87 167.487C146.145 152.599 135.778 151.75 135.778 151.75H78.6128C78.6128 151.75 68.8294 152.553 65.7736 166.249C78.2028 174.992 93.0338 179.673 108.23 179.649V179.649Z" fill="#15C95A"/>
<path d="M107.455 139.551C127.164 139.551 143.141 123.574 143.141 103.865C143.141 84.1562 127.164 68.179 107.455 68.179C87.746 68.179 71.7688 84.1562 71.7688 103.865C71.7688 123.574 87.746 139.551 107.455 139.551Z" fill="#72351C"/>
<path d="M97.9968 132.742H116.744C117.29 132.742 117.814 132.959 118.2 133.345C118.586 133.731 118.803 134.255 118.803 134.801V151.672C118.803 154.535 117.666 157.281 115.641 159.306C113.617 161.33 110.871 162.468 108.008 162.468H106.733C103.87 162.468 101.124 161.33 99.0992 159.306C97.0746 157.281 95.9373 154.535 95.9373 151.672V134.801C95.9373 134.255 96.1542 133.731 96.5405 133.345C96.9267 132.959 97.4506 132.742 97.9968 132.742Z" fill="#FDA57D"/>
<path d="M107.455 143.754C125.556 143.754 140.23 129.08 140.23 110.979C140.23 92.8781 125.556 78.2043 107.455 78.2043C89.354 78.2043 74.6803 92.8781 74.6803 110.979C74.6803 129.08 89.354 143.754 107.455 143.754Z" fill="#FDA57D"/>
<path d="M84.1095 80.7546C84.1095 80.7546 97.9221 108.792 136.886 92.5056L127.815 78.2807L111.735 72.5083L84.1095 80.7546Z" fill="#72351C"/>
<path d="M83.9868 78.8603C84.9178 75.9771 86.5272 73.3594 88.6797 71.2271C95.1275 64.8545 105.695 63.5091 111.116 56.2429C111.411 56.757 111.595 57.3272 111.656 57.9168C111.718 58.5064 111.655 59.1023 111.472 59.6661C111.289 60.2299 110.989 60.749 110.593 61.1901C110.197 61.6312 109.713 61.9844 109.173 62.2271C114.359 62.1934 120.386 61.7388 123.321 57.4624C124.047 59.152 124.278 61.013 123.988 62.8289C123.698 64.6448 122.899 66.3411 121.683 67.7206C126.286 67.9296 131.198 71.0538 131.496 75.6524C131.694 78.716 129.773 81.6166 127.255 83.3736C124.639 84.9973 121.731 86.0927 118.694 86.5981C109.942 88.5276 78.2762 96.615 83.9868 78.8603Z" fill="#72351C"/>
<path d="M140.229 111.266H139.36L122.455 126.315C106.168 118.688 94.2112 126.315 94.2112 126.315L76.4817 111.884L74.694 112.109C74.9363 120.711 78.5521 128.872 84.7606 134.831C90.969 140.79 99.2719 144.068 107.877 143.957C116.481 143.846 124.697 140.356 130.75 134.24C136.803 128.123 140.208 119.871 140.229 111.266V111.266ZM107.405 132.088C101.029 132.088 95.8605 130.796 95.8605 129.202C95.8605 127.608 101.029 126.315 107.405 126.315C113.781 126.315 118.95 127.608 118.95 129.202C118.95 130.796 113.781 132.088 107.405 132.088V132.088Z" fill="#72351C"/>
<path d="M74.6672 116.664C76.351 116.664 77.716 114.105 77.716 110.948C77.716 107.791 76.351 105.231 74.6672 105.231C72.9834 105.231 71.6184 107.791 71.6184 110.948C71.6184 114.105 72.9834 116.664 74.6672 116.664Z" fill="#FDA57D"/>
<path d="M140.225 116.664C141.909 116.664 143.274 114.105 143.274 110.948C143.274 107.791 141.909 105.231 140.225 105.231C138.542 105.231 137.177 107.791 137.177 110.948C137.177 114.105 138.542 116.664 140.225 116.664Z" fill="#FDA57D"/>
<path d="M108.024 37.0671C121.639 37.0671 134.948 41.1044 146.269 48.6685C157.589 56.2326 166.412 66.9838 171.623 79.5624C176.833 92.141 178.196 105.982 175.54 119.336C172.884 132.689 166.328 144.955 156.7 154.582C147.073 164.209 134.807 170.766 121.454 173.422C108.1 176.078 94.2591 174.715 81.6805 169.505C69.1018 164.294 58.3507 155.471 50.7866 144.151C43.2225 132.83 39.1852 119.521 39.1852 105.906C39.1852 87.6487 46.4378 70.1393 59.3475 57.2296C72.2573 44.3198 89.7667 37.0672 108.024 37.0671V37.0671ZM108.024 20.0671C91.0465 20.0671 74.4505 25.1015 60.3344 34.5336C46.2183 43.9657 35.2161 57.3718 28.7192 73.0568C22.2223 88.7418 20.5223 106.001 23.8345 122.652C27.1466 139.303 35.3219 154.598 47.3267 166.603C59.3315 178.608 74.6264 186.783 91.2775 190.095C107.929 193.407 125.188 191.707 140.873 185.211C156.558 178.714 169.964 167.711 179.396 153.595C188.828 139.479 193.863 122.883 193.863 105.906C193.837 83.1479 184.785 61.3295 168.693 45.2371C152.6 29.1448 130.782 20.0929 108.024 20.0671V20.0671Z" fill="#CCCCCC"/>
<path d="M115.437 0H95.3152V21.1811H115.437V0Z" fill="#CCCCCC"/>
<path d="M151.323 8.58151L140.414 26.7373L157.662 37.1009L168.571 18.9452L151.323 8.58151Z" fill="#CCCCCC"/>
<path d="M194.184 43.27L175.659 53.5388L185.414 71.138L203.94 60.8692L194.184 43.27Z" fill="#CCCCCC"/>
<path d="M186.615 139.673L175.952 156.737L193.915 167.961L204.578 150.897L186.615 139.673Z" fill="#CCCCCC"/>
<path d="M21.8636 43.2699L12.1082 60.8691L30.6336 71.138L40.389 53.5388L21.8636 43.2699Z" fill="#CCCCCC"/>
<path d="M29.4326 139.672L11.47 150.897L22.1331 167.961L40.0957 156.737L29.4326 139.672Z" fill="#CCCCCC"/>
<path d="M64.7248 8.58144L47.4768 18.9451L58.3859 37.1009L75.6339 26.7372L64.7248 8.58144Z" fill="#CCCCCC"/>
<path d="M115.437 190.63H95.3152V211.812H115.437V190.63Z" fill="#CCCCCC"/>
<path d="M157.665 174.71L140.417 185.073L151.326 203.229L168.574 192.866L157.665 174.71Z" fill="#CCCCCC"/>
<path d="M58.3859 174.711L47.4768 192.867L64.7248 203.23L75.6339 185.075L58.3859 174.711Z" fill="#CCCCCC"/>
<path d="M24.3583 97.4333H0V115.437H24.3583V97.4333Z" fill="#CCCCCC"/>
<path d="M191.689 115.437H216.048V97.4333H191.689V115.437Z" fill="#CCCCCC"/>
</svg>
