<svg width="217" height="212" viewBox="0 0 217 212" fill="none" xmlns="http://www.w3.org/2000/svg">
<path d="M108.024 179.427C148.856 179.427 181.957 146.326 181.957 105.493C181.957 64.6608 148.856 31.5596 108.024 31.5596C67.1913 31.5596 34.0901 64.6608 34.0901 105.493C34.0901 146.326 67.1913 179.427 108.024 179.427Z" fill="#F5F5F5"/>
<path d="M79.1688 106.152C79.1688 106.152 70.7846 147.447 66.2114 145.16C66.2114 145.16 110.334 183.271 149.292 145.16C149.292 145.16 142.432 116.06 132.523 106.152H79.1688Z" fill="#333333"/>
<path d="M108.23 179.649C122.677 179.672 136.811 175.442 148.87 167.487C146.145 152.599 135.778 151.75 135.778 151.75H78.6129C78.6129 151.75 68.8296 152.553 65.7737 166.249C78.203 174.992 93.034 179.673 108.23 179.649V179.649Z" fill="#15C95A"/>
<path d="M107.455 136.64C125.556 136.64 140.23 121.966 140.23 103.865C140.23 85.7641 125.556 71.0903 107.455 71.0903C89.354 71.0903 74.6803 85.7641 74.6803 103.865C74.6803 121.966 89.354 136.64 107.455 136.64Z" fill="#333333"/>
<path d="M97.9968 132.741H116.744C117.29 132.741 117.814 132.958 118.2 133.345C118.586 133.731 118.803 134.255 118.803 134.801V151.672C118.803 154.535 117.666 157.281 115.641 159.305C113.617 161.33 110.871 162.467 108.008 162.467H106.733C103.87 162.467 101.124 161.33 99.0992 159.305C97.0746 157.281 95.9373 154.535 95.9373 151.672V134.801C95.9373 134.255 96.1543 133.731 96.5405 133.345C96.9267 132.958 97.4506 132.741 97.9969 132.741H97.9968Z" fill="#BE7C5E"/>
<path d="M107.455 143.754C125.556 143.754 140.23 129.08 140.23 110.979C140.23 92.8778 125.556 78.2041 107.455 78.2041C89.354 78.2041 74.6803 92.8778 74.6803 110.979C74.6803 129.08 89.354 143.754 107.455 143.754Z" fill="#BE7C5E"/>
<path d="M76.1201 98.5295H138.621C138.621 98.5295 133.285 73.2921 109.657 74.9012C86.0287 76.5103 76.1201 98.5295 76.1201 98.5295Z" fill="#333333"/>
<path d="M75.3579 115.298C77.0417 115.298 78.4067 112.739 78.4067 109.582C78.4067 106.424 77.0417 103.865 75.3579 103.865C73.6741 103.865 72.3091 106.424 72.3091 109.582C72.3091 112.739 73.6741 115.298 75.3579 115.298Z" fill="#BE7C5E"/>
<path d="M139.383 115.298C141.067 115.298 142.432 112.739 142.432 109.582C142.432 106.424 141.067 103.865 139.383 103.865C137.699 103.865 136.334 106.424 136.334 109.582C136.334 112.739 137.699 115.298 139.383 115.298Z" fill="#BE7C5E"/>
<path opacity="0.1" d="M76.1201 99.3764H138.621C138.621 99.3764 133.285 74.139 109.657 75.7481C86.0287 77.3572 76.1201 99.3764 76.1201 99.3764Z" fill="black"/>
<path d="M108.024 37.0669C121.639 37.0669 134.948 41.1042 146.269 48.6683C157.589 56.2324 166.412 66.9836 171.623 79.5622C176.833 92.1408 178.196 105.982 175.54 119.335C172.884 132.689 166.327 144.955 156.7 154.582C147.073 164.209 134.807 170.766 121.454 173.422C108.1 176.078 94.259 174.715 81.6804 169.504C69.1017 164.294 58.3506 155.471 50.7865 144.15C43.2224 132.83 39.1851 119.521 39.1851 105.906C39.1851 96.8656 40.9657 87.914 44.4252 79.5621C47.8846 71.2102 52.9553 63.6215 59.3475 57.2293C65.7398 50.837 73.3285 45.7664 81.6804 42.3069C90.0323 38.8474 98.9838 37.0669 108.024 37.0669V37.0669ZM108.024 20.0669C91.0466 20.0669 74.4505 25.1013 60.3344 34.5333C46.2183 43.9654 35.2161 57.3716 28.7192 73.0566C22.2222 88.7416 20.5224 106.001 23.8345 122.652C27.1466 139.303 35.3219 154.598 47.3267 166.603C59.3315 178.608 74.6265 186.783 91.2776 190.095C107.929 193.407 125.188 191.707 140.873 185.21C156.558 178.713 169.964 167.711 179.396 153.595C188.828 139.479 193.863 122.883 193.863 105.906C193.837 83.1476 184.785 61.3292 168.693 45.2369C152.6 29.1446 130.782 20.0926 108.024 20.0669V20.0669Z" fill="#CCCCCC"/>
<path d="M115.437 0H95.3152V21.1812H115.437V0Z" fill="#CCCCCC"/>
<path d="M151.323 8.58127L140.414 26.7371L157.662 37.1007L168.571 18.9449L151.323 8.58127Z" fill="#CCCCCC"/>
<path d="M194.184 43.2697L175.659 53.5386L185.414 71.1377L203.94 60.8689L194.184 43.2697Z" fill="#CCCCCC"/>
<path d="M186.615 139.672L175.952 156.737L193.915 167.961L204.578 150.897L186.615 139.672Z" fill="#CCCCCC"/>
<path d="M21.8636 43.2697L12.1083 60.8689L30.6337 71.1377L40.3891 53.5386L21.8636 43.2697Z" fill="#CCCCCC"/>
<path d="M29.4326 139.672L11.47 150.897L22.133 167.961L40.0957 156.737L29.4326 139.672Z" fill="#CCCCCC"/>
<path d="M64.7248 8.58119L47.4768 18.9448L58.3859 37.1006L75.6339 26.737L64.7248 8.58119Z" fill="#CCCCCC"/>
<path d="M115.437 190.63H95.3152V211.811H115.437V190.63Z" fill="#CCCCCC"/>
<path d="M157.662 174.711L140.414 185.074L151.323 203.23L168.571 192.866L157.662 174.711Z" fill="#CCCCCC"/>
<path d="M58.3859 174.711L47.4768 192.866L64.7248 203.23L75.6339 185.074L58.3859 174.711Z" fill="#CCCCCC"/>
<path d="M24.3583 97.4331H0V115.437H24.3583V97.4331Z" fill="#CCCCCC"/>
<path d="M191.689 115.437H216.048V97.4333H191.689V115.437Z" fill="#CCCCCC"/>
</svg>
