<svg width="357" height="207" viewBox="0 0 357 207" fill="none" xmlns="http://www.w3.org/2000/svg">
<path opacity="0.1" d="M303.728 10.8479C290.341 1.33973 269.327 -0.609448 250.202 0.147548C190.122 2.52825 157.335 58.4143 110.422 84.5947C93.4642 94.07 55.272 71.5429 44.245 84.5947C21.7876 111.163 -20.0501 155.649 11.1565 177.533C21.771 184.982 83.1558 183.015 96.3644 188.066C119.858 197.065 145.207 204.288 171.872 206.35C190.887 207.813 210.136 206.625 229.037 204.58C287.859 164.599 333.693 186.219 377.141 164.599C396.198 155.116 414.159 143.326 422.014 127.985C429.87 112.644 413.176 93.675 393.716 84.5947C425.479 74.346 408.516 53.4482 399.093 51.8537C385.229 49.5096 384.721 29.118 372.209 24.3529C359.284 19.4306 356.492 59.6647 327.953 43.4294C320.508 32.0647 317.102 20.3561 303.728 10.8479Z" fill="#15C95A"/>
</svg>
