<svg width="887" height="516" viewBox="0 0 887 516" fill="none" xmlns="http://www.w3.org/2000/svg">
<path d="M208 137.564C206.833 61.3221 160.727 0 104.014 0C69.9328 0 39.6804 22.1462 20.7096 56.3671L43.0141 103.578L12.189 74.4785C4.41387 94.1684 0.00110464 116.648 0.00110464 140.523C-0.0620089 158.62 2.5796 176.651 7.86347 194.191L67.639 186.061L14.1435 211.296C31.5715 251.603 63.4254 279.131 100.142 280.948L93.0657 443.34L114.963 444L110.283 280.785C162.567 276.584 204.448 220.213 207.803 149.666L171.672 132.623L208 137.564Z" fill="#15C95A" fill-opacity="0.13"/>
<path opacity="0.1" d="M624.234 243.093C595.361 229.864 550.04 227.152 508.792 228.205C379.215 231.518 262.242 263.719 161.063 300.144C124.49 313.327 88.3821 327.538 64.5999 345.697C16.1656 382.661 30.5575 433.867 97.8614 464.313C120.754 474.677 148.52 482.63 177.007 489.656C227.675 502.178 282.347 512.227 339.855 515.096C380.866 517.131 422.381 515.478 463.145 512.634C577.055 504.671 688.859 487.087 782.565 457.007C823.665 443.814 862.402 427.41 879.344 406.066C896.286 384.722 885.443 357.669 843.473 345.036C826.116 339.81 805.368 337.454 785.046 335.236C755.145 331.975 724.75 328.759 697.765 322.129C669.891 315.281 636.886 302.032 642.412 286.875C648.322 270.609 653.077 256.321 624.234 243.093Z" fill="#15C95A" fill-opacity="0.41"/>
</svg>
