<svg width="809" height="692" viewBox="0 0 809 692" fill="none" xmlns="http://www.w3.org/2000/svg">
<path opacity="0.1" d="M781.324 403.474C752.108 450.775 761.75 518.292 778.638 572.083C784.294 590.089 790.72 609.134 787.787 628.726C784.205 652.675 767.369 670.62 749.87 680.394C717.967 698.206 680.281 695.362 651.744 672.918C627.118 653.547 609.782 621.356 584.678 602.909C542.664 572.047 488.12 585.836 441.359 609.398C408.278 626.066 372.062 647.533 339.808 632.16C317.122 621.329 301.846 593.761 293.809 564.29C289.929 550.061 287.212 534.617 279.481 523.479C274.884 516.857 268.809 512.243 262.563 508.387C205.557 473.166 132.229 495.179 76.9615 455.882C39.6486 429.343 16.4251 377.842 6.776 323.7C-2.87311 269.558 -0.485087 212.404 3.35814 156.228C6.08944 116.305 10.4103 73.6447 30.7533 42.2722C52.2679 9.08587 88.3196 -4.10414 120.573 1.09966C152.826 6.30346 181.721 27.4621 207.019 52.6446C238.638 84.1227 267.75 123.631 307.1 135.571C333.898 143.707 362.368 137.948 390.226 135.404C436.792 131.159 483.194 136.046 529.313 141.567C573.462 146.85 617.916 152.75 659.729 170.069C689.318 182.326 712.773 205.492 740.631 221.323C758.787 231.643 778.765 234.038 795.854 247.369C816.943 263.79 836.003 292.882 829.816 327.794C823.966 360.963 796.832 378.371 781.324 403.474Z" fill="#15C95A"/>
</svg>
