<svg width="218" height="61" viewBox="0 0 218 61" fill="none" xmlns="http://www.w3.org/2000/svg">
<path d="M155.279 0H16.4544C12.234 0 8.81268 4.86484 8.81268 10.8659V12.797C8.81268 18.7981 12.234 23.6629 16.4544 23.6629H155.279C159.5 23.6629 162.921 18.7981 162.921 12.797V10.8659C162.921 4.86484 159.5 0 155.279 0Z" fill="#F2F2F2"/>
<path d="M210.358 24.2691H71.5336C67.3132 24.2691 63.8919 29.134 63.8919 35.1351V37.0661C63.8919 43.0672 67.3132 47.932 71.5336 47.932H210.358C214.579 47.932 218 43.0672 218 37.0661V35.1351C218 29.134 214.579 24.2691 210.358 24.2691Z" fill="#F2F2F2"/>
<path d="M146.466 37.3371H7.64172C3.42131 37.3371 0 42.2019 0 48.203V50.134C0 56.1352 3.42131 61 7.64172 61H146.466C150.687 61 154.108 56.1352 154.108 50.134V48.203C154.108 42.2019 150.687 37.3371 146.466 37.3371Z" fill="#F2F2F2"/>
</svg>
