<svg width="233" height="64" viewBox="0 0 233 64" fill="none" xmlns="http://www.w3.org/2000/svg">
<path d="M165.89 0H17.5788C13.07 0 9.41486 5.0782 9.41486 11.3425V13.3582C9.41486 19.6225 13.07 24.7007 17.5788 24.7007H165.89C170.399 24.7007 174.054 19.6225 174.054 13.3582V11.3425C174.054 5.0782 170.399 0 165.89 0Z" fill="#F2F2F2"/>
<path d="M224.733 25.3335H76.4218C71.913 25.3335 68.2579 30.4117 68.2579 36.676V38.6917C68.2579 44.956 71.913 50.0342 76.4218 50.0342H224.733C229.242 50.0342 232.897 44.956 232.897 38.6917V36.676C232.897 30.4117 229.242 25.3335 224.733 25.3335Z" fill="#F2F2F2"/>
<path d="M156.475 38.9746H8.16391C3.6551 38.9746 0 44.0528 0 50.3171V52.3328C0 58.5971 3.6551 63.6753 8.16391 63.6753H156.475C160.984 63.6753 164.639 58.5971 164.639 52.3328V50.3171C164.639 44.0528 160.984 38.9746 156.475 38.9746Z" fill="#F2F2F2"/>
</svg>
