<svg width="676" height="480" viewBox="0 0 676 480" fill="none" xmlns="http://www.w3.org/2000/svg">
<g clip-path="url(#clip0)">
<path d="M595.682 480C636.297 480 669.223 477.884 669.223 475.275C669.223 472.665 636.297 470.549 595.682 470.549C555.066 470.549 522.141 472.665 522.141 475.275C522.141 477.884 555.066 480 595.682 480Z" fill="#E6E6E6"/>
<path d="M237.432 480C278.048 480 310.973 477.884 310.973 475.275C310.973 472.665 278.048 470.549 237.432 470.549C196.817 470.549 163.891 472.665 163.891 475.275C163.891 477.884 196.817 480 237.432 480Z" fill="#E6E6E6"/>
<path d="M563.639 417.746H63.5604C61.4713 417.744 59.4685 417.044 57.9913 415.8C56.5142 414.555 55.6833 412.868 55.681 411.108V6.63792C55.6833 4.87802 56.5142 3.19076 57.9913 1.94632C59.4685 0.701888 61.4713 0.001921 63.5604 0H563.639C565.728 0.001921 567.731 0.701888 569.208 1.94632C570.685 3.19076 571.516 4.87802 571.518 6.63792V411.108C571.516 412.868 570.685 414.555 569.208 415.8C567.731 417.044 565.728 417.744 563.639 417.746ZM63.5604 2.65517C62.307 2.65632 61.1053 3.0763 60.219 3.82296C59.3327 4.56962 58.8341 5.58198 58.8328 6.63792V411.108C58.8341 412.164 59.3327 413.177 60.219 413.923C61.1053 414.67 62.307 415.09 63.5604 415.091H563.639C564.892 415.09 566.094 414.67 566.98 413.923C567.866 413.177 568.365 412.164 568.366 411.108V6.63792C568.365 5.58198 567.866 4.56962 566.98 3.82296C566.094 3.0763 564.892 2.65632 563.639 2.65517H63.5604Z" fill="#E6E6E6"/>
<path d="M92.4515 35.4022C91.6159 35.403 90.8147 35.683 90.2238 36.1808C89.633 36.6785 89.3006 37.3534 89.2997 38.0574V147.804C89.3006 148.508 89.633 149.183 90.2238 149.681C90.8147 150.179 91.6159 150.459 92.4515 150.459H222.724C223.56 150.459 224.361 150.179 224.952 149.681C225.543 149.183 225.875 148.508 225.876 147.804V38.0574C225.875 37.3534 225.543 36.6785 224.952 36.1808C224.361 35.683 223.56 35.403 222.724 35.4022H92.4515Z" fill="#E6E6E6"/>
<path d="M297.357 114.836C296.358 114.85 295.406 115.194 294.706 115.795C294.005 116.395 293.612 117.203 293.612 118.044C293.612 118.886 294.005 119.694 294.706 120.294C295.406 120.894 296.358 121.238 297.357 121.252H476.879C477.38 121.26 477.878 121.185 478.344 121.03C478.81 120.876 479.236 120.646 479.596 120.353C479.957 120.06 480.245 119.71 480.445 119.323C480.644 118.935 480.751 118.519 480.759 118.097C480.768 117.675 480.677 117.256 480.493 116.864C480.308 116.471 480.034 116.113 479.685 115.81C479.336 115.508 478.92 115.266 478.46 115.098C478 114.931 477.505 114.842 477.004 114.836C476.963 114.836 476.921 114.836 476.879 114.836H297.357Z" fill="#E6E6E6"/>
<path d="M297.357 85.6295C296.358 85.6435 295.406 85.9876 294.706 86.5877C294.005 87.1878 293.612 87.9958 293.612 88.8374C293.612 89.6791 294.005 90.487 294.706 91.0871C295.406 91.6872 296.358 92.0313 297.357 92.0453H348.708C349.209 92.0533 349.707 91.978 350.173 91.8236C350.639 91.6693 351.065 91.439 351.425 91.1459C351.785 90.8529 352.074 90.5028 352.273 90.1157C352.473 89.7286 352.58 89.3121 352.588 88.8902C352.596 88.4682 352.506 88.0491 352.321 87.6567C352.137 87.2643 351.862 86.9064 351.514 86.6036C351.165 86.3007 350.748 86.0587 350.288 85.8916C349.828 85.7244 349.334 85.6354 348.833 85.6295C348.791 85.6289 348.75 85.6289 348.708 85.6295H297.357Z" fill="#E6E6E6"/>
<path d="M297.357 144.928C296.358 144.942 295.406 145.286 294.706 145.886C294.005 146.486 293.612 147.294 293.612 148.136C293.612 148.978 294.005 149.786 294.706 150.386C295.406 150.986 296.358 151.33 297.357 151.344H476.879C477.888 151.356 478.86 151.03 479.584 150.439C480.308 149.847 480.724 149.038 480.74 148.189C480.757 147.339 480.373 146.519 479.672 145.908C478.972 145.297 478.013 144.944 477.004 144.928C476.963 144.928 476.921 144.928 476.879 144.928H297.357Z" fill="#E6E6E6"/>
<path d="M510.909 260.837H264.191C259.382 260.837 255.484 258.498 255.479 255.615V210.44C255.484 207.557 259.382 205.218 264.191 205.218H510.909C515.718 205.218 519.616 207.557 519.621 210.44V255.614C519.617 258.497 515.718 260.833 510.909 260.837Z" fill="#E6E6E6"/>
<path d="M343.866 370.584H97.1484C92.3388 370.584 88.4412 368.244 88.4359 365.362V320.187C88.4412 317.304 92.3388 314.965 97.1484 314.965H343.866C348.675 314.965 352.573 317.304 352.578 320.187V365.361C352.574 368.244 348.675 370.58 343.866 370.584Z" fill="#E6E6E6"/>
<path d="M269.44 395.47H22.7223C17.9127 395.47 14.0151 393.131 14.0098 390.248V345.073C14.0151 342.19 17.9127 339.851 22.7223 339.851H269.44C274.249 339.851 278.147 342.19 278.152 345.073V390.247C278.148 393.13 274.249 395.466 269.44 395.47ZM22.7223 341.938C19.8364 341.938 17.4978 343.342 17.4946 345.071V390.245C17.4946 391.975 19.8364 393.377 22.7223 393.378H269.44C272.326 393.378 274.664 391.975 274.667 390.245V345.073C274.667 343.343 272.326 341.942 269.44 341.94L22.7223 341.938Z" fill="#3F3D56"/>
<path d="M358.249 271.712C369.274 271.712 378.211 264.183 378.211 254.896C378.211 245.609 369.274 238.08 358.249 238.08C347.225 238.08 338.288 245.609 338.288 254.896C338.288 264.183 347.225 271.712 358.249 271.712Z" fill="#15C95A"/>
<path d="M58.8328 384.114C69.857 384.114 78.7939 376.585 78.7939 367.298C78.7939 358.011 69.857 350.482 58.8328 350.482C47.8085 350.482 38.8716 358.011 38.8716 367.298C38.8716 376.585 47.8085 384.114 58.8328 384.114Z" fill="#15C95A"/>
<path d="M401.365 242.837C400.366 242.851 399.414 243.196 398.713 243.796C398.013 244.396 397.62 245.204 397.62 246.045C397.62 246.887 398.013 247.695 398.713 248.295C399.414 248.895 400.366 249.239 401.365 249.253H544.117C545.125 249.265 546.098 248.94 546.821 248.348C547.545 247.756 547.961 246.947 547.978 246.098C547.994 245.249 547.61 244.428 546.91 243.817C546.209 243.206 545.25 242.854 544.242 242.837C544.2 242.837 544.158 242.837 544.117 242.837H401.365Z" fill="#3F3D56"/>
<path d="M401.365 260.539C400.366 260.553 399.414 260.897 398.713 261.497C398.013 262.097 397.62 262.905 397.62 263.747C397.62 264.588 398.013 265.396 398.713 265.996C399.414 266.596 400.366 266.94 401.365 266.954H544.117C545.125 266.966 546.098 266.641 546.821 266.049C547.545 265.458 547.961 264.648 547.978 263.799C547.994 262.95 547.61 262.129 546.91 261.518C546.209 260.907 545.25 260.555 544.242 260.539C544.2 260.538 544.158 260.538 544.117 260.539H401.365Z" fill="#3F3D56"/>
<path d="M101.949 355.24C100.95 355.253 99.9973 355.598 99.2967 356.198C98.5962 356.798 98.2036 357.606 98.2036 358.447C98.2036 359.289 98.5962 360.097 99.2967 360.697C99.9973 361.297 100.95 361.641 101.949 361.655H244.7C245.708 361.667 246.681 361.342 247.405 360.75C248.128 360.158 248.544 359.349 248.561 358.5C248.577 357.651 248.193 356.83 247.493 356.219C246.793 355.608 245.833 355.256 244.825 355.24C244.783 355.239 244.742 355.239 244.7 355.24H101.949Z" fill="#3F3D56"/>
<path d="M101.949 372.941C100.95 372.955 99.9973 373.299 99.2967 373.899C98.5962 374.499 98.2036 375.307 98.2036 376.149C98.2036 376.99 98.5962 377.798 99.2967 378.398C99.9973 378.998 100.95 379.342 101.949 379.356H244.7C245.708 379.368 246.681 379.043 247.405 378.451C248.128 377.86 248.544 377.05 248.561 376.201C248.577 375.352 248.193 374.531 247.493 373.92C246.793 373.309 245.833 372.957 244.825 372.941C244.783 372.94 244.742 372.94 244.7 372.941H101.949Z" fill="#3F3D56"/>
<path d="M597.754 459.342C622.743 459.342 643 442.276 643 421.225C643 400.173 622.743 383.108 597.754 383.108C572.766 383.108 552.509 400.173 552.509 421.225C552.509 442.276 572.766 459.342 597.754 459.342Z" fill="#2F2E41"/>
<path d="M618.373 451.139H604.627V471.887H618.373V451.139Z" fill="#2F2E41"/>
<path d="M590.882 451.139H577.136V471.887H590.882V451.139Z" fill="#2F2E41"/>
<path d="M606.918 475.747C613.244 475.747 618.373 474.127 618.373 472.128C618.373 470.129 613.244 468.509 606.918 468.509C600.592 468.509 595.464 470.129 595.464 472.128C595.464 474.127 600.592 475.747 606.918 475.747Z" fill="#2F2E41"/>
<path d="M579.427 475.264C585.753 475.264 590.882 473.644 590.882 471.645C590.882 469.647 585.753 468.027 579.427 468.027C573.101 468.027 567.972 469.647 567.972 471.645C567.972 473.644 573.101 475.264 579.427 475.264Z" fill="#2F2E41"/>
<path d="M596.609 424.602C605.149 424.602 612.073 418.77 612.073 411.575C612.073 404.38 605.149 398.548 596.609 398.548C588.069 398.548 581.145 404.38 581.145 411.575C581.145 418.77 588.069 424.602 596.609 424.602Z" fill="white"/>
<path d="M596.609 415.917C599.456 415.917 601.764 413.973 601.764 411.575C601.764 409.177 599.456 407.233 596.609 407.233C593.762 407.233 591.454 409.177 591.454 411.575C591.454 413.973 593.762 415.917 596.609 415.917Z" fill="#3F3D56"/>
<path d="M641.644 385.777C645.298 371.993 633.619 358.066 615.56 354.669C597.5 351.271 579.899 359.691 576.245 373.475C572.592 387.259 584.561 392.342 602.62 395.739C620.679 399.137 637.991 399.561 641.644 385.777Z" fill="#E6E6E6"/>
<path d="M115.89 168.125C115.901 173.969 114.309 179.737 111.236 184.977C110.889 185.578 110.522 186.162 110.133 186.747H31.1604C30.7716 186.162 30.4039 185.578 30.0573 184.977C27.0422 179.826 25.4473 174.169 25.3915 168.427C25.3357 162.685 26.8206 157.006 29.7352 151.815C32.6498 146.624 36.9188 142.055 42.2235 138.449C47.5281 134.843 53.7313 132.293 60.3698 130.989C67.0083 129.686 73.9105 129.663 80.561 130.922C87.2115 132.181 93.4385 134.69 98.7768 138.26C104.115 141.831 108.427 146.371 111.39 151.543C114.354 156.714 115.892 162.383 115.89 168.125V168.125Z" fill="#2F2E41"/>
<path d="M71.793 171.499C80.3335 171.499 87.2568 165.666 87.2568 158.471C87.2568 151.276 80.3335 145.444 71.793 145.444C63.2526 145.444 56.3293 151.276 56.3293 158.471C56.3293 165.666 63.2526 171.499 71.793 171.499Z" fill="white"/>
<path d="M71.793 162.814C74.6399 162.814 76.9476 160.869 76.9476 158.471C76.9476 156.073 74.6399 154.129 71.793 154.129C68.9462 154.129 66.6384 156.073 66.6384 158.471C66.6384 160.869 68.9462 162.814 71.793 162.814Z" fill="#3F3D56"/>
<path d="M26.7575 132.673C23.1041 118.89 34.7826 104.962 52.8421 101.565C70.9016 98.1675 88.5033 106.587 92.1567 120.371C95.8101 134.155 83.8414 139.239 65.782 142.636C47.7225 146.033 30.4109 146.457 26.7575 132.673Z" fill="#15C95A"/>
<path d="M135.525 68.1493H5.25293C3.85992 68.1497 2.52411 68.6161 1.5391 69.4459C0.554098 70.2757 0.000503995 71.401 0 72.5745V182.321C0.000503995 183.495 0.554098 184.62 1.5391 185.45C2.52411 186.28 3.85992 186.746 5.25293 186.747H135.525C136.918 186.746 138.254 186.28 139.239 185.45C140.224 184.62 140.778 183.495 140.778 182.321V72.5745C140.778 71.401 140.224 70.2757 139.239 69.4459C138.254 68.6161 136.918 68.1497 135.525 68.1493V68.1493ZM138.677 182.321C138.675 183.025 138.342 183.699 137.751 184.197C137.161 184.694 136.361 184.974 135.525 184.977H5.25293C4.41778 184.974 3.61754 184.694 3.027 184.197C2.43647 183.699 2.10362 183.025 2.10117 182.321V72.5745C2.10361 71.871 2.43646 71.1968 3.027 70.6993C3.61755 70.2018 4.41778 69.9214 5.25293 69.9194H135.525C136.361 69.9214 137.161 70.2018 137.751 70.6993C138.342 71.1968 138.675 71.871 138.677 72.5745V182.321Z" fill="#3F3D56"/>
<path d="M278.516 394.577C282.977 384.745 283.623 375.818 279.959 374.639C276.295 373.459 269.709 380.473 265.248 390.305C260.787 400.137 260.141 409.064 263.805 410.244C267.469 411.423 274.055 404.409 278.516 394.577Z" fill="#2F2E41"/>
<path d="M274.723 427.331C278.725 406.551 261.975 386.972 237.309 383.6C212.643 380.228 189.402 394.34 185.399 415.119C181.397 435.899 198.147 455.478 222.813 458.85C247.479 462.222 270.72 448.11 274.723 427.331Z" fill="#2F2E41"/>
<path d="M223.188 451.139H209.443V471.887H223.188V451.139Z" fill="#2F2E41"/>
<path d="M250.679 451.139H236.934V471.887H250.679V451.139Z" fill="#2F2E41"/>
<path d="M220.897 475.747C227.224 475.747 232.352 474.127 232.352 472.128C232.352 470.129 227.224 468.509 220.897 468.509C214.571 468.509 209.443 470.129 209.443 472.128C209.443 474.127 214.571 475.747 220.897 475.747Z" fill="#2F2E41"/>
<path d="M248.388 475.264C254.715 475.264 259.843 473.644 259.843 471.645C259.843 469.647 254.715 468.027 248.388 468.027C242.062 468.027 236.934 469.647 236.934 471.645C236.934 473.644 242.062 475.264 248.388 475.264Z" fill="#2F2E41"/>
<path d="M186.171 385.777C182.518 371.994 194.196 358.066 212.256 354.669C230.315 351.271 247.917 359.691 251.57 373.475C255.224 387.259 243.255 392.342 225.196 395.739C207.136 399.137 189.824 399.561 186.171 385.777Z" fill="#15C95A"/>
<path d="M199.54 411.706C201.22 408.72 193.431 402.643 182.143 398.133C170.854 393.622 160.339 392.386 158.659 395.371C156.978 398.357 164.767 404.434 176.056 408.944C187.345 413.455 197.859 414.691 199.54 411.706Z" fill="#2F2E41"/>
<path d="M611.407 342.211C635.783 342.211 655.544 325.563 655.544 305.028C655.544 284.492 635.783 267.844 611.407 267.844C587.03 267.844 567.269 284.492 567.269 305.028C567.269 325.563 587.03 342.211 611.407 342.211Z" fill="#2F2E41"/>
<path d="M631.681 334.13L618.272 334.183L618.384 354.422L631.793 354.369L631.681 334.13Z" fill="#2F2E41"/>
<path d="M604.864 334.235L591.455 334.288L591.567 354.527L604.975 354.474L604.864 334.235Z" fill="#2F2E41"/>
<path d="M597.601 359.678C602.931 357.058 606.306 353.569 605.14 351.885C603.974 350.201 598.707 350.96 593.377 353.58C588.047 356.201 584.672 359.69 585.838 361.374C587.005 363.058 592.271 362.299 597.601 359.678Z" fill="#2F2E41"/>
<path d="M623.86 359.575C629.19 356.955 632.565 353.466 631.399 351.782C630.232 350.098 624.966 350.857 619.636 353.478C614.306 356.098 610.93 359.587 612.097 361.271C613.263 362.955 618.53 362.196 623.86 359.575Z" fill="#2F2E41"/>
<path d="M610.238 308.327C618.569 308.327 625.323 302.637 625.323 295.619C625.323 288.6 618.569 282.911 610.238 282.911C601.906 282.911 595.153 288.6 595.153 295.619C595.153 302.637 601.906 308.327 610.238 308.327Z" fill="white"/>
<path d="M605.07 294.462C607.847 294.462 610.099 292.566 610.099 290.226C610.099 287.887 607.847 285.99 605.07 285.99C602.293 285.99 600.042 287.887 600.042 290.226C600.042 292.566 602.293 294.462 605.07 294.462Z" fill="#3F3D56"/>
<path d="M654.03 270.281C657.52 256.821 646.053 243.279 628.418 240.034C610.783 236.79 593.657 245.07 590.168 258.53C586.678 271.99 598.381 276.903 616.016 280.148C633.651 283.393 650.541 283.741 654.03 270.281Z" fill="#15C95A"/>
<path d="M585.641 293.438C587.13 290.469 579.236 284.822 568.008 280.826C556.781 276.83 546.473 275.997 544.983 278.966C543.494 281.935 551.388 287.582 562.616 291.578C573.843 295.575 584.152 296.407 585.641 293.438Z" fill="#2F2E41"/>
<path d="M675.82 324.255C677.309 321.286 669.415 315.639 658.187 311.643C646.96 307.647 636.651 306.814 635.162 309.783C633.673 312.753 641.567 318.399 652.795 322.396C664.022 326.392 674.33 327.224 675.82 324.255Z" fill="#2F2E41"/>
<path d="M620.326 321.231C620.335 322.344 620.083 323.448 619.585 324.479C619.087 325.51 618.353 326.448 617.424 327.24C616.495 328.032 615.39 328.662 614.173 329.094C612.955 329.526 611.648 329.752 610.327 329.758C609.005 329.764 607.695 329.551 606.472 329.131C605.248 328.71 604.135 328.091 603.196 327.308C602.257 326.525 601.51 325.594 600.998 324.567C600.487 323.541 600.22 322.44 600.213 321.327L600.213 321.31C600.188 316.631 604.685 315.644 610.239 315.623C615.793 315.601 620.301 316.552 620.326 321.231Z" fill="white"/>
<path d="M575.094 282.921H328.376C323.567 282.921 319.669 280.582 319.664 277.699V232.524C319.669 229.642 323.567 227.303 328.376 227.303H575.094C579.903 227.303 583.801 229.642 583.806 232.524V277.699C583.802 280.581 579.903 282.918 575.094 282.921ZM328.376 229.39C325.49 229.39 323.152 230.793 323.149 232.523V277.697C323.149 279.426 325.49 280.828 328.376 280.83H575.094C577.98 280.83 580.318 279.426 580.321 277.697V232.524C580.321 230.795 577.98 229.393 575.094 229.391L328.376 229.39Z" fill="#3F3D56"/>
</g>
<defs>
<clipPath id="clip0">
<rect width="676" height="480" fill="white"/>
</clipPath>
</defs>
</svg>
