<svg width="346" height="394" viewBox="0 0 346 394" fill="none" xmlns="http://www.w3.org/2000/svg">
<path d="M110.046 184.575H70.9148V239.914H110.046V184.575Z" fill="#CCCCCC"/>
<path d="M50.9934 323.147H31.072L28.9376 301.551H53.1279L50.9934 323.147Z" fill="#E6E6E6"/>
<path d="M90.9965 307.504L90.3242 319.128C90.2938 319.654 90.3526 320.182 90.4969 320.677C90.6411 321.172 90.8673 321.622 91.1604 321.998C91.4535 322.373 91.8067 322.665 92.1963 322.853C92.5858 323.042 93.0028 323.123 93.4191 323.091L98.1398 322.729C98.3585 322.713 98.5716 322.635 98.764 322.502C98.9563 322.37 99.1232 322.185 99.2528 321.961C99.3824 321.738 99.4714 321.481 99.5136 321.209C99.5558 320.937 99.5502 320.657 99.497 320.388L96.8767 307.132L90.9965 307.504Z" fill="#E6E6E6"/>
<path d="M130.482 314.378C136.038 316.021 140.007 318.358 142.614 321.519C143.542 322.637 144.757 323.296 146.037 323.376C147.673 323.484 149.01 323.252 150.014 322.685H150.014C150.272 322.541 150.494 322.313 150.658 322.025C150.823 321.736 150.923 321.397 150.948 321.042C150.979 320.683 150.932 320.319 150.814 319.989C150.696 319.66 150.51 319.376 150.276 319.168L137.1 307.311L131.503 310.142L130.197 311.793C130.056 311.972 129.949 312.19 129.886 312.43C129.822 312.67 129.804 312.925 129.831 313.175C129.859 313.426 129.932 313.664 130.045 313.873C130.158 314.082 130.307 314.254 130.482 314.378H130.482Z" fill="#E6E6E6"/>
<path d="M113.384 124.6L75.7209 124.159C75.8156 117.221 77.0919 110.408 79.8819 104.312C81.7142 100.308 81.6746 95.9505 81.233 92.2794C80.5516 86.6142 82.1362 80.8178 85.6574 77.2115C88.3483 74.4507 91.7445 73.0295 95.2064 73.2157L95.9377 73.2542C98.3199 73.3794 100.639 74.2595 102.682 75.8136C104.725 77.3678 106.427 79.5462 107.631 82.1488C108.855 84.9272 109.348 88.1258 109.04 91.2822C108.802 94.2522 109.373 97.2524 110.709 100.281C113.014 106.932 113.513 115.443 113.384 124.6Z" fill="#2F2E41"/>
<path d="M138.583 307.929L131.191 310.368L95.1961 211.192L97.4458 307.929H90.0539C82.1553 262.417 67.8947 209.891 74.3061 193.308L112.551 190.463L138.583 307.929Z" fill="#15C95A"/>
<path d="M94.8747 107.952C100.377 107.952 104.838 102.311 104.838 95.3516C104.838 88.3928 100.377 82.7515 94.8747 82.7515C89.3724 82.7515 84.9118 88.3928 84.9118 95.3516C84.9118 102.311 89.3724 107.952 94.8747 107.952Z" fill="#FFB9B9"/>
<path d="M103.552 118.52L87.1615 117.301C88.7678 112.638 89.4095 108.148 88.7684 103.887H100.981C100.953 107.159 102.24 112.817 103.552 118.52Z" fill="#FFB9B9"/>
<path d="M113.836 194.121L77.8415 197.373L81.5373 116.691L87.8044 114.455L94.8747 116.488L101.945 112.016L106.444 114.049L113.836 194.121Z" fill="#15C95A"/>
<path d="M83.9476 252.244L59.3617 245.131C66.6724 214.471 79.8429 144.329 75.5916 119.333L88.447 112.017L83.9476 252.244Z" fill="#E6E6E6"/>
<path d="M72.0564 163.637L62.7363 156.32L70.6847 126.879C71.5712 123.841 73.2692 121.29 75.4852 119.668L78.1627 117.707L76.5558 147.378L72.0564 163.637Z" fill="#E6E6E6"/>
<path d="M135.208 245.538C127.449 251.216 108.052 254.381 99.5348 250.415C98.9081 222.713 97.679 144.355 101.624 111.204L115.765 118.52L114.479 140.469C107.719 159.244 127.35 224.641 135.208 245.538Z" fill="#E6E6E6"/>
<path d="M134.084 159.979L125.406 156.321L113.836 139.656L115.765 118.52L135.048 152.662L134.084 159.979Z" fill="#E6E6E6"/>
<path d="M106.889 175.799C107.031 176.587 107.414 177.272 107.955 177.703C108.495 178.134 109.149 178.277 109.772 178.099L117.138 175.989L116.074 170.043L108.707 172.153C108.084 172.331 107.542 172.816 107.201 173.5C106.86 174.183 106.748 175.011 106.889 175.799V175.799Z" fill="#FFB9B9"/>
<path d="M103.552 92.1001C98.0183 89.2223 92.5529 89.014 87.1615 91.6937L84.9118 81.5322H105.48L103.552 92.1001Z" fill="#2F2E41"/>
<path d="M113.515 168.921L117.693 178.676C124.72 176.197 130.811 168.382 136.655 159.166L135.048 152.662L125.085 155.914L113.515 168.921Z" fill="#E6E6E6"/>
<path d="M110.462 148.801H109.176C109.176 125.806 105.433 109.781 101.784 109.781L101.463 108.155C104.735 108.155 106.821 114.825 107.994 120.42C109.586 128.005 110.462 138.084 110.462 148.801Z" fill="#3F3D56"/>
<path d="M80.8945 143.11H79.6089C79.6089 122.051 83.3785 108.968 88.9291 108.968L88.6077 110.594C84.7684 110.594 80.8945 120.648 80.8945 143.11Z" fill="#3F3D56"/>
<path d="M109.819 153.272C111.594 153.272 113.033 151.452 113.033 149.207C113.033 146.963 111.594 145.143 109.819 145.143C108.044 145.143 106.605 146.963 106.605 149.207C106.605 151.452 108.044 153.272 109.819 153.272Z" fill="#3F3D56"/>
<path d="M75.7523 152.865H74.4668C74.4668 147.038 77.0619 142.298 80.2517 142.298V143.923C77.7707 143.923 75.7523 147.935 75.7523 152.865Z" fill="#3F3D56"/>
<path d="M86.0367 152.866H84.7511C84.7511 147.935 82.7328 143.923 80.2518 143.923V142.298C83.4416 142.298 86.0367 147.038 86.0367 152.866Z" fill="#3F3D56"/>
<path d="M85.3939 154.898C86.1038 154.898 86.6794 154.17 86.6794 153.272C86.6794 152.374 86.1038 151.646 85.3939 151.646C84.6839 151.646 84.1083 152.374 84.1083 153.272C84.1083 154.17 84.6839 154.898 85.3939 154.898Z" fill="#3F3D56"/>
<path d="M75.1096 154.898C75.8196 154.898 76.3951 154.17 76.3951 153.272C76.3951 152.374 75.8196 151.646 75.1096 151.646C74.3996 151.646 73.824 152.374 73.824 153.272C73.824 154.17 74.3996 154.898 75.1096 154.898Z" fill="#3F3D56"/>
<path d="M59.0403 138.322L67.0612 140.133L85.3939 173.1L75.6544 170.202L59.0403 138.322Z" fill="#15C95A"/>
<path d="M57.6176 137.918C57.4954 137.92 57.3759 137.964 57.2717 138.045C57.1674 138.126 57.0822 138.24 57.025 138.377C56.9678 138.513 56.9407 138.667 56.9464 138.821C56.9522 138.976 56.9907 139.125 57.0579 139.255L74.1943 172.137C74.29 172.321 74.4377 172.452 74.6071 172.502L82.5802 174.874C82.7146 174.914 82.8554 174.902 82.9841 174.838C83.1127 174.775 83.223 174.663 83.3004 174.518C83.3777 174.374 83.4185 174.203 83.4172 174.028C83.4159 173.853 83.3727 173.683 83.2932 173.541L64.4784 139.707C64.4274 139.615 64.3625 139.536 64.2875 139.476C64.2124 139.415 64.1287 139.374 64.0411 139.354L57.7461 137.933C57.7037 137.923 57.6607 137.918 57.6176 137.918V137.918Z" fill="#3F3D56"/>
<path d="M68.3074 161.429L68.7837 167.496L76.2992 166.552C76.9353 166.472 77.5204 166.076 77.9256 165.451C78.3307 164.825 78.5229 164.022 78.4598 163.218C78.3966 162.413 78.0834 161.673 77.5889 161.161C77.0944 160.648 76.4592 160.405 75.8231 160.485L68.3074 161.429Z" fill="#FFB9B9"/>
<path d="M61.7723 160.726C61.7832 162.795 62.4402 164.774 63.6 166.233C64.7599 167.692 66.3286 168.512 67.9644 168.514H69.2002L70.0999 159.032L62.6508 155.64L61.7723 160.726Z" fill="#E6E6E6"/>
<path d="M321 64H174.435V161.63H321V64Z" fill="#E6E6E6"/>
<path d="M178.704 156.231H316.731V69.3989H178.704V156.231Z" fill="white"/>
<path d="M238.468 81.9963H189.376V144.084H238.468V81.9963Z" fill="#3F3D56"/>
<path d="M226.729 110.34C227.515 110.34 228.152 109.535 228.152 108.541C228.152 107.547 227.515 106.741 226.729 106.741C225.943 106.741 225.306 107.547 225.306 108.541C225.306 109.535 225.943 110.34 226.729 110.34Z" fill="#15C95A"/>
<path d="M221.393 104.042C222.179 104.042 222.816 103.236 222.816 102.242C222.816 101.248 222.179 100.442 221.393 100.442C220.607 100.442 219.97 101.248 219.97 102.242C219.97 103.236 220.607 104.042 221.393 104.042Z" fill="#15C95A"/>
<path d="M220.681 108.541C220.158 108.541 219.644 108.725 219.199 109.072C218.806 108.325 218.344 107.64 217.824 107.031C217.83 106.935 217.835 106.839 217.835 106.741C217.836 106.035 217.672 105.344 217.364 104.755C217.056 104.166 216.618 103.705 216.104 103.428C215.59 103.152 215.023 103.073 214.474 103.202C213.925 103.331 213.418 103.661 213.016 104.151C212.254 104.014 211.481 104.006 210.717 104.126C210.718 104.098 210.721 104.07 210.721 104.042C210.721 103.439 210.602 102.846 210.375 102.317C210.147 101.788 209.818 101.339 209.418 101.013C209.017 100.686 208.559 100.492 208.084 100.448C207.608 100.403 207.132 100.511 206.698 100.76C206.265 101.009 205.887 101.391 205.601 101.873C205.314 102.354 205.128 102.919 205.059 103.515C204.99 104.111 205.04 104.719 205.205 105.284C205.37 105.85 205.645 106.353 206.004 106.749C205.527 107.265 205.095 107.844 204.714 108.474C204.363 108.104 203.947 107.847 203.5 107.724C203.054 107.601 202.59 107.616 202.149 107.767C201.708 107.918 201.302 108.202 200.966 108.593C200.63 108.985 200.373 109.473 200.218 110.017C200.063 110.56 200.013 111.143 200.073 111.716C200.134 112.289 200.302 112.835 200.565 113.308C200.827 113.781 201.176 114.167 201.582 114.434C201.987 114.7 202.437 114.84 202.894 114.84L202.903 114.839C202.899 114.989 202.894 115.138 202.894 115.289C202.894 116.195 202.981 117.097 203.152 117.977C202.306 118.379 201.555 119.047 200.969 119.917C200.383 120.787 199.982 121.832 199.802 122.952C199.623 124.072 199.672 125.231 199.944 126.321C200.216 127.411 200.702 128.396 201.358 129.183C202.013 129.97 202.816 130.533 203.691 130.82C204.565 131.107 205.483 131.108 206.359 130.824C207.234 130.539 208.037 129.978 208.694 129.193C209.351 128.408 209.839 127.424 210.113 126.335C212.093 126.816 214.143 126.432 215.927 125.244C216.109 125.787 216.394 126.264 216.756 126.635C217.118 127.006 217.546 127.259 218.004 127.371C218.461 127.483 218.933 127.452 219.379 127.28C219.824 127.107 220.23 126.799 220.559 126.383C220.889 125.966 221.132 125.453 221.268 124.89C221.405 124.326 221.429 123.729 221.34 123.151C221.252 122.572 221.052 122.03 220.759 121.572C220.466 121.114 220.088 120.754 219.659 120.524C220.275 119.045 220.622 117.41 220.672 115.739L220.681 115.739C221.436 115.739 222.16 115.36 222.694 114.685C223.227 114.01 223.527 113.095 223.527 112.14C223.527 111.186 223.227 110.27 222.694 109.595C222.16 108.92 221.436 108.541 220.681 108.541V108.541Z" fill="#15C95A"/>
<path d="M219.97 80.6465H205.74V83.3459H219.97V80.6465Z" fill="#E6E6E6"/>
<path d="M301.079 81.9963H251.986V144.084H301.079V81.9963Z" fill="#3F3D56"/>
<path d="M285.853 124.107C286.206 124.107 286.493 123.745 286.493 123.298C286.493 122.85 286.206 122.488 285.853 122.488C285.499 122.488 285.213 122.85 285.213 123.298C285.213 123.745 285.499 124.107 285.853 124.107Z" fill="#15C95A"/>
<path d="M283.452 121.273C283.805 121.273 284.092 120.911 284.092 120.463C284.092 120.016 283.805 119.654 283.452 119.654C283.098 119.654 282.811 120.016 282.811 120.463C282.811 120.911 283.098 121.273 283.452 121.273Z" fill="#15C95A"/>
<path d="M283.131 123.298C282.896 123.298 282.665 123.38 282.464 123.537C282.288 123.201 282.08 122.892 281.846 122.618C281.848 122.575 281.851 122.532 281.851 122.488C281.851 122.17 281.777 121.859 281.639 121.594C281.5 121.329 281.303 121.121 281.072 120.997C280.84 120.873 280.585 120.837 280.338 120.895C280.091 120.953 279.863 121.102 279.682 121.322C279.339 121.261 278.991 121.257 278.648 121.311C278.648 121.298 278.649 121.286 278.649 121.273C278.649 121.002 278.596 120.735 278.493 120.497C278.391 120.259 278.243 120.057 278.063 119.91C277.883 119.763 277.676 119.676 277.462 119.656C277.249 119.636 277.034 119.684 276.839 119.796C276.644 119.908 276.474 120.08 276.345 120.297C276.216 120.514 276.133 120.768 276.101 121.036C276.07 121.304 276.093 121.578 276.167 121.832C276.241 122.087 276.365 122.313 276.527 122.491C276.312 122.724 276.118 122.984 275.946 123.268C275.788 123.101 275.601 122.985 275.4 122.93C275.199 122.875 274.99 122.881 274.792 122.949C274.594 123.018 274.411 123.145 274.26 123.321C274.108 123.498 273.993 123.717 273.923 123.962C273.853 124.206 273.831 124.469 273.858 124.726C273.885 124.984 273.961 125.23 274.079 125.443C274.197 125.656 274.354 125.83 274.537 125.949C274.719 126.069 274.922 126.132 275.127 126.132L275.131 126.132C275.129 126.199 275.127 126.267 275.127 126.335C275.127 126.742 275.166 127.148 275.243 127.544C274.863 127.725 274.525 128.025 274.261 128.417C273.997 128.809 273.817 129.278 273.736 129.783C273.655 130.287 273.677 130.808 273.8 131.299C273.922 131.789 274.141 132.232 274.436 132.586C274.731 132.941 275.092 133.194 275.486 133.323C275.879 133.452 276.292 133.453 276.686 133.325C277.08 133.197 277.442 132.944 277.737 132.591C278.033 132.238 278.253 131.795 278.376 131.305C279.267 131.522 280.189 131.349 280.992 130.814C281.074 131.058 281.202 131.273 281.365 131.44C281.528 131.607 281.721 131.721 281.927 131.771C282.132 131.822 282.345 131.808 282.545 131.73C282.746 131.653 282.928 131.514 283.077 131.326C283.225 131.139 283.334 130.908 283.396 130.655C283.457 130.401 283.468 130.132 283.428 129.872C283.388 129.612 283.298 129.368 283.166 129.162C283.034 128.956 282.865 128.794 282.672 128.69C282.949 128.024 283.105 127.289 283.127 126.537L283.131 126.537C283.471 126.537 283.797 126.366 284.037 126.063C284.277 125.759 284.412 125.347 284.412 124.917C284.412 124.488 284.277 124.076 284.037 123.772C283.797 123.468 283.471 123.298 283.131 123.298V123.298Z" fill="#15C95A"/>
<path d="M290.877 108.74C291.23 108.74 291.517 108.377 291.517 107.93C291.517 107.482 291.23 107.12 290.877 107.12C290.523 107.12 290.236 107.482 290.236 107.93C290.236 108.377 290.523 108.74 290.877 108.74Z" fill="#15C95A"/>
<path d="M292.383 105.048C292.737 105.048 293.023 104.685 293.023 104.238C293.023 103.791 292.737 103.428 292.383 103.428C292.029 103.428 291.743 103.791 291.743 104.238C291.743 104.685 292.029 105.048 292.383 105.048Z" fill="#15C95A"/>
<path d="M290.139 104.617C290.075 104.33 289.949 104.071 289.776 103.869C289.984 103.563 290.162 103.227 290.307 102.867C290.341 102.859 290.375 102.85 290.408 102.838C290.65 102.752 290.867 102.578 291.031 102.338C291.195 102.097 291.3 101.801 291.331 101.486C291.363 101.17 291.321 100.85 291.21 100.565C291.099 100.28 290.924 100.043 290.707 99.8823C290.661 99.4481 290.57 99.0236 290.436 98.6198C290.445 98.6166 290.455 98.6148 290.465 98.6114C290.671 98.5382 290.86 98.4007 291.013 98.2114C291.167 98.0222 291.28 97.7872 291.343 97.5281C291.406 97.269 291.417 96.994 291.374 96.7283C291.331 96.4627 291.236 96.2149 291.098 96.0077C290.96 95.8004 290.783 95.6403 290.583 95.5421C290.383 95.4439 290.167 95.4107 289.955 95.4456C289.742 95.4804 289.54 95.5822 289.366 95.7415C289.193 95.9009 289.054 96.1127 288.962 96.3577C288.727 96.1597 288.476 95.9934 288.214 95.8618C288.298 95.6242 288.335 95.3647 288.323 95.1051C288.31 94.8454 288.249 94.5934 288.143 94.3702C288.038 94.1471 287.891 93.9594 287.716 93.823C287.541 93.6866 287.342 93.6056 287.137 93.5868C286.932 93.5679 286.726 93.6119 286.538 93.7148C286.349 93.8178 286.182 93.9767 286.052 94.1782C285.922 94.3798 285.833 94.6179 285.791 94.8726C285.749 95.1272 285.756 95.3909 285.812 95.6412L285.813 95.6461C285.761 95.6618 285.71 95.6777 285.658 95.6961C285.348 95.8066 285.049 95.964 284.769 96.1649C284.528 95.7506 284.207 95.4207 283.838 95.2059C283.468 94.9911 283.062 94.8985 282.656 94.937C282.251 94.9754 281.86 95.1434 281.52 95.4254C281.179 95.7074 280.902 96.0941 280.712 96.5491C280.522 97.0041 280.427 97.5125 280.436 98.0267C280.444 98.5409 280.556 99.044 280.76 99.4888C280.964 99.9335 281.255 100.305 281.604 100.569C281.953 100.833 282.349 100.981 282.755 100.998C282.832 102.141 283.214 103.217 283.838 104.05C283.674 104.216 283.546 104.43 283.463 104.673C283.38 104.917 283.346 105.183 283.363 105.447C283.38 105.711 283.449 105.966 283.562 106.189C283.675 106.412 283.83 106.597 284.013 106.726C284.196 106.856 284.401 106.927 284.611 106.933C284.821 106.939 285.028 106.879 285.215 106.76C285.403 106.641 285.564 106.465 285.685 106.249C285.806 106.032 285.883 105.782 285.91 105.519C286.492 105.676 287.094 105.666 287.673 105.49L287.673 105.495C287.719 105.7 287.796 105.891 287.9 106.058C288.004 106.226 288.133 106.365 288.28 106.47C288.427 106.574 288.588 106.64 288.755 106.665C288.922 106.69 289.092 106.674 289.254 106.616C289.416 106.558 289.567 106.461 289.699 106.329C289.831 106.197 289.942 106.034 290.024 105.848C290.106 105.663 290.158 105.458 290.178 105.247C290.198 105.036 290.185 104.822 290.139 104.617V104.617Z" fill="#15C95A"/>
<path d="M266.076 97.7347C266.429 97.7347 266.716 97.3721 266.716 96.9248C266.716 96.4776 266.429 96.115 266.076 96.115C265.722 96.115 265.435 96.4776 265.435 96.9248C265.435 97.3721 265.722 97.7347 266.076 97.7347Z" fill="#15C95A"/>
<path d="M262.801 98.0664C263.155 98.0664 263.442 97.7039 263.442 97.2566C263.442 96.8094 263.155 96.4468 262.801 96.4468C262.448 96.4468 262.161 96.8094 262.161 97.2566C262.161 97.7039 262.448 98.0664 262.801 98.0664Z" fill="#15C95A"/>
<path d="M264.241 99.4668C264.082 99.6869 263.974 99.9585 263.93 100.251C263.615 100.19 263.295 100.176 262.977 100.21C262.954 100.178 262.93 100.147 262.904 100.117C262.719 99.9025 262.488 99.7619 262.239 99.7126C261.991 99.6633 261.737 99.7075 261.508 99.8397C261.28 99.9719 261.087 100.186 260.954 100.456C260.822 100.726 260.755 101.039 260.762 101.357C260.494 101.635 260.258 101.958 260.057 102.315C260.05 102.306 260.044 102.297 260.036 102.288C259.878 102.105 259.686 101.975 259.478 101.911C259.27 101.846 259.052 101.848 258.845 101.917C258.638 101.986 258.448 102.12 258.292 102.306C258.136 102.493 258.02 102.725 257.954 102.983C257.887 103.241 257.873 103.516 257.913 103.782C257.953 104.049 258.044 104.298 258.18 104.508C258.316 104.718 258.491 104.882 258.689 104.984C258.888 105.086 259.104 105.123 259.317 105.092C259.308 105.449 259.329 105.806 259.379 106.158C259.175 106.193 258.981 106.29 258.813 106.44C258.645 106.591 258.509 106.79 258.415 107.021C258.321 107.253 258.272 107.509 258.273 107.769C258.274 108.029 258.324 108.285 258.42 108.515C258.516 108.746 258.654 108.943 258.822 109.092C258.991 109.24 259.186 109.335 259.39 109.368C259.594 109.401 259.801 109.372 259.994 109.283C260.187 109.193 260.361 109.046 260.499 108.854L260.502 108.85C260.54 108.897 260.578 108.945 260.617 108.99C260.855 109.265 261.119 109.503 261.402 109.698C261.251 110.175 261.198 110.693 261.249 111.204C261.3 111.714 261.453 112.199 261.693 112.615C261.933 113.03 262.252 113.361 262.621 113.578C262.99 113.794 263.396 113.888 263.802 113.851C264.208 113.815 264.599 113.648 264.94 113.368C265.281 113.087 265.56 112.702 265.75 112.247C265.941 111.793 266.038 111.285 266.031 110.771C266.023 110.257 265.913 109.753 265.71 109.308C266.437 108.622 266.958 107.643 267.187 106.533C267.385 106.621 267.597 106.646 267.804 106.607C268.012 106.567 268.208 106.463 268.376 106.305C268.545 106.147 268.68 105.939 268.77 105.7C268.859 105.46 268.901 105.196 268.892 104.931C268.882 104.667 268.822 104.409 268.715 104.18C268.608 103.952 268.459 103.761 268.28 103.622C268.101 103.484 267.898 103.404 267.689 103.388C267.479 103.372 267.27 103.422 267.079 103.532C266.878 102.824 266.553 102.183 266.129 101.654L266.132 101.651C266.246 101.494 266.334 101.31 266.391 101.11C266.449 100.91 266.475 100.697 266.467 100.485C266.46 100.272 266.419 100.063 266.348 99.8705C266.276 99.6777 266.175 99.5045 266.051 99.361C265.927 99.2175 265.781 99.1063 265.623 99.034C265.465 98.9616 265.297 98.9294 265.129 98.9392C264.96 98.9491 264.795 99.0007 264.643 99.0912C264.491 99.1818 264.354 99.3094 264.241 99.4668V99.4668Z" fill="#15C95A"/>
<path d="M282.58 80.6465H268.35V83.3459H282.58V80.6465Z" fill="#E6E6E6"/>
<path d="M25.9563 293.562C31.0859 302.25 41.7341 303.164 41.7341 303.164C41.7341 303.164 44.0654 289.993 38.9358 281.304C33.8061 272.616 23.158 271.702 23.158 271.702C23.158 271.702 20.8266 284.874 25.9563 293.562Z" fill="#E6E6E6"/>
<path d="M52.0877 296.828C48.7028 302.561 41.6764 303.165 41.6764 303.165C41.6764 303.165 40.138 294.473 43.5229 288.74C46.9078 283.007 53.9342 282.403 53.9342 282.403C53.9342 282.403 55.4726 291.095 52.0877 296.828Z" fill="#E6E6E6"/>
<path d="M201.827 322.992H17V324H201.827V322.992Z" fill="#3F3D56"/>
<path opacity="0.1" d="M325.317 229.724C313.152 256.655 317.167 295.097 324.198 325.723C326.553 335.975 329.229 346.819 328.008 357.974C326.516 371.61 319.506 381.827 312.22 387.392C298.937 397.534 283.246 395.914 271.364 383.135C261.11 372.106 253.892 353.778 243.44 343.275C225.947 325.703 203.236 333.554 183.767 346.97C169.993 356.46 154.914 368.682 141.485 359.929C132.039 353.763 125.678 338.066 122.332 321.286C120.716 313.185 119.585 304.392 116.366 298.05C114.452 294.28 111.923 291.653 109.322 289.457C85.5868 269.404 55.0558 281.937 32.0442 259.563C16.5083 244.453 6.83886 215.13 2.8213 184.303C-1.19626 153.476 -0.201973 120.935 1.39822 88.9503C2.53544 66.2201 4.33448 41.9306 12.8046 24.0683C21.7626 5.17317 36.7733 -2.33675 50.2024 0.626109C63.6316 3.58897 75.6625 15.6359 86.1958 29.9739C99.3608 47.8965 111.482 70.3911 127.866 77.1892C139.024 81.8214 150.878 78.5427 162.477 77.0939C181.865 74.6775 201.186 77.4599 220.388 80.6032C238.77 83.6112 257.279 86.9701 274.689 96.8312C287.009 103.81 296.774 117 308.373 126.014C315.933 131.889 324.251 133.253 331.366 140.843C340.147 150.193 348.083 166.757 345.507 186.634C343.071 205.519 331.773 215.431 325.317 229.724Z" fill="#15C95A"/>
</svg>
