<svg width="392" height="354" viewBox="0 0 392 354" fill="none" xmlns="http://www.w3.org/2000/svg">
<g clip-path="url(#clip0)">
<path d="M184.594 206.307C184.594 206.307 224.965 200.697 239.096 191.813C253.226 182.929 358.193 178.721 358.193 206.307C358.193 233.893 237.481 246.05 237.481 246.05L174.097 241.842L184.594 206.307Z" fill="#FBBEBE"/>
<path opacity="0.1" d="M184.594 206.307C184.594 206.307 224.965 200.697 239.096 191.813C253.226 182.929 358.193 178.721 358.193 206.307C358.193 233.893 237.481 246.05 237.481 246.05L174.097 241.842L184.594 206.307Z" fill="black"/>
<path d="M196.301 201.164L187.823 229.685L55 231.556V189.475C55 189.475 105.869 175.916 146.24 204.905C146.24 204.905 193.879 198.359 196.301 201.164Z" fill="#15C95A"/>
<path opacity="0.1" d="M196.301 201.118L187.823 229.639L55 231.509V189.429C55 189.429 105.869 175.87 146.24 204.859C146.24 204.859 193.879 198.313 196.301 201.118Z" fill="black"/>
<path d="M348.159 189.241C348.159 190.835 345.073 192.018 344.77 193.555C344.469 195.08 346.302 197.398 345.722 198.854C345.123 200.343 344.414 201.77 343.605 203.119C342.845 204.38 340.497 204.195 339.535 205.377C338.592 206.451 337.594 207.456 336.545 208.388C335.524 209.372 334.14 209.578 332.979 210.484C331.874 211.345 332.008 214.503 330.786 215.287C329.619 216.037 327.832 215.434 326.566 216.108C325.35 216.754 324.709 219.092 323.41 219.664C322.157 220.215 320.606 219.978 319.281 220.456C317.999 220.918 316.564 220.843 315.221 221.232C313.916 221.61 312.919 223.875 311.562 224.18C310.24 224.478 308.69 223.684 307.323 223.91C305.988 224.13 304.435 222.172 303.061 222.321C301.717 222.466 300.45 223.372 299.073 223.445C297.723 223.517 296.388 224.205 295.011 224.205C293.634 224.205 292.212 225.701 290.863 225.63C289.486 225.556 288.239 223.289 286.895 223.144C285.521 222.995 283.882 225.364 282.547 225.144C281.18 224.919 280.097 222.6 278.774 222.303C277.417 221.997 275.664 223.654 274.358 223.276C273.015 222.887 272.217 220.19 270.935 219.727C269.61 219.25 267.968 219.897 266.715 219.345C265.415 218.773 263.832 218.865 262.616 218.219C261.35 217.545 260.441 215.951 259.274 215.202C258.052 214.418 257.489 212.473 256.385 211.612C255.223 210.706 253.454 210.822 252.432 209.838C251.354 208.799 249.333 208.745 248.423 207.628C247.461 206.446 247.071 204.461 246.311 203.201C245.511 201.873 247.082 199.067 246.523 197.664C245.943 196.208 243.519 195.617 243.218 194.092C242.908 192.5 242.748 190.874 242.743 189.241C242.743 187.648 244.816 186.43 245.12 184.893C245.421 183.368 243.895 181.178 244.475 179.722C245.034 178.319 244.962 176.162 245.763 174.835C246.523 173.574 248.419 173.08 249.382 171.899C250.292 170.781 251.921 170.47 252.999 169.431C254.021 168.447 253.89 165.48 255.052 164.575C256.156 163.714 257.698 163.321 258.92 162.537C260.087 161.787 261.739 161.914 263.005 161.24C264.221 160.594 266.124 161.868 267.424 161.296C268.677 160.744 269.693 159.539 271.018 159.062C272.3 158.599 272.903 155.074 274.246 154.685C275.551 154.307 277.156 154.934 278.514 154.629C279.836 154.331 281.615 157.113 282.983 156.887C284.318 156.667 285.317 152.954 286.69 152.806C288.035 152.661 289.551 154.584 290.928 154.511C292.278 154.439 293.633 155.566 295.011 155.566C296.388 155.566 297.76 154.02 299.109 154.091C300.486 154.165 301.7 156.208 303.045 156.353C304.419 156.501 306.105 153.393 307.44 153.613C308.808 153.838 309.864 156.241 311.186 156.539C312.544 156.844 314.244 155.352 315.549 155.73C316.893 156.119 317.702 158.673 318.984 159.136C320.309 159.613 321.125 161.415 322.378 161.967C323.678 162.539 326.092 159.863 327.307 160.509C328.574 161.183 329.667 162.349 330.835 163.098C332.056 163.882 333.998 163.488 335.103 164.349C336.264 165.255 336.55 167.686 337.571 168.67C338.65 169.708 340.428 170.021 341.338 171.139C342.301 172.321 342.435 174.438 343.195 175.699C343.995 177.026 343.97 178.865 344.529 180.268C345.109 181.724 346.657 182.825 346.957 184.35C347.261 185.887 348.159 187.648 348.159 189.241Z" fill="#3F3D56"/>
<path d="M202.761 218.464C202.761 218.464 248.381 191.346 277.853 201.632C307.324 211.918 348.503 194.151 353.348 200.229C358.192 206.307 365.056 271.765 306.92 275.506C248.785 279.246 199.127 264.284 199.127 264.284L202.761 218.464Z" fill="#FBBEBE"/>
<path d="M192.018 215.576C192.018 215.576 210.028 214.256 209.22 221.737C208.413 229.217 207.606 287.195 202.761 288.597C197.916 290 159.563 290 143.818 290H55V200.363C55 200.363 117.98 196.021 149.47 214.256C149.47 214.256 187.33 213.623 192.018 215.576Z" fill="#15C95A"/>
<path d="M276.391 75.3716C274.67 75.4842 273.011 76.1497 271.598 77.2936C270.185 78.4374 269.076 80.0144 268.394 81.8477C266.394 87.4461 268.969 94.0223 272.834 98.1048C276.7 102.187 281.665 104.521 286.176 107.588C292.236 111.708 297.681 117.427 300.713 124.768C303.745 132.109 304.068 141.202 300.504 148.216C297.196 154.725 291.181 158.621 285.444 162.214" stroke="#3F3D56" stroke-miterlimit="10"/>
<path d="M292.54 41.2397C290.819 41.3523 289.159 42.0179 287.747 43.1617C286.334 44.3056 285.225 45.8826 284.543 47.7159C282.543 53.3143 285.118 59.8905 288.983 63.9729C292.848 68.0554 297.814 70.3889 302.325 73.4561C308.385 77.5759 313.83 83.2948 316.862 90.6359C319.894 97.9771 320.216 107.071 316.652 114.084C313.344 120.593 307.33 124.489 301.593 128.082" stroke="#3F3D56" stroke-miterlimit="10"/>
<path d="M345.636 49.0898C344.216 47.9587 342.551 47.3082 340.83 47.2112C339.108 47.1142 337.397 47.5745 335.889 48.5405C331.348 51.5495 329.908 58.575 330.807 64.5435C331.705 70.5121 334.398 75.8776 336.344 81.5014C338.958 89.0551 340.24 97.4376 338.757 105.392C337.274 113.346 332.722 120.765 326.197 123.784C320.141 126.586 313.325 125.402 306.89 124.176" stroke="#3F3D56" stroke-miterlimit="10"/>
<path d="M298.846 119.649C304.197 119.649 308.535 117.209 308.535 114.199C308.535 111.189 304.197 108.748 298.846 108.748C293.495 108.748 289.157 111.189 289.157 114.199C289.157 117.209 293.495 119.649 298.846 119.649Z" fill="#57B894"/>
<path d="M297.635 118.714C302.986 118.714 307.324 116.274 307.324 113.264C307.324 110.253 302.986 107.813 297.635 107.813C292.284 107.813 287.946 110.253 287.946 113.264C287.946 116.274 292.284 118.714 297.635 118.714Z" stroke="#3F3D56" stroke-miterlimit="10"/>
<path d="M319.839 114.974C325.19 114.974 329.529 112.533 329.529 109.523C329.529 106.513 325.19 104.073 319.839 104.073C314.488 104.073 310.15 106.513 310.15 109.523C310.15 112.533 314.488 114.974 319.839 114.974Z" fill="#57B894"/>
<path d="M318.628 114.038C323.979 114.038 328.317 111.598 328.317 108.588C328.317 105.578 323.979 103.138 318.628 103.138C313.277 103.138 308.939 105.578 308.939 108.588C308.939 111.598 313.277 114.038 318.628 114.038Z" stroke="#3F3D56" stroke-miterlimit="10"/>
<path d="M323.069 135.546C328.42 135.546 332.758 133.106 332.758 130.095C332.758 127.085 328.42 124.645 323.069 124.645C317.718 124.645 313.38 127.085 313.38 130.095C313.38 133.106 317.718 135.546 323.069 135.546Z" fill="#57B894"/>
<path d="M321.858 134.611C327.209 134.611 331.547 132.171 331.547 129.16C331.547 126.15 327.209 123.71 321.858 123.71C316.507 123.71 312.169 126.15 312.169 129.16C312.169 132.171 316.507 134.611 321.858 134.611Z" stroke="#3F3D56" stroke-miterlimit="10"/>
<path d="M321.05 84.1146C326.402 84.1146 330.74 81.6744 330.74 78.6642C330.74 75.6541 326.402 73.2139 321.05 73.2139C315.699 73.2139 311.361 75.6541 311.361 78.6642C311.361 81.6744 315.699 84.1146 321.05 84.1146Z" fill="#57B894"/>
<path d="M319.839 83.1796C325.19 83.1796 329.529 80.7394 329.529 77.7292C329.529 74.719 325.19 72.2788 319.839 72.2788C314.488 72.2788 310.15 74.719 310.15 77.7292C310.15 80.7394 314.488 83.1796 319.839 83.1796Z" stroke="#3F3D56" stroke-miterlimit="10"/>
<path d="M296.827 80.8419C302.179 80.8419 306.517 78.4017 306.517 75.3915C306.517 72.3814 302.179 69.9412 296.827 69.9412C291.476 69.9412 287.138 72.3814 287.138 75.3915C287.138 78.4017 291.476 80.8419 296.827 80.8419Z" fill="#57B894"/>
<path d="M295.616 79.9066C300.967 79.9066 305.305 77.4664 305.305 74.4562C305.305 71.4461 300.967 69.0059 295.616 69.0059C290.265 69.0059 285.927 71.4461 285.927 74.4562C285.927 77.4664 290.265 79.9066 295.616 79.9066Z" stroke="#3F3D56" stroke-miterlimit="10"/>
<path d="M307.728 69.153C313.079 69.153 317.417 66.7127 317.417 63.7026C317.417 60.6924 313.079 58.2522 307.728 58.2522C302.377 58.2522 298.039 60.6924 298.039 63.7026C298.039 66.7127 302.377 69.153 307.728 69.153Z" fill="#57B894"/>
<path d="M306.517 68.2176C311.868 68.2176 316.206 65.7774 316.206 62.7673C316.206 59.7571 311.868 57.3169 306.517 57.3169C301.165 57.3169 296.827 59.7571 296.827 62.7673C296.827 65.7774 301.165 68.2176 306.517 68.2176Z" stroke="#3F3D56" stroke-miterlimit="10"/>
<path d="M331.547 71.4906C336.898 71.4906 341.236 69.0504 341.236 66.0402C341.236 63.0301 336.898 60.5898 331.547 60.5898C326.196 60.5898 321.858 63.0301 321.858 66.0402C321.858 69.0504 326.196 71.4906 331.547 71.4906Z" fill="#57B894"/>
<path d="M330.336 70.5555C335.687 70.5555 340.025 68.1153 340.025 65.1052C340.025 62.095 335.687 59.6548 330.336 59.6548C324.985 59.6548 320.647 62.095 320.647 65.1052C320.647 68.1153 324.985 70.5555 330.336 70.5555Z" stroke="#3F3D56" stroke-miterlimit="10"/>
<path d="M349.311 86.92C354.662 86.92 359 84.4798 359 81.4697C359 78.4595 354.662 76.0193 349.311 76.0193C343.959 76.0193 339.621 78.4595 339.621 81.4697C339.621 84.4798 343.959 86.92 349.311 86.92Z" fill="#57B894"/>
<path d="M348.1 85.985C353.451 85.985 357.789 83.5448 357.789 80.5346C357.789 77.5244 353.451 75.0842 348.1 75.0842C342.748 75.0842 338.41 77.5244 338.41 80.5346C338.41 83.5448 342.748 85.985 348.1 85.985Z" stroke="#3F3D56" stroke-miterlimit="10"/>
<path d="M286.734 59.8016C292.086 59.8016 296.424 57.3614 296.424 54.3513C296.424 51.3411 292.086 48.9009 286.734 48.9009C281.383 48.9009 277.045 51.3411 277.045 54.3513C277.045 57.3614 281.383 59.8016 286.734 59.8016Z" fill="#57B894"/>
<path d="M285.523 58.8666C290.874 58.8666 295.212 56.4264 295.212 53.4162C295.212 50.406 290.874 47.9658 285.523 47.9658C280.172 47.9658 275.834 50.406 275.834 53.4162C275.834 56.4264 280.172 58.8666 285.523 58.8666Z" stroke="#3F3D56" stroke-miterlimit="10"/>
<path d="M292.79 42.0345C298.141 42.0345 302.479 39.5943 302.479 36.5842C302.479 33.574 298.141 31.1338 292.79 31.1338C287.439 31.1338 283.101 33.574 283.101 36.5842C283.101 39.5943 287.439 42.0345 292.79 42.0345Z" fill="#57B894"/>
<path d="M291.579 41.0995C296.93 41.0995 301.268 38.6593 301.268 35.6491C301.268 32.6389 296.93 30.1987 291.579 30.1987C286.228 30.1987 281.89 32.6389 281.89 35.6491C281.89 38.6593 286.228 41.0995 291.579 41.0995Z" stroke="#3F3D56" stroke-miterlimit="10"/>
<path d="M348.907 55.1261C354.258 55.1261 358.596 52.6859 358.596 49.6757C358.596 46.6656 354.258 44.2253 348.907 44.2253C343.556 44.2253 339.218 46.6656 339.218 49.6757C339.218 52.6859 343.556 55.1261 348.907 55.1261Z" fill="#57B894"/>
<path d="M347.696 54.191C353.047 54.191 357.385 51.7508 357.385 48.7407C357.385 45.7305 353.047 43.2903 347.696 43.2903C342.345 43.2903 338.007 45.7305 338.007 48.7407C338.007 51.7508 342.345 54.191 347.696 54.191Z" stroke="#3F3D56" stroke-miterlimit="10"/>
<path d="M259.685 98.1412C265.036 98.1412 269.374 95.701 269.374 92.6909C269.374 89.6807 265.036 87.2405 259.685 87.2405C254.334 87.2405 249.996 89.6807 249.996 92.6909C249.996 95.701 254.334 98.1412 259.685 98.1412Z" fill="#57B894"/>
<path d="M258.474 97.2062C263.825 97.2062 268.163 94.766 268.163 91.7558C268.163 88.7456 263.825 86.3054 258.474 86.3054C253.123 86.3054 248.785 88.7456 248.785 91.7558C248.785 94.766 253.123 97.2062 258.474 97.2062Z" stroke="#3F3D56" stroke-miterlimit="10"/>
<path d="M293.194 95.3361C298.545 95.3361 302.883 92.8958 302.883 89.8857C302.883 86.8755 298.545 84.4353 293.194 84.4353C287.843 84.4353 283.505 86.8755 283.505 89.8857C283.505 92.8958 287.843 95.3361 293.194 95.3361Z" fill="#57B894"/>
<path d="M291.983 94.401C297.334 94.401 301.672 91.9608 301.672 88.9506C301.672 85.9405 297.334 83.5002 291.983 83.5002C286.631 83.5002 282.293 85.9405 282.293 88.9506C282.293 91.9608 286.631 94.401 291.983 94.401Z" stroke="#3F3D56" stroke-miterlimit="10"/>
<path d="M337.199 99.5441C342.55 99.5441 346.888 97.1039 346.888 94.0937C346.888 91.0835 342.55 88.6433 337.199 88.6433C331.848 88.6433 327.51 91.0835 327.51 94.0937C327.51 97.1039 331.848 99.5441 337.199 99.5441Z" fill="#57B894"/>
<path d="M335.988 98.609C341.339 98.609 345.677 96.1688 345.677 93.1586C345.677 90.1485 341.339 87.7083 335.988 87.7083C330.637 87.7083 326.299 90.1485 326.299 93.1586C326.299 96.1688 330.637 98.609 335.988 98.609Z" stroke="#3F3D56" stroke-miterlimit="10"/>
<path d="M313.783 101.414C319.135 101.414 323.473 98.974 323.473 95.9638C323.473 92.9536 319.135 90.5134 313.783 90.5134C308.432 90.5134 304.094 92.9536 304.094 95.9638C304.094 98.974 308.432 101.414 313.783 101.414Z" fill="#57B894"/>
<path d="M312.572 100.479C317.924 100.479 322.262 98.0389 322.262 95.0287C322.262 92.0186 317.924 89.5784 312.572 89.5784C307.221 89.5784 302.883 92.0186 302.883 95.0287C302.883 98.0389 307.221 100.479 312.572 100.479Z" stroke="#3F3D56" stroke-miterlimit="10"/>
<path d="M315.398 54.6586C320.75 54.6586 325.088 52.2184 325.088 49.2082C325.088 46.198 320.75 43.7578 315.398 43.7578C310.047 43.7578 305.709 46.198 305.709 49.2082C305.709 52.2184 310.047 54.6586 315.398 54.6586Z" fill="#57B894"/>
<path d="M314.187 53.7235C319.539 53.7235 323.877 51.2833 323.877 48.2731C323.877 45.263 319.539 42.8228 314.187 42.8228C308.836 42.8228 304.498 45.263 304.498 48.2731C304.498 51.2833 308.836 53.7235 314.187 53.7235Z" stroke="#3F3D56" stroke-miterlimit="10"/>
<path d="M273.815 83.6471C279.167 83.6471 283.505 81.2069 283.505 78.1967C283.505 75.1866 279.167 72.7463 273.815 72.7463C268.464 72.7463 264.126 75.1866 264.126 78.1967C264.126 81.2069 268.464 83.6471 273.815 83.6471Z" fill="#57B894"/>
<path d="M272.604 82.712C277.955 82.712 282.294 80.2718 282.294 77.2617C282.294 74.2515 277.955 71.8113 272.604 71.8113C267.253 71.8113 262.915 74.2515 262.915 77.2617C262.915 80.2718 267.253 82.712 272.604 82.712Z" stroke="#3F3D56" stroke-miterlimit="10"/>
<path d="M279.467 104.687C284.819 104.687 289.157 102.247 289.157 99.2368C289.157 96.2266 284.819 93.7864 279.467 93.7864C274.116 93.7864 269.778 96.2266 269.778 99.2368C269.778 102.247 274.116 104.687 279.467 104.687Z" fill="#57B894"/>
<path d="M278.256 103.752C283.608 103.752 287.946 101.312 287.946 98.3017C287.946 95.2915 283.608 92.8513 278.256 92.8513C272.905 92.8513 268.567 95.2915 268.567 98.3017C268.567 101.312 272.905 103.752 278.256 103.752Z" stroke="#3F3D56" stroke-miterlimit="10"/>
<g opacity="0.3">
<path opacity="0.3" d="M279.693 136.452C281.061 133.618 281.31 130.765 280.25 130.079C279.191 129.393 277.223 131.134 275.855 133.968C274.487 136.802 274.238 139.656 275.297 140.342C276.357 141.028 278.325 139.286 279.693 136.452Z" fill="#57B894"/>
<path opacity="0.3" d="M279.054 136.88C280.422 134.046 280.671 131.193 279.612 130.507C278.552 129.821 276.584 131.562 275.216 134.396C273.849 137.231 273.599 140.084 274.659 140.77C275.718 141.456 277.686 139.715 279.054 136.88Z" stroke="#3F3D56" stroke-miterlimit="10"/>
</g>
<g opacity="0.3">
<path opacity="0.3" d="M330.198 150.039C331.007 148.991 329.97 146.386 327.881 144.221C325.792 142.056 323.442 141.15 322.633 142.198C321.823 143.245 322.86 145.85 324.949 148.015C327.038 150.181 329.388 151.086 330.198 150.039Z" fill="#57B894"/>
<path opacity="0.3" d="M329.976 149.223C330.786 148.176 329.749 145.571 327.66 143.406C325.571 141.24 323.221 140.334 322.411 141.382C321.602 142.43 322.639 145.035 324.728 147.2C326.817 149.365 329.167 150.271 329.976 149.223Z" stroke="#3F3D56" stroke-miterlimit="10"/>
</g>
<g opacity="0.3">
<path opacity="0.3" d="M284.981 120.583C285.791 119.535 284.754 116.93 282.665 114.765C280.576 112.6 278.226 111.694 277.416 112.742C276.607 113.789 277.644 116.394 279.733 118.559C281.822 120.724 284.172 121.63 284.981 120.583Z" fill="#57B894"/>
<path opacity="0.3" d="M284.76 119.767C285.57 118.719 284.532 116.115 282.443 113.95C280.354 111.784 278.005 110.878 277.195 111.926C276.385 112.974 277.422 115.579 279.511 117.744C281.6 119.909 283.95 120.815 284.76 119.767Z" stroke="#3F3D56" stroke-miterlimit="10"/>
</g>
</g>
<path opacity="0.1" d="M162.973 328.271C136.947 315.862 99.5966 319.526 69.8042 326.278C59.8311 328.54 49.2809 331.117 38.4654 329.794C25.2439 328.178 15.3927 321.076 10.0598 313.739C0.340413 300.364 2.05936 284.689 14.5743 272.924C25.3757 262.771 43.2335 255.72 53.5258 245.364C70.7452 228.031 63.3381 205.251 50.4993 185.66C41.4171 171.8 29.6953 156.61 38.3173 143.261C44.3911 133.872 59.6862 127.655 76.0041 124.462C83.8828 122.92 92.4283 121.869 98.614 118.708C102.291 116.828 104.865 114.323 107.02 111.742C126.707 88.1902 114.828 57.5465 136.761 34.7395C151.573 19.342 180.125 9.93991 210.084 6.2032C240.043 2.46649 271.619 3.75702 302.649 5.64836C324.701 6.99249 348.26 9.01261 365.518 17.645C383.774 26.7746 390.922 41.853 387.92 55.2546C384.919 68.6562 373.113 80.5769 359.097 90.9792C341.578 103.98 319.63 115.896 312.878 132.218C308.277 143.333 311.349 155.216 312.646 166.828C314.81 186.237 311.928 205.532 308.697 224.704C305.605 243.058 302.171 261.536 292.436 278.855C285.547 291.111 272.653 300.756 263.795 312.273C258.021 319.778 256.62 328.084 249.186 335.13C240.028 343.825 223.876 351.609 204.607 348.853C186.299 346.245 176.785 334.858 162.973 328.271Z" fill="#15C95A"/>
<defs>
<clipPath id="clip0">
<rect width="304" height="260" fill="white" transform="translate(55 30)"/>
</clipPath>
</defs>
</svg>
