<svg width="254" height="394" viewBox="0 0 254 394" fill="none" xmlns="http://www.w3.org/2000/svg">
<path d="M180.625 223.853L176.27 222.227C175.855 222.074 175.443 221.901 175.026 221.741C182.996 218.682 189.687 213.013 194.001 205.666C198.316 198.319 199.995 189.731 198.765 181.314C197.535 172.897 193.467 165.152 187.231 159.351C180.994 153.551 172.961 150.04 164.45 149.396L167.667 164.503L156.027 149.699L155.91 149.723C151.027 150.464 146.337 152.156 142.108 154.703C137.878 157.25 134.193 160.602 131.261 164.567C128.33 168.531 126.21 173.032 125.023 177.811C123.835 182.59 123.604 187.554 124.342 192.419C124.444 193.126 124.62 193.813 124.759 194.506C121.197 191.783 117.846 188.769 115.327 185.238C110.228 178.091 108.381 169.203 106.499 158.336C102.772 136.794 99.3889 115.016 96.2967 93.2514C104.822 90.5425 112.103 84.895 116.833 77.3226C121.563 69.7503 123.433 60.7493 122.105 51.9356C121.93 50.8023 121.689 49.6948 121.439 48.6021C121.384 48.3258 121.329 48.0495 121.232 47.788C120.944 46.7346 120.635 45.6983 120.26 44.6879C120.226 44.516 120.131 44.3626 120.067 44.203C119.742 43.3485 119.383 42.5137 119.001 41.6899C118.857 41.3867 118.718 41.108 118.562 40.7753C118.117 39.8938 117.652 39.0419 117.134 38.1813C116.963 37.9027 116.771 37.6154 116.597 37.3564C116.205 36.7389 115.789 36.1325 115.357 35.5421C115.128 35.2303 114.906 34.9173 114.672 34.6129C114.605 34.5368 114.556 34.4508 114.49 34.3747C109.065 27.4873 101.385 22.7175 92.7885 20.8957C84.1916 19.0739 75.2217 20.3156 67.4403 24.4044L71.6237 44.0619L60.1146 29.4303C54.0995 34.6621 49.9167 41.6705 48.1765 49.4327C46.4363 57.1949 47.2298 65.3048 50.4412 72.579L50.4042 72.5863C50.5124 72.8392 50.6416 73.0688 50.7559 73.3205C50.9699 73.7821 51.1888 74.2363 51.42 74.6881C51.7152 75.2675 52.035 75.8421 52.361 76.4154C52.6045 76.8327 52.8432 77.2575 53.1052 77.6712C53.4879 78.2715 53.8976 78.8472 54.3074 79.4229C54.5473 79.758 54.7712 80.1091 55.0223 80.4356C55.6811 81.2957 56.3756 82.1209 57.1059 82.9114C57.3607 83.1924 57.6353 83.444 57.9073 83.7153C58.4243 84.2504 58.9413 84.7856 59.499 85.2679C59.8363 85.5771 60.1884 85.8643 60.5368 86.165C61.0453 86.5933 61.5587 87.0142 62.0684 87.4168C62.4402 87.7064 62.8207 87.9751 63.2024 88.25C63.7528 88.6316 64.3069 88.9997 64.8782 89.358C65.2526 89.5961 65.617 89.8488 66.0246 90.0611C66.6625 90.4316 67.3214 90.7788 67.9839 91.1125C68.3177 91.2756 68.6489 91.4584 68.9889 91.6204C69.9864 92.0595 71.0087 92.4937 72.0617 92.9217C72.2563 92.9978 72.4645 93.0456 72.6579 93.1155C73.5312 93.4134 74.4057 93.6856 75.2987 93.9222C75.6843 94.0239 76.0711 94.0998 76.4604 94.1881C77.1859 94.3559 77.9201 94.5349 78.6568 94.6303C79.0879 94.7038 79.5228 94.7637 79.9762 94.82C80.6993 94.9117 81.4311 94.9826 82.1629 95.0215C82.5917 95.0508 83.0278 95.085 83.4603 95.1007C84.2475 95.1286 85.0472 95.1221 85.8505 95.102L86.0045 95.1032C87.3128 104.282 88.6757 113.456 90.0932 122.626C86.9979 118.564 83.1012 115.177 78.6425 112.672C74.1839 110.167 69.2572 108.598 64.1652 108.061C59.0732 107.524 53.9233 108.03 49.0318 109.548C44.1402 111.066 39.6103 113.564 35.7201 116.889L45.7958 133.39L29.7941 123.18C23.9129 131.167 21.45 141.149 22.9465 150.934C23.4543 154.37 24.4507 157.716 25.9055 160.87C29.0233 167.702 34.13 173.439 40.5633 177.338C46.9965 181.237 54.4595 183.118 61.9844 182.737C69.5093 182.356 76.7489 179.731 82.7643 175.201C88.7798 170.672 93.2936 164.448 95.7203 157.336C95.9042 158.257 96.0266 159.19 96.1871 160.122C97.8466 169.711 99.9104 181.646 106.804 191.294C111.474 197.831 117.839 202.624 124.004 206.832C128.031 209.571 132.157 212.168 136.349 214.644C140.782 218.631 146.105 221.506 151.878 223.033C158.615 226.354 165.509 229.363 172.54 232.006L176.93 233.644C180.875 235.11 184.919 236.619 188.905 238.23C188.277 238.291 187.647 238.347 187.025 238.439C179.133 239.639 171.824 243.307 166.156 248.916C160.488 254.524 156.753 261.781 155.492 269.637L182.268 283.715L155.749 282.922C156.999 289.135 159.808 294.928 163.914 299.761C168.021 304.594 173.291 308.309 179.232 310.559C185.174 312.81 191.593 313.522 197.89 312.629C204.186 311.736 210.156 309.268 215.24 305.455C214.815 306.28 214.386 307.102 213.951 307.921C213.098 309.551 212.257 311.17 211.43 312.779C200.212 334.696 199.631 353.498 209.792 365.711L217.853 359.045C207.963 347.16 215.423 327.922 220.75 317.512C221.56 315.924 222.387 314.333 223.231 312.739C230.449 298.93 238.622 283.329 235.06 266.88C229.694 242.103 202.46 231.991 180.625 223.853Z" fill="#15C95A"/>
</svg>
