<svg width="715" height="464" viewBox="0 0 715 464" fill="none" xmlns="http://www.w3.org/2000/svg">
<g clip-path="url(#clip0)">
<path d="M403.862 464C575.699 464 715 454.75 715 443.34C715 431.931 575.699 422.681 403.862 422.681C232.025 422.681 92.7232 431.931 92.7232 443.34C92.7232 454.75 232.025 464 403.862 464Z" fill="#F2F2F2"/>
<path d="M414.311 443.967L302.348 442.539L302.675 439.678L308.091 392.481H406.419L413.651 439.678L414.204 443.253L414.311 443.967Z" fill="#2F2E41"/>
<path opacity="0.1" d="M414.204 443.253H358.326L302.348 442.539L302.675 439.678H413.651L414.204 443.253Z" fill="black"/>
<path d="M432.256 440.392H283.687V443.967H432.256V440.392Z" fill="#3F3D56"/>
<path d="M574.008 109.001C574.014 107.778 573.778 106.567 573.314 105.435C572.85 104.303 572.166 103.274 571.303 102.405C570.439 101.537 569.412 100.846 568.281 100.373C567.15 99.8999 565.936 99.6534 564.709 99.6477H149.807C148.58 99.6534 147.367 99.8999 146.235 100.373C145.104 100.846 144.077 101.537 143.214 102.405C142.35 103.274 141.667 104.303 141.202 105.435C140.738 106.567 140.502 107.778 140.508 109.001V359.582H574.008V109.001Z" fill="#3F3D56"/>
<path d="M140.508 357.084V386.433C140.508 388.89 141.488 391.247 143.232 392.985C144.976 394.722 147.341 395.698 149.807 395.698H564.709C567.175 395.698 569.541 394.722 571.285 392.985C573.028 391.247 574.008 388.89 574.008 386.433V357.084H140.508Z" fill="#3F3D56"/>
<path d="M558.212 115.38H158.447V340.638H558.212V115.38Z" fill="#2F2E41"/>
<path d="M359.388 384.561C360.856 384.563 362.305 384.232 363.626 383.593C364.946 382.954 366.103 382.024 367.01 380.874C367.287 380.522 367.539 380.152 367.764 379.766L362.448 378.895L368.197 378.939C368.748 377.743 369.048 376.449 369.08 375.133C369.113 373.818 368.877 372.51 368.386 371.289L360.67 375.277L367.783 370.068C367.115 368.924 366.218 367.929 365.148 367.145C364.077 366.361 362.857 365.805 361.562 365.511C360.266 365.216 358.924 365.191 357.619 365.435C356.313 365.679 355.072 366.189 353.973 366.931C352.873 367.674 351.938 368.633 351.227 369.751C350.515 370.869 350.042 372.12 349.836 373.428C349.63 374.735 349.697 376.071 350.031 377.352C350.365 378.633 350.96 379.832 351.779 380.874V380.874C352.684 382.022 353.839 382.951 355.158 383.59C356.476 384.229 357.922 384.561 359.388 384.561Z" fill="#15C95A"/>
<path opacity="0.1" d="M369.096 395.698L413.764 440.392L406.909 395.698H369.096Z" fill="black"/>
<path d="M489.064 426.199L501.096 419.188C499.466 416.422 497.388 413.945 494.945 411.857L472.256 418.887L490.031 408.47C485.63 406.067 480.676 404.848 475.658 404.933C470.639 405.017 465.73 406.402 461.412 408.951C457.094 411.5 453.516 415.125 451.032 419.47C448.547 423.815 447.241 428.73 447.242 433.731C447.242 449.639 460.185 450.189 476.145 450.189C492.105 450.189 505.048 449.639 505.048 433.731C505.053 429.707 504.21 425.727 502.573 422.049L489.064 426.199Z" fill="#57B894"/>
<path opacity="0.1" d="M492.13 441.663C490.846 440.385 489.414 439.265 487.863 438.326C485.683 436.88 483.421 435.408 480.845 434.914C478.589 434.482 476.252 434.845 473.933 434.72C469.933 434.475 466.167 432.755 463.371 429.893C461.725 428.203 460.437 426.137 458.457 424.828C456.327 423.438 453.626 423.138 451.106 423.482C450.371 423.591 449.643 423.742 448.926 423.933C447.791 427.065 447.213 430.37 447.217 433.699C447.217 449.607 460.16 450.158 476.12 450.158C483.867 450.158 490.905 450.027 496.095 448.073L495.228 446.458C494.402 444.736 493.362 443.124 492.13 441.663V441.663Z" fill="black"/>
<path opacity="0.3" d="M189.493 202.282H176.204V206.301H189.493V202.282Z" fill="#15C95A"/>
<path opacity="0.3" d="M544.093 202.401H530.804V206.42H544.093V202.401Z" fill="#15C95A"/>
<path opacity="0.3" d="M189.612 230.535H176.323V234.554H189.612V230.535Z" fill="#15C95A"/>
<path opacity="0.3" d="M189.732 258.788H176.442V262.808H189.732V258.788Z" fill="#15C95A"/>
<path opacity="0.3" d="M189.851 287.036H176.562V291.055H189.851V287.036Z" fill="#15C95A"/>
<g opacity="0.2">
<path opacity="0.2" d="M193.263 204.216H189.493V204.373H193.263V204.216Z" fill="#F2F2F2"/>
<path opacity="0.2" d="M519.387 204.373H511.979V204.216H519.387V204.373ZM504.565 204.373H497.157V204.216H504.565V204.373ZM489.742 204.373H482.328V204.216H489.742V204.373ZM474.92 204.373H467.506V204.216H474.92V204.373ZM460.098 204.373H452.683V204.216H460.098V204.373ZM445.269 204.373H437.861V204.216H445.269V204.373ZM430.447 204.373H423.032V204.216H430.447V204.373ZM415.624 204.373H408.21V204.216H415.624V204.373ZM400.802 204.373H393.387V204.216H400.802V204.373ZM385.973 204.373H378.565V204.216H385.973V204.373ZM371.151 204.373H363.736V204.216H371.151V204.373ZM356.328 204.373H348.914V204.216H356.328V204.373ZM341.506 204.373H334.092V204.216H341.506V204.373ZM326.677 204.373H319.269V204.216H326.677V204.373ZM311.855 204.373H304.447V204.216H311.855V204.373ZM297.032 204.373H289.643V204.216H297.057L297.032 204.373ZM282.21 204.373H274.796V204.216H282.21V204.373ZM267.381 204.373H259.973V204.216H267.381V204.373ZM252.559 204.373H245.151V204.216H252.571L252.559 204.373ZM237.737 204.373H230.322V204.216H237.737V204.373ZM222.914 204.373H215.5V204.216H222.914V204.373ZM208.085 204.373H200.677V204.216H208.085V204.373Z" fill="#F2F2F2"/>
<path opacity="0.2" d="M530.572 204.216H526.801V204.373H530.572V204.216Z" fill="#F2F2F2"/>
<path opacity="0.2" d="M193.263 204.216H189.493V204.373H193.263V204.216Z" fill="#F2F2F2"/>
<path opacity="0.2" d="M519.387 204.373H511.979V204.216H519.387V204.373ZM504.565 204.373H497.157V204.216H504.565V204.373ZM489.742 204.373H482.328V204.216H489.742V204.373ZM474.92 204.373H467.506V204.216H474.92V204.373ZM460.098 204.373H452.683V204.216H460.098V204.373ZM445.269 204.373H437.861V204.216H445.269V204.373ZM430.447 204.373H423.032V204.216H430.447V204.373ZM415.624 204.373H408.21V204.216H415.624V204.373ZM400.802 204.373H393.387V204.216H400.802V204.373ZM385.973 204.373H378.565V204.216H385.973V204.373ZM371.151 204.373H363.736V204.216H371.151V204.373ZM356.328 204.373H348.914V204.216H356.328V204.373ZM341.506 204.373H334.092V204.216H341.506V204.373ZM326.677 204.373H319.269V204.216H326.677V204.373ZM311.855 204.373H304.447V204.216H311.855V204.373ZM297.032 204.373H289.643V204.216H297.057L297.032 204.373ZM282.21 204.373H274.796V204.216H282.21V204.373ZM267.381 204.373H259.973V204.216H267.381V204.373ZM252.559 204.373H245.151V204.216H252.571L252.559 204.373ZM237.737 204.373H230.322V204.216H237.737V204.373ZM222.914 204.373H215.5V204.216H222.914V204.373ZM208.085 204.373H200.677V204.216H208.085V204.373Z" fill="#F2F2F2"/>
<path opacity="0.2" d="M530.572 204.216H526.801V204.373H530.572V204.216Z" fill="#F2F2F2"/>
</g>
<path opacity="0.3" d="M189.493 174.109H176.204V178.129H189.493V174.109Z" fill="#15C95A"/>
<path opacity="0.3" d="M544.093 174.229H530.804V178.248H544.093V174.229Z" fill="#15C95A"/>
<g opacity="0.2">
<path opacity="0.2" d="M193.263 176.044H189.493V176.201H193.263V176.044Z" fill="#F2F2F2"/>
<path opacity="0.2" d="M519.387 176.201H511.979V176.044H519.387V176.201ZM504.565 176.201H497.157V176.044H504.565V176.201ZM489.742 176.201H482.328V176.044H489.742V176.201ZM474.92 176.201H467.506V176.044H474.92V176.201ZM460.098 176.201H452.683V176.044H460.098V176.201ZM445.269 176.201H437.861V176.044H445.269V176.201ZM430.447 176.201H423.032V176.044H430.447V176.201ZM415.624 176.201H408.21V176.044H415.624V176.201ZM400.802 176.201H393.387V176.044H400.802V176.201ZM385.973 176.201H378.565V176.044H385.973V176.201ZM371.151 176.201H363.736V176.044H371.151V176.201ZM356.328 176.201H348.914V176.044H356.328V176.201ZM341.506 176.201H334.092V176.044H341.506V176.201ZM326.677 176.201H319.269V176.044H326.677V176.201ZM311.855 176.201H304.447V176.044H311.855V176.201ZM297.032 176.201H289.643V176.044H297.057L297.032 176.201ZM282.21 176.201H274.796V176.044H282.21V176.201ZM267.381 176.201H259.973V176.044H267.381V176.201ZM252.559 176.201H245.151V176.044H252.571L252.559 176.201ZM237.737 176.201H230.322V176.044H237.737V176.201ZM222.914 176.201H215.5V176.044H222.914V176.201ZM208.085 176.201H200.677V176.044H208.085V176.201Z" fill="#F2F2F2"/>
<path opacity="0.2" d="M530.572 176.044H526.801V176.201H530.572V176.044Z" fill="#F2F2F2"/>
</g>
<path opacity="0.3" d="M544.093 230.535H530.804V234.554H544.093V230.535Z" fill="#15C95A"/>
<g opacity="0.2">
<path opacity="0.2" d="M193.263 232.352H189.493V232.508H193.263V232.352Z" fill="#F2F2F2"/>
<path opacity="0.2" d="M519.387 232.501H511.979V232.344H519.387V232.501ZM504.565 232.501H497.157V232.344H504.565V232.501ZM489.742 232.501H482.328V232.344H489.742V232.501ZM474.92 232.501H467.506V232.344H474.92V232.501ZM460.098 232.501H452.683V232.344H460.098V232.501ZM445.269 232.501H437.861V232.344H445.269V232.501ZM430.447 232.501H423.032V232.344H430.447V232.501ZM415.624 232.501H408.21V232.344H415.624V232.501ZM400.802 232.501H393.387V232.344H400.802V232.501ZM385.973 232.501H378.565V232.344H385.973V232.501ZM371.151 232.501H363.736V232.344H371.151V232.501ZM356.328 232.501H348.914V232.344H356.328V232.501ZM341.506 232.501H334.092V232.344H341.506V232.501ZM326.677 232.501H319.269V232.344H326.677V232.501ZM311.855 232.501H304.447V232.344H311.855V232.501ZM297.032 232.501H289.643V232.344H297.057L297.032 232.501ZM282.21 232.501H274.796V232.344H282.21V232.501ZM267.381 232.501H259.973V232.344H267.381V232.501ZM252.559 232.501H245.151V232.344H252.571L252.559 232.501ZM237.737 232.501H230.322V232.344H237.737V232.501ZM222.914 232.501H215.5V232.344H222.914V232.501ZM208.085 232.501H200.677V232.344H208.085V232.501Z" fill="#F2F2F2"/>
<path opacity="0.2" d="M530.572 232.351H526.801V232.507H530.572V232.351Z" fill="#F2F2F2"/>
<path opacity="0.2" d="M193.263 232.352H189.493V232.508H193.263V232.352Z" fill="#F2F2F2"/>
<path opacity="0.2" d="M519.387 232.501H511.979V232.344H519.387V232.501ZM504.565 232.501H497.157V232.344H504.565V232.501ZM489.742 232.501H482.328V232.344H489.742V232.501ZM474.92 232.501H467.506V232.344H474.92V232.501ZM460.098 232.501H452.683V232.344H460.098V232.501ZM445.269 232.501H437.861V232.344H445.269V232.501ZM430.447 232.501H423.032V232.344H430.447V232.501ZM415.624 232.501H408.21V232.344H415.624V232.501ZM400.802 232.501H393.387V232.344H400.802V232.501ZM385.973 232.501H378.565V232.344H385.973V232.501ZM371.151 232.501H363.736V232.344H371.151V232.501ZM356.328 232.501H348.914V232.344H356.328V232.501ZM341.506 232.501H334.092V232.344H341.506V232.501ZM326.677 232.501H319.269V232.344H326.677V232.501ZM311.855 232.501H304.447V232.344H311.855V232.501ZM297.032 232.501H289.643V232.344H297.057L297.032 232.501ZM282.21 232.501H274.796V232.344H282.21V232.501ZM267.381 232.501H259.973V232.344H267.381V232.501ZM252.559 232.501H245.151V232.344H252.571L252.559 232.501ZM237.737 232.501H230.322V232.344H237.737V232.501ZM222.914 232.501H215.5V232.344H222.914V232.501ZM208.085 232.501H200.677V232.344H208.085V232.501Z" fill="#F2F2F2"/>
<path opacity="0.2" d="M530.572 232.351H526.801V232.507H530.572V232.351Z" fill="#F2F2F2"/>
</g>
<path opacity="0.3" d="M544.093 258.67H530.804V262.689H544.093V258.67Z" fill="#15C95A"/>
<g opacity="0.2">
<path opacity="0.2" d="M193.263 260.479H189.493V260.635H193.263V260.479Z" fill="#F2F2F2"/>
<path opacity="0.2" d="M519.387 260.635H511.979V260.479H519.387V260.635ZM504.565 260.635H497.157V260.479H504.565V260.635ZM489.742 260.635H482.328V260.479H489.742V260.635ZM474.92 260.635H467.506V260.479H474.92V260.635ZM460.098 260.635H452.683V260.479H460.098V260.635ZM445.269 260.635H437.861V260.479H445.269V260.635ZM430.447 260.635H423.032V260.479H430.447V260.635ZM415.624 260.635H408.21V260.479H415.624V260.635ZM400.802 260.635H393.387V260.479H400.802V260.635ZM385.973 260.635H378.565V260.479H385.973V260.635ZM371.151 260.635H363.736V260.479H371.151V260.635ZM356.328 260.635H348.914V260.479H356.328V260.635ZM341.506 260.635H334.092V260.479H341.506V260.635ZM326.677 260.635H319.269V260.479H326.677V260.635ZM311.855 260.635H304.447V260.479H311.855V260.635ZM297.032 260.635H289.643V260.479H297.057L297.032 260.635ZM282.21 260.635H274.796V260.479H282.21V260.635ZM267.381 260.635H259.973V260.479H267.381V260.635ZM252.559 260.635H245.151V260.479H252.571L252.559 260.635ZM237.737 260.635H230.322V260.479H237.737V260.635ZM222.914 260.635H215.5V260.479H222.914V260.635ZM208.085 260.635H200.677V260.479H208.085V260.635Z" fill="#F2F2F2"/>
<path opacity="0.2" d="M530.572 260.479H526.801V260.635H530.572V260.479Z" fill="#F2F2F2"/>
<path opacity="0.2" d="M193.263 260.479H189.493V260.635H193.263V260.479Z" fill="#F2F2F2"/>
<path opacity="0.2" d="M519.387 260.635H511.979V260.479H519.387V260.635ZM504.565 260.635H497.157V260.479H504.565V260.635ZM489.742 260.635H482.328V260.479H489.742V260.635ZM474.92 260.635H467.506V260.479H474.92V260.635ZM460.098 260.635H452.683V260.479H460.098V260.635ZM445.269 260.635H437.861V260.479H445.269V260.635ZM430.447 260.635H423.032V260.479H430.447V260.635ZM415.624 260.635H408.21V260.479H415.624V260.635ZM400.802 260.635H393.387V260.479H400.802V260.635ZM385.973 260.635H378.565V260.479H385.973V260.635ZM371.151 260.635H363.736V260.479H371.151V260.635ZM356.328 260.635H348.914V260.479H356.328V260.635ZM341.506 260.635H334.092V260.479H341.506V260.635ZM326.677 260.635H319.269V260.479H326.677V260.635ZM311.855 260.635H304.447V260.479H311.855V260.635ZM297.032 260.635H289.643V260.479H297.057L297.032 260.635ZM282.21 260.635H274.796V260.479H282.21V260.635ZM267.381 260.635H259.973V260.479H267.381V260.635ZM252.559 260.635H245.151V260.479H252.571L252.559 260.635ZM237.737 260.635H230.322V260.479H237.737V260.635ZM222.914 260.635H215.5V260.479H222.914V260.635ZM208.085 260.635H200.677V260.479H208.085V260.635Z" fill="#F2F2F2"/>
<path opacity="0.2" d="M530.572 260.479H526.801V260.635H530.572V260.479Z" fill="#F2F2F2"/>
</g>
<path opacity="0.3" d="M544.093 286.798H530.804V290.817H544.093V286.798Z" fill="#15C95A"/>
<g opacity="0.2">
<path opacity="0.2" d="M193.263 288.613H189.493V288.77H193.263V288.613Z" fill="#F2F2F2"/>
<path opacity="0.2" d="M519.387 288.77H511.979V288.613H519.387V288.77ZM504.565 288.77H497.157V288.613H504.565V288.77ZM489.742 288.77H482.328V288.613H489.742V288.77ZM474.92 288.77H467.506V288.613H474.92V288.77ZM460.098 288.77H452.683V288.613H460.098V288.77ZM445.269 288.77H437.861V288.613H445.269V288.77ZM430.447 288.77H423.032V288.613H430.447V288.77ZM415.624 288.77H408.21V288.613H415.624V288.77ZM400.802 288.77H393.387V288.613H400.802V288.77ZM385.973 288.77H378.565V288.613H385.973V288.77ZM371.151 288.77H363.736V288.613H371.151V288.77ZM356.328 288.77H348.914V288.613H356.328V288.77ZM341.506 288.77H334.092V288.613H341.506V288.77ZM326.677 288.77H319.269V288.613H326.677V288.77ZM311.855 288.77H304.447V288.613H311.855V288.77ZM297.032 288.77H289.643V288.613H297.057L297.032 288.77ZM282.21 288.77H274.796V288.613H282.21V288.77ZM267.381 288.77H259.973V288.613H267.381V288.77ZM252.559 288.77H245.151V288.613H252.571L252.559 288.77ZM237.737 288.77H230.322V288.613H237.737V288.77ZM222.914 288.77H215.5V288.613H222.914V288.77ZM208.085 288.77H200.677V288.613H208.085V288.77Z" fill="#F2F2F2"/>
<path opacity="0.2" d="M530.572 288.613H526.801V288.77H530.572V288.613Z" fill="#F2F2F2"/>
<path opacity="0.2" d="M193.263 288.613H189.493V288.77H193.263V288.613Z" fill="#F2F2F2"/>
<path opacity="0.2" d="M519.387 288.77H511.979V288.613H519.387V288.77ZM504.565 288.77H497.157V288.613H504.565V288.77ZM489.742 288.77H482.328V288.613H489.742V288.77ZM474.92 288.77H467.506V288.613H474.92V288.77ZM460.098 288.77H452.683V288.613H460.098V288.77ZM445.269 288.77H437.861V288.613H445.269V288.77ZM430.447 288.77H423.032V288.613H430.447V288.77ZM415.624 288.77H408.21V288.613H415.624V288.77ZM400.802 288.77H393.387V288.613H400.802V288.77ZM385.973 288.77H378.565V288.613H385.973V288.77ZM371.151 288.77H363.736V288.613H371.151V288.77ZM356.328 288.77H348.914V288.613H356.328V288.77ZM341.506 288.77H334.092V288.613H341.506V288.77ZM326.677 288.77H319.269V288.613H326.677V288.77ZM311.855 288.77H304.447V288.613H311.855V288.77ZM297.032 288.77H289.643V288.613H297.057L297.032 288.77ZM282.21 288.77H274.796V288.613H282.21V288.77ZM267.381 288.77H259.973V288.613H267.381V288.77ZM252.559 288.77H245.151V288.613H252.571L252.559 288.77ZM237.737 288.77H230.322V288.613H237.737V288.77ZM222.914 288.77H215.5V288.613H222.914V288.77ZM208.085 288.77H200.677V288.613H208.085V288.77Z" fill="#F2F2F2"/>
<path opacity="0.2" d="M530.572 288.613H526.801V288.77H530.572V288.613Z" fill="#F2F2F2"/>
</g>
<path d="M232.817 176.238V289.045" stroke="#F2F2F2" stroke-width="0.1" stroke-miterlimit="10"/>
<path d="M278.685 176.238V289.045" stroke="#F2F2F2" stroke-width="0.1" stroke-miterlimit="10"/>
<path d="M324.553 176.238V289.045" stroke="#F2F2F2" stroke-width="0.1" stroke-miterlimit="10"/>
<path d="M370.422 176.238V289.045" stroke="#F2F2F2" stroke-width="0.1" stroke-miterlimit="10"/>
<path d="M416.29 176.238V289.045" stroke="#F2F2F2" stroke-width="0.1" stroke-miterlimit="10"/>
<path d="M462.158 176.238V289.045" stroke="#F2F2F2" stroke-width="0.1" stroke-miterlimit="10"/>
<path d="M508.027 176.238V289.045" stroke="#F2F2F2" stroke-width="0.1" stroke-miterlimit="10"/>
<path opacity="0.3" d="M517.948 168.625L512.702 174.072C512.595 174.186 512.506 174.314 512.438 174.454L509.183 181.134C509.053 181.402 508.845 181.625 508.586 181.774C508.327 181.922 508.029 181.989 507.731 181.966L506.688 181.885C506.386 181.864 506.097 181.75 505.861 181.56C505.625 181.369 505.453 181.111 505.369 180.821L504.364 177.352C504.276 177.049 504.093 176.782 503.842 176.589C503.592 176.396 503.286 176.288 502.969 176.28C502.652 176.272 502.341 176.365 502.081 176.546C501.821 176.726 501.626 176.985 501.523 177.284L499.833 182.217C499.733 182.511 499.543 182.767 499.289 182.948C499.036 183.128 498.731 183.225 498.419 183.225H491.966C491.612 183.223 491.27 183.097 491.001 182.867C490.732 182.638 490.553 182.321 490.496 181.973L488.674 170.61C488.626 170.299 488.479 170.012 488.256 169.789C488.033 169.567 487.745 169.42 487.433 169.372C487.122 169.323 486.802 169.374 486.522 169.518C486.241 169.662 486.013 169.891 485.872 170.172L476.528 188.546C476.432 188.736 476.296 188.904 476.129 189.037C475.961 189.17 475.768 189.265 475.56 189.317C475.353 189.369 475.136 189.375 474.926 189.336C474.716 189.297 474.517 189.213 474.342 189.091L468.787 185.184C468.484 184.972 468.113 184.879 467.746 184.923C467.378 184.967 467.04 185.145 466.795 185.422L464.691 187.845C464.628 187.917 464.574 187.994 464.527 188.077L458.91 197.761C458.767 198.01 458.555 198.211 458.3 198.341C458.044 198.471 457.756 198.524 457.471 198.494L454.047 198.156C453.807 198.133 453.566 198.167 453.343 198.256L450.277 199.477C449.921 199.61 449.529 199.604 449.178 199.458C448.828 199.313 448.547 199.04 448.392 198.694L447.719 197.16C447.598 196.886 447.396 196.654 447.141 196.495C446.885 196.337 446.587 196.259 446.287 196.271L442.781 196.434C442.563 196.443 442.351 196.5 442.159 196.601C441.967 196.702 441.799 196.844 441.668 197.016L440.676 198.306C440.512 198.519 440.294 198.684 440.045 198.783C439.795 198.882 439.523 198.912 439.257 198.87C438.992 198.827 438.743 198.714 438.537 198.542C438.331 198.37 438.175 198.146 438.087 197.893L436.83 194.356C436.753 194.136 436.624 193.937 436.455 193.776C436.286 193.614 436.081 193.495 435.857 193.427C435.633 193.36 435.396 193.345 435.166 193.386C434.935 193.427 434.718 193.521 434.531 193.661L428.561 198.118L421.964 203.421C421.738 203.601 421.465 203.713 421.177 203.742C420.89 203.771 420.6 203.716 420.343 203.584L415.222 200.936C414.947 200.795 414.635 200.743 414.33 200.785L403.956 202.231C403.655 202.272 403.374 202.403 403.149 202.606C402.925 202.81 402.768 203.076 402.699 203.371L400.858 211.34C400.801 211.589 400.68 211.819 400.507 212.007C400.335 212.196 400.117 212.337 399.873 212.417C399.63 212.497 399.37 212.513 399.119 212.464C398.868 212.414 398.634 212.301 398.439 212.135V212.135C398.267 211.989 398.063 211.883 397.844 211.827C397.624 211.77 397.395 211.764 397.173 211.809C396.951 211.853 396.742 211.947 396.562 212.084C396.382 212.221 396.235 212.397 396.133 212.599L394.719 215.422C394.613 215.631 394.46 215.812 394.271 215.951C394.082 216.09 393.864 216.184 393.632 216.224L390.421 216.756C390.215 216.792 390.018 216.871 389.843 216.987L384.785 220.343C384.542 220.506 384.255 220.593 383.962 220.593H381.593C381.302 220.594 381.017 220.509 380.774 220.35C380.53 220.191 380.339 219.964 380.224 219.698L379.595 218.202C379.515 218.021 379.4 217.857 379.255 217.721C379.111 217.585 378.94 217.479 378.754 217.409C378.568 217.34 378.369 217.308 378.171 217.317C377.972 217.325 377.777 217.372 377.597 217.457L372.106 220.017C371.884 220.121 371.641 220.169 371.396 220.157C371.152 220.145 370.914 220.073 370.704 219.949L368.191 218.44C367.959 218.301 367.695 218.228 367.424 218.227H361.876C361.583 218.228 361.297 218.315 361.053 218.477L355.518 222.14C355.304 222.281 355.058 222.365 354.803 222.383C354.547 222.402 354.291 222.355 354.06 222.246L351.546 221.063C351.254 220.927 350.924 220.889 350.608 220.956C350.292 221.022 350.006 221.189 349.793 221.432L348.6 222.791C348.443 222.971 348.246 223.111 348.024 223.198C347.802 223.286 347.562 223.319 347.324 223.294C347.087 223.27 346.859 223.188 346.66 223.057C346.461 222.926 346.296 222.749 346.18 222.54L345.822 221.914C345.725 221.741 345.594 221.59 345.437 221.468C345.281 221.346 345.101 221.257 344.909 221.206C344.716 221.154 344.516 221.142 344.319 221.169C344.122 221.196 343.932 221.262 343.761 221.363L339.407 223.936C339.181 224.066 338.926 224.133 338.666 224.133C338.405 224.133 338.15 224.066 337.924 223.936L336.127 222.941C335.924 222.827 335.697 222.763 335.465 222.753C335.232 222.743 335.001 222.788 334.789 222.885L333.08 223.661C332.888 223.747 332.679 223.791 332.469 223.792C332.258 223.792 332.05 223.749 331.857 223.664C331.664 223.579 331.492 223.454 331.351 223.298C331.21 223.143 331.103 222.959 331.038 222.759L329.932 219.479C329.837 219.178 329.649 218.915 329.393 218.729C329.137 218.543 328.828 218.444 328.512 218.446H326.903C326.65 218.447 326.401 218.382 326.181 218.258L320.004 214.884C319.753 214.748 319.467 214.688 319.182 214.709C318.897 214.73 318.624 214.832 318.396 215.003L313.865 218.383C313.608 218.576 313.295 218.679 312.973 218.678H307.274C306.981 218.678 306.694 218.765 306.451 218.928L305.383 219.636C305.207 219.753 305.008 219.832 304.8 219.866C304.591 219.901 304.377 219.891 304.173 219.837C303.968 219.784 303.778 219.687 303.614 219.554C303.45 219.421 303.316 219.254 303.221 219.066L302.964 218.559C302.841 218.311 302.652 218.102 302.416 217.956C302.181 217.81 301.909 217.732 301.632 217.732H298.773C298.546 217.733 298.322 217.785 298.118 217.885C297.915 217.985 297.737 218.129 297.598 218.308L295.826 220.568C295.679 220.756 295.489 220.905 295.272 221.004C295.055 221.103 294.817 221.149 294.579 221.137C294.341 221.126 294.109 221.057 293.902 220.937C293.696 220.818 293.522 220.65 293.394 220.449L292.892 219.667C292.684 219.339 292.356 219.106 291.978 219.017C291.599 218.928 291.201 218.99 290.868 219.191L289.398 220.068C289.148 220.217 288.859 220.29 288.568 220.277C288.276 220.265 287.995 220.168 287.758 219.999L281.833 215.723C281.727 215.648 281.613 215.585 281.494 215.535L276.863 213.763C276.502 213.632 276.105 213.645 275.754 213.799C275.403 213.953 275.125 214.236 274.978 214.59L271.754 222.415C271.708 222.525 271.676 222.641 271.66 222.759L270.617 229.809C270.571 230.107 270.435 230.384 270.228 230.604L268.022 232.964C267.793 233.205 267.491 233.363 267.162 233.414C266.834 233.465 266.497 233.406 266.206 233.246L262.38 231.13C262.189 231.024 261.978 230.96 261.76 230.945C261.543 230.929 261.324 230.961 261.12 231.038C260.916 231.116 260.732 231.237 260.581 231.394C260.429 231.55 260.314 231.738 260.243 231.944L257.818 239.012C257.763 239.166 257.735 239.33 257.736 239.494V243.951C257.736 244.24 257.65 244.523 257.491 244.764C257.331 245.005 257.104 245.195 256.838 245.31L252.948 247.025C252.732 247.118 252.497 247.158 252.262 247.143C252.027 247.128 251.8 247.057 251.597 246.937L248.669 245.222C248.378 245.052 248.036 244.986 247.702 245.034L242.568 245.767C242.275 245.809 241.975 245.762 241.709 245.632C241.442 245.503 241.221 245.297 241.073 245.04L240.206 243.563C240.019 243.244 239.718 243.008 239.364 242.899L237.033 242.173C236.761 242.087 236.47 242.081 236.195 242.155C235.919 242.229 235.671 242.381 235.481 242.593L232.245 246.174C231.989 246.455 231.637 246.629 231.258 246.662L226.483 247.063C226.262 247.075 226.046 247.139 225.855 247.25L217.529 252.021C217.269 252.168 216.971 252.234 216.673 252.21C216.375 252.187 216.091 252.075 215.858 251.889L213.495 250.011C213.231 249.802 212.903 249.687 212.565 249.686H203.618C203.394 249.687 203.174 249.637 202.972 249.54C202.771 249.444 202.594 249.303 202.455 249.129L200.2 246.324C200.065 246.156 199.894 246.02 199.701 245.924C199.508 245.829 199.296 245.776 199.08 245.77C198.864 245.764 198.65 245.805 198.452 245.89C198.253 245.975 198.076 246.101 197.931 246.261L195.217 249.266C194.971 249.538 194.835 249.89 194.834 250.255V287.593C194.834 287.986 194.991 288.364 195.27 288.642C195.549 288.92 195.928 289.077 196.323 289.077H519.117C519.313 289.077 519.507 289.038 519.688 288.963C519.869 288.888 520.034 288.778 520.172 288.64C520.31 288.501 520.42 288.337 520.494 288.156C520.569 287.976 520.607 287.782 520.606 287.587L520.518 169.683C520.522 169.385 520.437 169.092 520.272 168.842C520.107 168.593 519.871 168.398 519.594 168.284C519.317 168.17 519.012 168.142 518.718 168.203C518.425 168.263 518.157 168.411 517.948 168.625V168.625Z" fill="#15C95A"/>
<path opacity="0.3" d="M517.659 216.975L512.796 220.205C512.625 220.32 512.474 220.462 512.35 220.625L509.327 224.6C509.144 224.836 508.907 225.024 508.636 225.151C508.365 225.277 508.068 225.337 507.769 225.326L506.783 225.276C506.444 225.259 506.117 225.15 505.836 224.96C505.556 224.77 505.333 224.507 505.193 224.2L504.565 222.866C504.424 222.553 504.198 222.285 503.913 222.094C503.627 221.903 503.293 221.795 502.949 221.784C502.605 221.773 502.264 221.859 501.967 222.031C501.669 222.204 501.426 222.456 501.266 222.76L500.009 225.157C499.852 225.451 499.618 225.697 499.331 225.868C499.044 226.039 498.716 226.129 498.382 226.128H492.149C491.738 226.13 491.338 225.993 491.015 225.741C490.691 225.489 490.462 225.136 490.364 224.738L488.869 218.772C488.786 218.439 488.611 218.137 488.364 217.898C488.117 217.66 487.807 217.495 487.471 217.423C487.135 217.35 486.785 217.373 486.461 217.489C486.138 217.604 485.853 217.808 485.639 218.077L476.654 229.396C476.401 229.717 476.046 229.945 475.647 230.041C475.248 230.138 474.828 230.098 474.455 229.928L468.68 227.33C468.378 227.189 468.043 227.132 467.711 227.167C467.379 227.201 467.063 227.324 466.795 227.524L464.728 229.045C464.629 229.119 464.539 229.203 464.458 229.296L459.004 235.312C458.821 235.521 458.592 235.686 458.335 235.795C458.078 235.903 457.8 235.952 457.521 235.938L453.959 235.712C453.765 235.701 453.57 235.718 453.381 235.763L450.17 236.583C449.804 236.678 449.417 236.658 449.063 236.526C448.708 236.394 448.404 236.155 448.191 235.844L447.826 235.306C447.652 235.053 447.417 234.848 447.142 234.709C446.868 234.57 446.563 234.502 446.255 234.51L442.674 234.617C442.26 234.624 441.863 234.774 441.549 235.043L440.669 235.775C440.461 235.949 440.217 236.075 439.954 236.144C439.691 236.213 439.415 236.223 439.148 236.173C438.881 236.124 438.628 236.016 438.407 235.857C438.187 235.698 438.005 235.493 437.873 235.255L436.943 233.578C436.717 233.168 436.341 232.859 435.894 232.716C435.446 232.573 434.961 232.606 434.537 232.808L428.511 235.694L421.845 239.124C421.627 239.236 421.389 239.303 421.145 239.321C420.901 239.339 420.656 239.309 420.424 239.231L415.115 237.478C414.876 237.4 414.624 237.37 414.374 237.39L404.094 238.26C403.745 238.296 403.414 238.429 403.136 238.642C402.859 238.855 402.646 239.142 402.523 239.469L401.034 243.613C400.944 243.862 400.801 244.089 400.615 244.278C400.429 244.466 400.204 244.613 399.955 244.707C399.707 244.801 399.441 244.84 399.176 244.822C398.911 244.804 398.653 244.729 398.42 244.602L398.357 244.571C397.976 244.36 397.531 244.292 397.104 244.379C396.676 244.467 396.294 244.703 396.026 245.047L394.858 246.537C394.547 246.925 394.095 247.175 393.601 247.232L390.384 247.576C390.202 247.594 390.025 247.638 389.856 247.708L384.76 249.88C384.531 249.974 384.286 250.023 384.038 250.024H381.587C381.287 250.024 380.992 249.951 380.727 249.811C380.462 249.671 380.235 249.469 380.067 249.223L379.715 248.709C379.494 248.388 379.177 248.146 378.808 248.016C378.44 247.887 378.04 247.877 377.666 247.989L371.955 249.711C371.563 249.828 371.143 249.813 370.761 249.667L368.109 248.653C367.909 248.574 367.696 248.532 367.481 248.528H361.788C361.542 248.527 361.298 248.579 361.072 248.678L355.417 251.069C355.02 251.24 354.574 251.265 354.16 251.138L351.364 250.306C351.092 250.225 350.805 250.207 350.525 250.255C350.244 250.303 349.979 250.414 349.749 250.581L348.524 251.476C348.153 251.747 347.694 251.869 347.237 251.819C346.78 251.769 346.358 251.551 346.055 251.207L345.873 251.001C345.626 250.719 345.298 250.52 344.934 250.43C344.571 250.339 344.188 250.361 343.837 250.493L339.281 252.228C338.876 252.375 338.431 252.375 338.025 252.228L336.027 251.514C335.662 251.388 335.267 251.377 334.896 251.483L333.011 252.027C332.598 252.146 332.156 252.117 331.763 251.945C331.369 251.774 331.048 251.471 330.855 251.088L330.152 249.68C329.998 249.375 329.763 249.119 329.473 248.94C329.182 248.761 328.847 248.666 328.505 248.665H326.872C326.658 248.669 326.445 248.635 326.243 248.565L319.904 246.349C319.676 246.268 319.434 246.233 319.192 246.245C318.951 246.258 318.714 246.319 318.496 246.424L313.865 248.64C313.616 248.758 313.343 248.82 313.067 248.822H307.218C306.97 248.823 306.724 248.872 306.495 248.966L305.301 249.479C304.928 249.637 304.512 249.668 304.119 249.567C303.726 249.467 303.378 249.24 303.127 248.922V248.922C302.955 248.702 302.735 248.523 302.484 248.401C302.232 248.278 301.956 248.214 301.676 248.215H298.722C298.297 248.214 297.884 248.36 297.554 248.628L295.838 250.03C295.486 250.321 295.037 250.47 294.579 250.446C294.122 250.423 293.69 250.23 293.369 249.905L292.979 249.517C292.728 249.264 292.408 249.09 292.059 249.016C291.71 248.941 291.346 248.97 291.013 249.097L289.304 249.755C288.836 249.928 288.319 249.91 287.865 249.705L281.852 246.925C281.746 246.874 281.634 246.837 281.519 246.812L276.8 245.654C276.428 245.561 276.036 245.588 275.679 245.729C275.323 245.871 275.02 246.121 274.814 246.443L271.849 251.051C271.735 251.228 271.652 251.422 271.604 251.627L270.705 255.539C270.597 255.986 270.329 256.378 269.951 256.641L267.991 257.981C267.752 258.145 267.478 258.25 267.19 258.287C266.903 258.324 266.611 258.292 266.338 258.194L262.304 256.766C261.882 256.618 261.421 256.628 261.006 256.794C260.591 256.959 260.25 257.27 260.049 257.668L257.925 261.625C257.785 261.891 257.712 262.188 257.711 262.488V264.273C257.709 264.673 257.577 265.063 257.333 265.381C257.089 265.7 256.748 265.93 256.36 266.038L252.829 267.015C252.454 267.12 252.055 267.103 251.692 266.965L248.613 265.806C248.353 265.707 248.073 265.668 247.796 265.694L242.487 266.176C242.204 266.203 241.918 266.164 241.653 266.062C241.388 265.96 241.151 265.797 240.96 265.587L240.331 264.892C240.07 264.6 239.719 264.402 239.332 264.329L236.913 263.841C236.666 263.794 236.412 263.797 236.166 263.85C235.92 263.902 235.687 264.004 235.481 264.147L232.295 266.407C232.01 266.607 231.675 266.724 231.327 266.746L226.445 267.002C226.261 267.014 226.079 267.052 225.905 267.115L217.429 270.245C217.191 270.335 216.937 270.373 216.684 270.358C216.431 270.343 216.183 270.275 215.958 270.158L213.508 268.905C213.249 268.774 212.963 268.705 212.672 268.705H203.561C203.141 268.705 202.733 268.561 202.405 268.298L200.2 266.539C199.887 266.29 199.501 266.149 199.101 266.137C198.701 266.126 198.308 266.245 197.982 266.476L195.619 268.154C195.38 268.324 195.185 268.549 195.051 268.809C194.917 269.069 194.846 269.358 194.846 269.65V287.249C194.846 287.735 195.04 288.202 195.386 288.546C195.731 288.89 196.199 289.083 196.687 289.083H518.765C519.253 289.083 519.722 288.89 520.067 288.546C520.412 288.202 520.606 287.735 520.606 287.249L520.518 218.528C520.522 218.194 520.435 217.865 520.266 217.577C520.097 217.289 519.852 217.052 519.558 216.893C519.264 216.733 518.932 216.656 518.597 216.671C518.263 216.685 517.938 216.79 517.659 216.975V216.975Z" fill="#15C95A"/>
<path d="M518.96 220.894C521.389 220.894 523.358 218.932 523.358 216.512C523.358 214.091 521.389 212.129 518.96 212.129C516.531 212.129 514.562 214.091 514.562 216.512C514.562 218.932 516.531 220.894 518.96 220.894Z" fill="#15C95A"/>
<path opacity="0.3" d="M518.677 259.865L512.702 261.85C512.587 261.889 512.477 261.942 512.375 262.006L509.095 264.166C508.856 264.321 508.576 264.4 508.291 264.392L506.249 264.342C506.059 264.338 505.871 264.295 505.699 264.216C505.526 264.138 505.371 264.025 505.243 263.884L503.987 262.507C503.862 262.37 503.711 262.258 503.542 262.18C503.373 262.101 503.191 262.056 503.005 262.049C502.819 262.041 502.633 262.071 502.459 262.135C502.284 262.2 502.124 262.299 501.989 262.426L499.871 264.404C499.614 264.649 499.272 264.786 498.916 264.786H491.577C491.315 264.788 491.059 264.716 490.836 264.578C490.614 264.441 490.435 264.244 490.32 264.01L488.643 260.673C488.555 260.499 488.432 260.345 488.281 260.221C488.131 260.097 487.956 260.006 487.767 259.954C487.579 259.901 487.382 259.888 487.189 259.916C486.995 259.944 486.81 260.012 486.645 260.116L476.258 266.67C475.944 266.867 475.565 266.932 475.203 266.852L468.09 265.256C467.827 265.194 467.551 265.211 467.298 265.306L464.703 266.263C464.635 266.285 464.57 266.314 464.508 266.351L458.772 269.519C458.55 269.639 458.301 269.7 458.049 269.694L453.802 269.556C453.728 269.55 453.655 269.55 453.582 269.556L449.497 270.076C449.142 270.119 448.783 270.028 448.492 269.819L447.663 269.193C447.418 269.013 447.119 268.918 446.815 268.924L442.335 268.987C442.155 268.987 441.978 269.023 441.813 269.093L439.802 269.938C439.556 270.04 439.286 270.07 439.024 270.024C438.761 269.979 438.517 269.86 438.319 269.682L436.673 268.229C436.505 268.079 436.303 267.971 436.084 267.915C435.865 267.86 435.636 267.858 435.417 267.91L428.543 269.563L421.474 271.385C421.283 271.425 421.086 271.425 420.896 271.385L414.927 270.395C414.83 270.389 414.734 270.389 414.638 270.395L403.598 270.89C403.386 270.899 403.179 270.957 402.993 271.057C402.807 271.158 402.646 271.3 402.523 271.472L400.858 273.757C400.692 273.989 400.458 274.165 400.188 274.26C399.919 274.355 399.626 274.366 399.35 274.289L397.572 273.801C397.383 273.751 397.185 273.741 396.991 273.771C396.798 273.802 396.612 273.871 396.447 273.976L394.669 275.109C394.464 275.236 394.231 275.309 393.99 275.322L390.22 275.529C390.149 275.523 390.078 275.523 390.007 275.529L384.565 276.687C384.468 276.707 384.369 276.717 384.27 276.718H381.078C380.782 276.718 380.494 276.624 380.255 276.449L379.426 275.823C379.28 275.715 379.113 275.636 378.936 275.592C378.759 275.548 378.576 275.539 378.395 275.567L371.603 276.581C371.447 276.606 371.288 276.606 371.132 276.581L367.94 275.955C367.852 275.945 367.764 275.945 367.676 275.955H361.55C361.453 275.945 361.357 275.945 361.261 275.955L355.046 277.269C354.88 277.301 354.71 277.301 354.544 277.269L350.843 276.712C350.61 276.681 350.372 276.706 350.152 276.787L347.777 277.651C347.585 277.722 347.381 277.75 347.178 277.733C346.975 277.716 346.778 277.653 346.602 277.551L345.477 276.925C345.191 276.757 344.854 276.699 344.528 276.762L338.873 277.833C338.705 277.864 338.532 277.864 338.364 277.833L335.643 277.351C335.496 277.329 335.345 277.329 335.197 277.351L332.194 277.783C331.979 277.815 331.76 277.797 331.554 277.73C331.347 277.663 331.16 277.548 331.006 277.395L330.014 276.449C329.748 276.191 329.392 276.045 329.021 276.042H326.639C326.56 276.049 326.48 276.049 326.401 276.042L319.451 274.828C319.263 274.787 319.068 274.787 318.879 274.828L313.627 276.08C313.519 276.105 313.41 276.118 313.3 276.117H306.973C306.876 276.108 306.78 276.108 306.683 276.117L304.541 276.574C304.18 276.674 303.794 276.629 303.466 276.449L302.876 276.067C302.65 275.925 302.389 275.848 302.122 275.848H298.295C298.114 275.849 297.935 275.885 297.767 275.955L295.091 277.044C294.906 277.121 294.707 277.157 294.508 277.149C294.308 277.141 294.113 277.091 293.935 277L292.515 276.286C292.239 276.149 291.925 276.105 291.622 276.161L288.82 276.7C288.629 276.74 288.432 276.74 288.242 276.7L281.745 275.197H281.6L276.077 274.515C275.709 274.473 275.34 274.577 275.047 274.803L271.905 277.232C271.729 277.367 271.589 277.544 271.497 277.745L270.793 279.304C270.714 279.475 270.6 279.629 270.46 279.756C270.32 279.883 270.155 279.98 269.976 280.043L267.563 280.863C267.34 280.944 267.099 280.963 266.866 280.919L261.5 279.968C261.286 279.931 261.066 279.944 260.858 280.006C260.65 280.068 260.459 280.177 260.3 280.324L258.17 282.309C258.03 282.44 257.919 282.598 257.843 282.774C257.767 282.949 257.729 283.138 257.73 283.329C257.73 283.666 257.608 283.99 257.386 284.244C257.164 284.497 256.858 284.661 256.524 284.707L252.496 285.264C252.346 285.289 252.193 285.289 252.044 285.264L248.399 284.575C248.291 284.563 248.181 284.563 248.072 284.575L241.984 284.851C241.728 284.861 241.474 284.802 241.249 284.682L240.181 284.099C240.017 284.006 239.835 283.948 239.647 283.93L236.448 283.611C236.236 283.589 236.021 283.615 235.82 283.686L232.05 285.02C231.911 285.069 231.764 285.097 231.616 285.101L226.257 285.245C226.184 285.239 226.11 285.239 226.037 285.245L216.957 286.917C216.761 286.957 216.557 286.957 216.36 286.917L213.269 286.128C213.154 286.101 213.036 286.086 212.917 286.084H203.172C202.993 286.086 202.816 286.052 202.65 285.984L199.597 284.769C199.277 284.647 198.923 284.647 198.604 284.769L195.764 285.777C195.492 285.872 195.256 286.049 195.089 286.284C194.922 286.518 194.833 286.798 194.834 287.086V287.712C194.833 287.895 194.868 288.076 194.938 288.246C195.008 288.415 195.11 288.569 195.24 288.699C195.37 288.828 195.524 288.931 195.693 289.001C195.863 289.072 196.045 289.108 196.229 289.108H519.192C519.376 289.108 519.558 289.072 519.728 289.001C519.897 288.931 520.051 288.828 520.181 288.699C520.31 288.569 520.413 288.415 520.483 288.246C520.553 288.076 520.588 287.895 520.587 287.712L520.505 261.249C520.514 261.025 520.469 260.801 520.372 260.598C520.276 260.395 520.132 260.219 519.953 260.083C519.773 259.947 519.564 259.856 519.342 259.818C519.12 259.781 518.892 259.797 518.677 259.865V259.865Z" fill="#15C95A"/>
<path d="M277.051 250.318C279.48 250.318 281.45 248.356 281.45 245.936C281.45 243.515 279.48 241.553 277.051 241.553C274.622 241.553 272.653 243.515 272.653 245.936C272.653 248.356 274.622 250.318 277.051 250.318Z" fill="#15C95A"/>
<path d="M488.171 222.772C490.601 222.772 492.57 220.81 492.57 218.39C492.57 215.969 490.601 214.007 488.171 214.007C485.742 214.007 483.773 215.969 483.773 218.39C483.773 220.81 485.742 222.772 488.171 222.772Z" fill="#15C95A"/>
<path d="M378.841 252.196C381.27 252.196 383.24 250.234 383.24 247.814C383.24 245.394 381.27 243.432 378.841 243.432C376.412 243.432 374.443 245.394 374.443 247.814C374.443 250.234 376.412 252.196 378.841 252.196Z" fill="#15C95A"/>
<path d="M436.02 236.545C438.449 236.545 440.418 234.583 440.418 232.163C440.418 229.743 438.449 227.781 436.02 227.781C433.591 227.781 431.621 229.743 431.621 232.163C431.621 234.583 433.591 236.545 436.02 236.545Z" fill="#15C95A"/>
<path d="M521.146 218.49C521.145 218.159 521.054 217.834 520.882 217.551C520.711 217.267 520.466 217.035 520.173 216.879C519.88 216.723 519.55 216.649 519.218 216.665C518.886 216.681 518.564 216.786 518.287 216.969L513.424 220.199C513.253 220.314 513.103 220.455 512.978 220.618L509.956 224.594C509.772 224.829 509.536 225.018 509.265 225.144C508.994 225.271 508.696 225.331 508.397 225.32L507.411 225.27C507.072 225.253 506.745 225.144 506.465 224.954C506.184 224.764 505.962 224.501 505.821 224.193L505.193 222.86C505.053 222.546 504.827 222.279 504.541 222.088C504.255 221.896 503.921 221.789 503.577 221.778C503.233 221.767 502.893 221.852 502.595 222.025C502.297 222.197 502.055 222.45 501.894 222.753L500.638 225.151C500.481 225.445 500.246 225.691 499.959 225.862C499.673 226.033 499.344 226.123 499.01 226.121H492.777C492.366 226.123 491.967 225.987 491.643 225.735C491.319 225.483 491.09 225.129 490.993 224.732L489.497 218.765C489.414 218.433 489.239 218.13 488.992 217.892C488.745 217.653 488.436 217.489 488.099 217.416C487.763 217.344 487.413 217.367 487.09 217.482C486.766 217.598 486.481 217.802 486.268 218.07L477.282 229.389C477.029 229.711 476.674 229.939 476.275 230.035C475.876 230.132 475.457 230.092 475.083 229.921L469.309 227.323C469.006 227.182 468.671 227.126 468.339 227.16C468.007 227.194 467.691 227.318 467.424 227.517L465.357 229.039C465.258 229.112 465.167 229.196 465.086 229.289L459.632 235.305C459.449 235.515 459.22 235.68 458.963 235.789C458.707 235.897 458.428 235.946 458.15 235.932L454.587 235.706C454.393 235.695 454.198 235.711 454.009 235.756L450.798 236.576C450.432 236.672 450.045 236.652 449.691 236.519C449.337 236.387 449.032 236.149 448.819 235.838L448.454 235.299C448.28 235.046 448.045 234.841 447.771 234.702C447.496 234.563 447.191 234.495 446.884 234.504L443.302 234.611C442.889 234.617 442.491 234.768 442.177 235.036L441.298 235.769C441.089 235.943 440.845 236.069 440.582 236.138C440.319 236.207 440.044 236.217 439.776 236.167C439.509 236.117 439.256 236.009 439.036 235.851C438.815 235.692 438.633 235.486 438.502 235.249L437.572 233.571C437.345 233.161 436.969 232.853 436.522 232.71C436.075 232.567 435.589 232.599 435.165 232.801L429.139 235.687L422.473 239.118C422.255 239.23 422.018 239.296 421.774 239.315C421.53 239.333 421.285 239.302 421.053 239.225L415.743 237.472C415.505 237.393 415.252 237.364 415.002 237.384L404.722 238.26C404.374 238.296 404.042 238.428 403.764 238.642C403.487 238.855 403.275 239.142 403.152 239.469L401.662 243.613C401.572 243.862 401.429 244.089 401.243 244.278C401.057 244.466 400.832 244.613 400.584 244.707C400.335 244.801 400.07 244.84 399.805 244.822C399.54 244.804 399.282 244.729 399.049 244.602L398.986 244.571C398.604 244.36 398.159 244.292 397.732 244.379C397.304 244.467 396.922 244.703 396.655 245.047L395.486 246.537C395.176 246.925 394.724 247.174 394.229 247.232L391.012 247.576C390.831 247.594 390.653 247.638 390.484 247.707L385.389 249.88C385.159 249.974 384.914 250.023 384.666 250.024H382.215C381.916 250.024 381.62 249.951 381.355 249.811C381.09 249.671 380.864 249.469 380.695 249.222L380.343 248.709C380.122 248.388 379.805 248.145 379.437 248.016C379.069 247.887 378.669 247.877 378.295 247.989L372.583 249.711C372.191 249.828 371.771 249.813 371.389 249.667L368.738 248.653C368.537 248.574 368.325 248.532 368.109 248.528H362.417C362.17 248.527 361.926 248.578 361.7 248.678L356.045 251.069C355.648 251.24 355.202 251.265 354.789 251.138L351.993 250.306C351.72 250.225 351.433 250.207 351.153 250.255C350.873 250.303 350.608 250.414 350.378 250.581L349.153 251.476C348.782 251.747 348.322 251.869 347.865 251.819C347.408 251.769 346.987 251.551 346.683 251.207L346.501 251C346.254 250.719 345.926 250.52 345.563 250.43C345.199 250.339 344.816 250.361 344.465 250.493L339.91 252.227C339.504 252.375 339.059 252.375 338.653 252.227L336.655 251.514C336.29 251.388 335.895 251.377 335.524 251.482L333.639 252.027C333.226 252.146 332.785 252.117 332.391 251.945C331.998 251.774 331.677 251.471 331.484 251.088L330.78 249.679C330.627 249.375 330.392 249.119 330.101 248.94C329.81 248.761 329.475 248.666 329.134 248.665H327.5C327.286 248.669 327.074 248.635 326.872 248.565L320.532 246.349C320.304 246.268 320.062 246.232 319.821 246.245C319.579 246.258 319.342 246.319 319.124 246.424L314.494 248.64C314.244 248.758 313.972 248.82 313.696 248.822H307.846C307.598 248.823 307.353 248.872 307.123 248.966L305.929 249.479C305.556 249.637 305.141 249.668 304.748 249.567C304.355 249.467 304.006 249.24 303.755 248.922C303.584 248.701 303.364 248.523 303.112 248.4C302.86 248.278 302.584 248.214 302.304 248.215H299.351C298.925 248.214 298.512 248.36 298.182 248.628L296.467 250.03C296.114 250.321 295.665 250.47 295.208 250.446C294.75 250.423 294.319 250.23 293.997 249.905L293.608 249.517C293.356 249.264 293.036 249.09 292.687 249.016C292.338 248.941 291.974 248.97 291.641 249.097L289.932 249.755C289.465 249.928 288.947 249.91 288.493 249.705L282.48 246.925C282.374 246.874 282.262 246.837 282.147 246.812L277.428 245.654C277.056 245.561 276.664 245.588 276.308 245.729C275.951 245.871 275.649 246.12 275.443 246.443L272.477 251.051C272.363 251.227 272.281 251.422 272.232 251.626L271.333 255.539C271.226 255.986 270.958 256.378 270.579 256.641L268.619 257.981C268.38 258.145 268.106 258.249 267.819 258.286C267.531 258.324 267.239 258.292 266.966 258.194L262.933 256.766C262.511 256.618 262.049 256.628 261.634 256.793C261.219 256.959 260.879 257.27 260.677 257.668L258.553 261.624C258.413 261.891 258.34 262.187 258.339 262.488V264.273C258.338 264.673 258.205 265.062 257.961 265.381C257.717 265.7 257.376 265.93 256.988 266.038L253.457 267.015C253.083 267.12 252.684 267.103 252.32 266.965L249.241 265.806C248.981 265.707 248.702 265.668 248.424 265.694L243.115 266.176C242.832 266.203 242.547 266.164 242.281 266.062C242.016 265.96 241.779 265.797 241.588 265.587L240.96 264.892C240.698 264.6 240.347 264.402 239.961 264.329L237.542 263.841C237.294 263.794 237.04 263.797 236.794 263.85C236.548 263.902 236.315 264.004 236.109 264.147L232.923 266.407C232.638 266.607 232.303 266.724 231.956 266.745L227.074 267.002C226.889 267.014 226.707 267.052 226.533 267.115L218.057 270.245C217.82 270.335 217.566 270.373 217.312 270.358C217.059 270.343 216.812 270.275 216.587 270.157L214.136 268.905C213.877 268.774 213.591 268.705 213.3 268.705H204.19C203.769 268.705 203.361 268.561 203.033 268.298L200.828 266.539C200.515 266.29 200.13 266.149 199.73 266.137C199.329 266.126 198.936 266.245 198.61 266.476L196.247 268.154C196.009 268.324 195.814 268.549 195.679 268.809C195.545 269.069 195.475 269.358 195.475 269.65" stroke="#15C95A" stroke-miterlimit="10"/>
<path opacity="0.2" d="M544.093 314.77H176.518V314.832H544.093V314.77Z" fill="#F2F2F2"/>
<path opacity="0.3" d="M233.068 317.931C234.803 317.931 236.21 316.53 236.21 314.801C236.21 313.072 234.803 311.671 233.068 311.671C231.333 311.671 229.926 313.072 229.926 314.801C229.926 316.53 231.333 317.931 233.068 317.931Z" fill="#15C95A"/>
<path opacity="0.3" d="M278.936 317.931C280.671 317.931 282.078 316.53 282.078 314.801C282.078 313.072 280.671 311.671 278.936 311.671C277.201 311.671 275.795 313.072 275.795 314.801C275.795 316.53 277.201 317.931 278.936 317.931Z" fill="#15C95A"/>
<path opacity="0.3" d="M324.805 317.931C326.54 317.931 327.946 316.53 327.946 314.801C327.946 313.072 326.54 311.671 324.805 311.671C323.07 311.671 321.663 313.072 321.663 314.801C321.663 316.53 323.07 317.931 324.805 317.931Z" fill="#15C95A"/>
<path opacity="0.3" d="M370.673 317.931C372.408 317.931 373.815 316.53 373.815 314.801C373.815 313.072 372.408 311.671 370.673 311.671C368.938 311.671 367.531 313.072 367.531 314.801C367.531 316.53 368.938 317.931 370.673 317.931Z" fill="#15C95A"/>
<path opacity="0.3" d="M416.541 317.931C418.276 317.931 419.683 316.53 419.683 314.801C419.683 313.072 418.276 311.671 416.541 311.671C414.806 311.671 413.4 313.072 413.4 314.801C413.4 316.53 414.806 317.931 416.541 317.931Z" fill="#15C95A"/>
<path opacity="0.3" d="M462.41 317.931C464.145 317.931 465.551 316.53 465.551 314.801C465.551 313.072 464.145 311.671 462.41 311.671C460.675 311.671 459.268 313.072 459.268 314.801C459.268 316.53 460.675 317.931 462.41 317.931Z" fill="#15C95A"/>
<path opacity="0.3" d="M508.278 317.931C510.013 317.931 511.42 316.53 511.42 314.801C511.42 313.072 510.013 311.671 508.278 311.671C506.543 311.671 505.136 313.072 505.136 314.801C505.136 316.53 506.543 317.931 508.278 317.931Z" fill="#15C95A"/>
<path d="M150.612 435.515C148.727 432.065 150.863 427.84 153.307 424.766C155.751 421.692 158.717 418.505 158.654 414.567C158.56 408.933 152.559 405.602 147.765 402.616C144.205 400.398 140.923 397.765 137.988 394.772C136.76 393.621 135.744 392.265 134.985 390.765C133.992 388.561 134.017 386.057 134.08 383.647C134.294 375.6 134.694 367.568 135.28 359.551" stroke="#3F3D56" stroke-width="4" stroke-miterlimit="10"/>
<path d="M126.163 359.125C126.23 357.653 126.668 356.222 127.437 354.964C128.205 353.705 129.28 352.66 130.562 351.925L132.534 355.813L132.472 351.105C133.415 350.83 134.398 350.711 135.381 350.755C137.116 350.84 138.788 351.436 140.183 352.467C141.579 353.498 142.638 354.918 143.225 356.548C143.812 358.177 143.901 359.944 143.482 361.624C143.062 363.304 142.153 364.823 140.868 365.988C139.584 367.154 137.981 367.915 136.263 368.174C134.545 368.434 132.788 368.18 131.215 367.446C129.641 366.712 128.321 365.53 127.421 364.049C126.521 362.568 126.081 360.855 126.157 359.125H126.163Z" fill="#57B894"/>
<path d="M141.89 418.593C142.815 420.379 144.329 421.795 146.176 422.602C148.024 423.408 150.094 423.558 152.039 423.026C153.984 422.493 155.687 421.31 156.861 419.676C158.035 418.041 158.61 416.054 158.489 414.048C158.367 412.041 157.558 410.137 156.195 408.655C154.833 407.173 153 406.202 151.005 405.905C149.01 405.609 146.973 406.005 145.236 407.027C143.498 408.049 142.166 409.635 141.463 411.519L146.974 415.982L140.91 414.586C140.912 415.98 141.248 417.354 141.89 418.593Z" fill="#57B894"/>
<path d="M146.245 401.533C148.436 401.688 150.606 401.019 152.327 399.66C154.049 398.301 155.198 396.35 155.548 394.189C155.899 392.029 155.426 389.816 154.221 387.985C153.017 386.155 151.169 384.84 149.041 384.298L149.091 387.917L147.093 383.979C145.936 383.923 144.779 384.094 143.689 384.485C142.599 384.875 141.597 385.476 140.74 386.253C139.884 387.03 139.19 387.968 138.698 389.013C138.207 390.058 137.927 391.19 137.875 392.343C137.824 393.357 137.951 394.372 138.252 395.342C138.782 397.068 139.834 398.59 141.265 399.698C142.696 400.806 144.435 401.447 146.245 401.533V401.533Z" fill="#57B894"/>
<path d="M124.837 387.341C126.191 387.39 127.538 387.128 128.773 386.574C130.008 386.019 131.098 385.188 131.958 384.146C132.818 383.103 133.424 381.876 133.73 380.561C134.036 379.247 134.033 377.879 133.721 376.566C133.41 375.252 132.798 374.028 131.933 372.989C131.069 371.95 129.976 371.124 128.738 370.575C127.501 370.026 126.153 369.769 124.799 369.825C123.446 369.88 122.124 370.246 120.935 370.895L122.494 375.152L119.289 372.084C117.572 373.651 116.548 375.833 116.443 378.15C116.401 378.964 116.475 379.78 116.663 380.573C117.103 382.433 118.139 384.099 119.613 385.32C121.088 386.541 122.922 387.25 124.837 387.341V387.341Z" fill="#57B894"/>
<path opacity="0.1" d="M127.351 361.466C129.387 361.685 131.366 362.318 133.408 362.443C135.45 362.568 137.693 362.08 138.987 360.502C139.679 359.651 140.031 358.568 140.615 357.641C141.173 356.775 141.937 356.058 142.839 355.556C143.371 356.665 143.664 357.872 143.697 359.1C143.731 360.328 143.505 361.549 143.034 362.684C142.564 363.82 141.859 364.844 140.965 365.69C140.072 366.537 139.01 367.187 137.848 367.598C136.686 368.009 135.451 368.172 134.221 368.077C132.992 367.982 131.797 367.63 130.713 367.045C129.629 366.46 128.68 365.654 127.929 364.68C127.178 363.706 126.64 362.585 126.352 361.391C126.687 361.404 127.02 361.429 127.351 361.466Z" fill="black"/>
<path opacity="0.1" d="M124.837 387.341C126.358 387.418 127.873 387.1 129.234 386.418C130.594 385.737 131.754 384.715 132.6 383.453C133.445 382.191 133.947 380.732 134.057 379.219C134.167 377.706 133.88 376.19 133.226 374.82C132.526 375.289 131.924 375.888 131.454 376.585C130.825 377.531 130.442 378.62 129.707 379.49C128.331 381.099 125.987 381.625 123.857 381.531C121.727 381.437 119.673 380.83 117.574 380.636C117.279 380.636 116.983 380.592 116.682 380.586C117.123 382.44 118.157 384.101 119.628 385.319C121.099 386.538 122.927 387.247 124.837 387.341V387.341Z" fill="black"/>
<path opacity="0.1" d="M146.245 401.533C147.755 401.611 149.259 401.3 150.614 400.63C151.968 399.96 153.126 398.954 153.976 397.708C154.826 396.462 155.34 395.019 155.467 393.517C155.594 392.016 155.33 390.508 154.702 389.137C153.97 389.614 153.332 390.218 152.817 390.922C152.132 391.886 151.705 392.994 150.932 393.883C149.443 395.536 146.942 396.118 144.693 396.062C142.443 396.005 140.401 395.486 138.233 395.317C138.76 397.051 139.813 398.58 141.248 399.693C142.683 400.806 144.428 401.449 146.245 401.533V401.533Z" fill="black"/>
<path opacity="0.1" d="M141.89 418.593C142.844 420.717 144.606 422.377 146.789 423.207C148.971 424.037 151.395 423.97 153.527 423.019C155.659 422.069 157.325 420.313 158.158 418.139C158.991 415.964 158.923 413.549 157.969 411.425C157.242 411.897 156.589 412.475 156.034 413.14C155.192 414.161 154.639 415.319 153.672 416.27C151.868 418.036 148.959 418.774 146.364 418.831C144.87 418.837 143.376 418.757 141.89 418.593V418.593Z" fill="black"/>
<path d="M163.913 431.546C163.913 431.546 156.952 431.333 154.853 429.843C152.754 428.353 144.171 426.581 143.631 428.967C143.09 431.352 133.169 440.861 141.023 440.899C148.877 440.937 159.283 439.678 161.381 438.395C163.48 437.111 163.913 431.546 163.913 431.546Z" fill="#656380"/>
<path opacity="0.2" d="M140.885 440.066C148.745 440.129 159.144 438.852 161.237 437.562C162.833 436.592 163.467 433.117 163.681 431.521H163.913C163.913 431.521 163.474 437.111 161.4 438.407C159.327 439.703 148.903 440.962 141.042 440.911C138.774 440.911 137.995 440.091 138.039 438.902C138.334 439.603 139.195 440.054 140.885 440.066Z" fill="black"/>
<path d="M602.553 354.486C602.096 355.793 601.922 357.182 602.044 358.561C602.35 359.939 602.998 361.218 603.929 362.28C604.396 363.02 605.121 363.562 605.965 363.801C606.403 363.842 606.843 363.763 607.238 363.572C607.634 363.381 607.969 363.086 608.208 362.718C608.68 361.978 608.961 361.133 609.025 360.258C609.202 357.928 609.086 355.585 608.68 353.284C608.416 351.349 608.347 349.221 607.831 347.349C606.499 347.349 604.96 347.105 604.218 348.369C603.27 350.016 603.043 352.645 602.553 354.486Z" fill="#FFC0C6"/>
<path d="M609.842 320.022C609.515 320.942 609.056 321.819 608.755 322.752C608.467 323.723 608.257 324.715 608.127 325.719C607.194 331.614 605.935 337.454 604.357 343.211C603.795 344.902 603.478 346.664 603.414 348.445L607.008 348.319C607.346 348.266 607.692 348.342 607.976 348.532C608.284 348.808 608.491 349.415 608.881 349.258C609.554 345.818 610.026 342.342 610.294 338.847C610.439 336.343 610.37 333.889 610.533 331.416C610.847 326.489 612.317 320.873 610.395 316.109C610.467 317.437 610.279 318.766 609.842 320.022V320.022Z" fill="#3F3D56"/>
<path opacity="0.1" d="M609.842 320.022C609.515 320.942 609.056 321.819 608.755 322.752C608.467 323.723 608.257 324.715 608.127 325.719C607.194 331.614 605.935 337.454 604.357 343.211C603.795 344.902 603.478 346.664 603.414 348.445L607.008 348.319C607.346 348.266 607.692 348.342 607.976 348.532C608.284 348.808 608.491 349.415 608.881 349.258C609.554 345.818 610.026 342.342 610.294 338.847C610.439 336.343 610.37 333.889 610.533 331.416C610.847 326.489 612.317 320.873 610.395 316.109C610.467 317.437 610.279 318.766 609.842 320.022V320.022Z" fill="black"/>
<path d="M614.31 290.51C613.43 291.261 613.128 292.463 612.871 293.59L610.785 302.743C610.307 304.834 609.829 306.925 609.528 309.047C608.208 317.912 609.735 327.027 608.271 335.867C607.847 337.837 607.566 339.836 607.429 341.846C607.366 345.527 608.793 349.189 608.202 352.821C608.004 353.465 608.004 354.154 608.202 354.799C608.504 355.425 609.522 355.625 609.804 355.018C609.855 354.907 609.887 354.789 609.899 354.667L612.073 341.001C612.594 337.752 613.109 334.452 612.751 331.178C612.506 328.949 611.853 326.721 612.211 324.504C612.447 323.407 612.768 322.329 613.172 321.28C615.271 315.02 614.982 308.215 613.801 301.741C613.562 300.801 613.494 299.826 613.6 298.862C613.889 297.278 615.12 296.063 615.949 294.686C616.578 293.647 617.659 291.362 617.206 290.11C616.741 288.645 615.195 289.753 614.31 290.51Z" fill="#3F3D56"/>
<path d="M617.79 422.844C617.501 422.813 617.209 422.865 616.948 422.994C616.728 423.153 616.557 423.37 616.452 423.62C615.755 425.054 615.264 426.713 613.939 427.639C613.271 428.055 612.539 428.356 611.771 428.528L605.865 430.206C605.104 430.419 604.237 430.732 603.98 431.458C603.722 432.184 604.275 433.073 604.985 433.499C606.041 434 607.211 434.216 608.378 434.125L616.93 434.25C617.742 434.308 618.558 434.225 619.342 434.006C620.341 433.656 621.183 432.86 622.233 432.754C623.087 432.66 623.91 433.03 624.746 433.217C626.486 433.599 628.29 433.217 630.018 432.779C630.331 432.736 630.624 432.596 630.853 432.378C631.041 432.107 631.132 431.781 631.111 431.452C631.18 429.993 631.205 428.541 631.199 427.07C631.199 425.749 631.042 424.215 629.942 423.489C629.436 423.2 628.872 423.027 628.29 422.982C624.784 422.537 621.322 422.869 617.79 422.844Z" fill="#575A88"/>
<path d="M640.417 441.381C640.175 441.95 639.87 442.49 639.506 442.99L635.905 448.424C634.435 450.634 632.914 453 632.814 455.649C635.214 456.569 637.791 456.94 640.354 456.732C641.637 456.699 642.886 456.311 643.961 455.611C645.506 454.478 646.116 452.481 646.618 450.653C646.654 450.409 646.777 450.187 646.964 450.027C647.284 449.808 647.718 450.027 648.108 449.945C648.906 449.845 649.182 448.843 649.239 448.067C649.398 445.591 649.186 443.106 648.61 440.692C648.566 440.391 648.433 440.11 648.227 439.885C647.988 439.706 647.702 439.6 647.404 439.578C645.607 439.271 643.81 438.914 642.006 438.651C639.625 438.269 641.089 439.672 640.417 441.381Z" fill="#575A88"/>
<path d="M610.684 344.55C608.944 346.754 608.384 349.697 608.516 352.495C608.648 355.293 609.421 358.023 610.068 360.753C611.13 365.195 611.898 369.702 612.368 374.244C612.442 375.515 612.653 376.774 612.996 378C613.304 378.952 613.782 379.841 614.058 380.799C614.398 381.963 614.429 383.203 614.743 384.373C615.168 385.638 615.71 386.86 616.364 388.023C619.236 393.87 619.851 400.544 619.902 407.055C619.902 408.814 619.902 410.567 620.065 412.314C620.43 415.857 621.529 419.826 619.399 422.681C619.939 424.622 622.541 424.991 624.526 424.734C626.86 424.445 629.142 423.834 631.306 422.919C630.678 421.592 629.76 420.045 629.804 418.537C629.937 417.357 630.237 416.201 630.697 415.106C631.834 411.663 631.953 407.981 632.016 404.357C632.062 403.238 632.045 402.118 631.966 401.001C631.855 399.97 631.687 398.946 631.463 397.933L629.031 385.794C628.605 383.662 628.547 381.473 628.862 379.321C629.319 376.77 630.187 374.309 631.432 372.034C634.341 366.18 635.346 359.582 635.918 353.071C636.226 349.515 636.301 345.558 634.033 342.798C632.631 341.203 630.733 340.123 628.642 339.73C626.57 339.353 624.454 339.271 622.359 339.486C618.155 339.836 613.292 341.257 610.684 344.55Z" fill="#3F3D56"/>
<path d="M611.193 346.109C610.389 348.801 612.387 351.425 613.417 354.041C614.008 355.55 614.303 357.172 615.208 358.543C616.326 360.214 618.249 361.203 619.462 362.812C620.674 364.421 621.026 366.306 621.975 367.977C622.924 369.649 624.488 371.039 625.368 372.779C626.7 375.377 626.505 378.495 627.442 381.262C628.108 383.246 629.358 385.018 629.842 387.065C630.055 387.986 630.112 388.943 630.351 389.845C630.91 391.999 632.443 393.877 632.6 396.105C632.701 397.564 632.211 399.167 632.984 400.406C633.448 401.164 634.29 401.608 634.869 402.284C635.291 402.9 635.596 403.587 635.767 404.313L637.024 408.413C638.236 412.395 638.375 416.508 639.537 420.509C640.699 424.509 641.523 428.835 640.165 432.779C639.619 434.413 638.708 436.091 639.166 437.75C639.362 438.337 639.683 438.874 640.109 439.323C640.534 439.773 641.053 440.125 641.629 440.354C642.789 440.798 644.019 441.029 645.261 441.037C646.926 441.124 648.717 441.037 650.093 440.116C649.417 435.088 649.148 430.013 649.289 424.941C649.446 421.636 649.917 418.343 649.917 415.031C649.847 412.934 649.648 410.843 649.32 408.77C648.944 405.669 648.279 402.609 647.335 399.63C646.808 398.299 646.367 396.935 646.015 395.548C645.814 394.603 645.751 393.633 645.613 392.675C645.475 391.717 645.267 390.797 645.06 389.814L644.218 385.945C644.03 385.093 643.514 384.348 643.477 383.478L643.219 377.844C642.804 368.616 642.402 359.238 644.633 350.298C643.332 346.454 641.139 342.403 637.401 340.794C635.862 340.182 634.219 339.869 632.562 339.874C624.928 339.636 618.092 342.898 611.193 346.109Z" fill="#3F3D56"/>
<path d="M616.898 283.004C617.257 283.237 617.586 283.513 617.878 283.824C618.227 284.25 618.503 284.73 618.695 285.245C619.406 286.96 619.831 288.778 619.952 290.629C624.029 287.777 627.78 284.487 631.136 280.819C629.635 280.932 628.252 279.861 627.536 278.547C626.905 277.184 626.543 275.713 626.468 274.214C626.43 273.933 622.553 275.573 622.239 275.742C620.857 276.493 619.562 277.388 618.211 278.19C617.563 278.585 616.894 278.946 616.207 279.273C615.579 279.561 614.586 279.692 614.065 280.105C612.676 281.22 616.044 282.409 616.898 283.004Z" fill="#FFC0C6"/>
<path d="M616.27 287.242C616.113 288.451 616.32 289.684 616.138 290.886C615.88 292.62 614.881 294.129 614.127 295.719C612.066 300.183 612.242 305.297 612.148 310.206C612.054 315.577 611.608 320.93 611.155 326.282L610.332 336.08C610.188 337.77 610.043 339.473 609.704 341.145C609.525 341.849 609.438 342.572 609.446 343.298C609.553 344.171 609.812 345.019 610.213 345.803C610.587 346.845 611.185 347.794 611.966 348.582C612.364 348.968 612.874 349.219 613.423 349.299C613.973 349.379 614.534 349.284 615.026 349.027L615.767 346.804C615.794 347.693 616.155 348.54 616.779 349.177C617.403 349.813 618.244 350.193 619.135 350.241C619.775 350.219 620.41 350.109 621.02 349.916L626.832 348.344C628.089 348.061 629.311 347.641 630.476 347.092C632.99 345.759 634.674 343.255 635.579 340.575C636.483 337.896 636.666 335.047 636.772 332.23C637.005 325.725 636.829 319.158 635.447 312.822C634.869 310.162 634.077 307.545 633.599 304.865C633.044 301.25 632.771 297.598 632.782 293.941L632.581 284.888C632.636 283.765 632.445 282.644 632.022 281.602C631.8 281.087 631.42 280.656 630.937 280.37C630.454 280.083 629.893 279.955 629.333 280.005C627.592 280.331 627.184 282.566 626.241 284.062C625.437 285.345 624.086 286.172 622.786 286.954C621.931 287.468 620.863 287.993 619.983 287.518C619.104 287.042 619.11 285.508 618.205 285.114C617.005 284.469 616.377 286.316 616.27 287.242Z" fill="#F2F2F2"/>
<path d="M624.595 289.784C622.949 293.979 622.082 298.43 621.253 302.862C620.379 307.639 619.594 312.541 620.392 317.33C621.9 326.389 628.799 333.707 631.149 342.585C631.557 344.125 631.827 345.715 632.406 347.205C633.304 349.709 634.919 351.838 636.509 353.947C637.363 355.081 638.626 356.351 639.971 355.894C640.97 355.55 641.41 354.417 642.17 353.678C643.232 352.645 644.859 352.464 646.342 352.533C647.825 352.601 649.345 352.871 650.784 352.533C652.223 352.195 653.593 350.911 653.448 349.402C653.354 348.457 652.688 347.687 652.192 346.898C650.747 344.745 650.194 342.128 649.773 339.567C647.354 324.799 648.434 309.617 645.865 294.874C645.544 292.996 645.142 291.117 644.08 289.577C643.557 288.923 643.073 288.24 642.629 287.53C642.226 286.76 642.05 285.865 641.523 285.17C640.769 284.181 639.474 283.812 638.287 283.43C636.671 282.91 635.101 282.259 633.593 281.483C632.45 280.894 630.828 279.266 629.672 280.043C628.516 280.819 627.643 283.53 627.021 284.707C626.117 286.352 625.307 288.047 624.595 289.784V289.784Z" fill="#3F3D56"/>
<path d="M629.572 350.817C628.679 351.024 627.731 350.742 626.832 350.942C625.356 351.281 624.507 352.777 623.841 354.129C623.596 354.547 623.444 355.012 623.395 355.494C623.378 355.734 623.439 355.973 623.567 356.177C623.696 356.381 623.887 356.538 624.111 356.627C624.361 356.663 624.615 356.631 624.847 356.532C625.078 356.434 625.278 356.274 625.425 356.07C625.713 355.66 626.05 355.288 626.43 354.962C627.473 354.267 628.893 355.006 629.704 355.957C630.514 356.909 631.124 358.104 632.217 358.674C632.85 358.956 633.529 359.121 634.221 359.162C634.947 359.281 635.688 359.281 636.414 359.162C636.779 359.104 637.125 358.96 637.424 358.743C637.722 358.525 637.964 358.24 638.13 357.91C638.29 357.478 638.36 357.018 638.337 356.558L638.444 350.298C638.487 349.931 638.412 349.561 638.23 349.24C638.01 348.985 637.719 348.802 637.394 348.714C636.226 348.269 633.693 346.761 632.519 347.518C631.205 348.445 631.457 350.385 629.572 350.817Z" fill="#FFC0C6"/>
<path d="M617.501 282.904C623.651 282.904 628.635 277.937 628.635 271.81C628.635 265.684 623.651 260.717 617.501 260.717C611.352 260.717 606.367 265.684 606.367 271.81C606.367 277.937 611.352 282.904 617.501 282.904Z" fill="#FFC0C6"/>
<path d="M616.408 270.602C616.324 270.202 616.13 269.833 615.848 269.536C615.567 269.238 615.208 269.025 614.812 268.918C614.504 268.894 614.197 268.85 613.895 268.786C612.845 268.43 612.871 266.833 611.972 266.195C611.287 265.713 610.345 265.963 609.597 266.326C608.849 266.689 608.095 267.178 607.266 267.134C606.747 267.067 606.264 266.836 605.886 266.475C605.509 266.115 605.257 265.644 605.167 265.13C605.011 264.096 605.211 263.039 605.733 262.132C607.404 258.864 610.904 256.992 614.291 255.564C615.758 254.884 617.315 254.414 618.915 254.168C620.527 253.926 622.173 254.275 623.546 255.151C623.979 255.452 624.357 255.815 624.803 256.096C625.241 256.354 625.694 256.586 626.16 256.791C630.634 259.026 632.965 264.636 631.739 269.475C631.312 271.159 630.483 272.743 630.225 274.452C630.189 274.916 630.07 275.37 629.873 275.792C629.302 276.794 627.913 276.887 626.732 276.856C626.417 276.883 626.102 276.809 625.833 276.643C625.588 276.398 625.431 276.079 625.387 275.736C624.922 273.857 624.193 271.935 622.666 270.727C621.849 270.101 620.53 269.776 619.864 270.571C619.597 270.991 619.386 271.443 619.236 271.917C618.909 272.587 617.903 273.344 617.093 273.169C615.956 272.9 616.678 271.647 616.408 270.602Z" fill="#3F3D56"/>
<path opacity="0.1" d="M643.829 285.414C642.49 285.258 642.233 292.244 640.882 292.251C640.498 292.251 640.568 290.779 640.253 290.999C639.939 291.218 641.064 296.007 640.882 296.383C640.197 297.791 641.56 291.806 640.882 293.215C639.983 295.055 640.392 295.656 639.927 297.653C638.896 302.036 633.763 305.216 634.806 309.586C636.021 314.368 636.907 319.227 637.457 324.129C637.642 325.694 637.669 327.273 637.539 328.843C637.181 332.249 635.616 335.398 634.039 338.447C632.657 341.113 631.249 343.768 630.125 346.548C629.766 347.223 629.655 348.003 629.81 348.751C630.275 350.16 632.148 350.31 633.58 350.717C636.515 351.55 639.022 354.473 642 353.791C643.332 349.759 643.175 345.508 644.338 341.42C645.531 337.232 648.321 333.588 649.226 329.331C649.54 327.571 649.692 325.785 649.678 323.997L650.118 304.246C650.176 303.072 650.136 301.895 649.999 300.727C649.782 299.528 649.465 298.349 649.05 297.203L646.75 290.316C646.147 288.476 645.72 285.64 643.829 285.414Z" fill="black"/>
<path d="M644.784 285.414C643.443 285.258 642.094 285.182 640.744 285.189C640.349 285.123 639.944 285.206 639.607 285.423C639.271 285.64 639.029 285.974 638.928 286.36L636.873 290.573C635.911 292.384 635.151 294.294 634.605 296.27C633.574 300.652 634.718 305.204 635.761 309.573C636.976 314.355 637.862 319.214 638.412 324.116C638.597 325.681 638.624 327.26 638.494 328.83C638.136 332.236 636.571 335.385 634.994 338.434C633.612 341.101 632.204 343.755 631.08 346.535C630.718 347.21 630.607 347.99 630.766 348.739C631.231 350.147 633.103 350.298 634.536 350.705C637.47 351.537 639.977 354.461 642.955 353.778C644.287 349.747 644.13 345.496 645.293 341.408C646.487 337.22 649.276 333.576 650.181 329.319C650.495 327.558 650.647 325.773 650.634 323.985L651.067 304.233C651.131 303.059 651.091 301.882 650.948 300.715C650.736 299.515 650.421 298.336 650.005 297.19L647.705 290.304C647.102 288.476 646.675 285.64 644.784 285.414Z" fill="#3F3D56"/>
</g>
<defs>
<clipPath id="clip0">
<rect width="715" height="464" fill="white"/>
</clipPath>
</defs>
</svg>
