<svg width="199" height="359" viewBox="0 0 199 359" fill="none" xmlns="http://www.w3.org/2000/svg">
<path d="M49.7454 214.255L53.8861 212.141C54.2809 211.941 54.671 211.722 55.0663 211.517C46.801 209.384 39.5079 204.514 34.3854 197.707C29.2629 190.9 26.6158 182.56 26.8792 174.058C27.1426 165.557 30.3008 157.399 35.8347 150.926C41.3686 144.452 48.9491 140.049 57.3303 138.439L55.8626 153.814L65.7326 137.777L65.8391 137.786C70.7749 137.964 75.6277 139.108 80.1205 141.155C84.6132 143.201 88.658 146.109 92.0237 149.713C95.3894 153.317 98.0101 157.545 99.7362 162.157C101.462 166.769 102.26 171.674 102.084 176.591C102.062 177.306 101.966 178.008 101.908 178.713C105.135 175.6 108.119 172.222 110.218 168.426C114.466 160.743 115.284 151.702 115.911 140.691C117.15 118.864 118.02 96.8427 118.603 74.8668C109.824 73.1507 101.944 68.373 96.3789 61.3914C90.8138 54.4097 87.9274 45.6815 88.2382 36.7738C88.2826 35.6279 88.3948 34.5002 88.5185 33.386C88.5418 33.1052 88.565 32.8245 88.6316 32.5536C88.7965 31.4742 88.9855 30.4093 89.2423 29.3627C89.2568 29.188 89.3334 29.0247 89.3786 28.8588C89.6032 27.9728 89.8644 27.1024 90.1501 26.2403C90.2584 25.9226 90.3646 25.6299 90.4817 25.2815C90.8231 24.3549 91.1876 23.4554 91.6037 22.5412C91.7417 22.2448 91.8995 21.9375 92.0423 21.6604C92.3615 21.0021 92.7053 20.3521 93.0669 19.7161C93.2586 19.3802 93.4441 19.0438 93.6478 18.7151C93.6989 18.6314 93.7379 18.5404 93.7952 18.4572C98.3946 10.9985 105.473 5.38381 113.8 2.5895C122.127 -0.204803 131.175 -0.00188447 139.371 3.16297L137.463 23.1699L147.223 7.31801C153.8 11.8272 158.759 18.3119 161.376 25.8257C163.994 33.3394 164.133 41.4887 161.774 49.0839L161.812 49.087C161.733 49.3507 161.631 49.5935 161.546 49.8566C161.386 50.3396 161.221 50.8159 161.043 51.2912C160.816 51.9006 160.564 52.5079 160.306 53.1147C160.111 53.5572 159.923 54.0065 159.71 54.4474C159.398 55.0876 159.057 55.7063 158.716 56.3251C158.516 56.6855 158.334 57.0599 158.122 57.413C157.565 58.3427 156.97 59.242 156.335 60.1108C156.114 60.4192 155.87 60.7005 155.631 61.0011C155.178 61.5918 154.726 62.1826 154.227 62.7255C153.927 63.0714 153.61 63.3969 153.299 63.7355C152.842 64.2191 152.38 64.696 151.92 65.1542C151.584 65.4844 151.237 65.7949 150.889 66.1116C150.392 66.5542 149.877 66.9828 149.351 67.4041C149.006 67.6834 148.673 67.9762 148.292 68.2336C147.701 68.6747 147.086 69.095 146.466 69.5022C146.153 69.7025 145.845 69.922 145.526 70.1217C144.585 70.672 143.619 71.2203 142.625 71.7348C142.44 71.8326 142.239 71.9039 142.054 71.9954C141.221 72.3913 140.383 72.7617 139.523 73.0989C139.152 73.2441 138.776 73.3637 138.4 73.4959C137.698 73.7457 136.989 74.0074 136.268 74.1864C135.848 74.3087 135.423 74.418 134.979 74.5258C134.271 74.6996 133.552 74.8537 132.83 74.9761C132.407 75.0542 131.978 75.138 131.55 75.2031C130.771 75.3209 129.976 75.4058 129.176 75.4778L129.025 75.4654C128.775 84.7376 128.47 94.0075 128.111 103.275C130.722 98.8857 134.205 95.075 138.348 92.0769C142.491 89.0788 147.206 86.9565 152.203 85.8405C157.2 84.7244 162.374 84.6381 167.408 85.5868C172.441 86.5355 177.227 88.4993 181.471 91.3574L173.349 108.903L188.06 96.9909C194.816 104.252 198.405 113.888 198.037 123.779C197.926 127.251 197.319 130.689 196.234 133.989C193.918 141.132 189.501 147.415 183.556 152.025C177.611 156.634 170.412 159.356 162.893 159.838C155.374 160.32 147.881 158.54 141.387 154.729C134.893 150.917 129.697 145.25 126.473 138.462C126.396 139.398 126.387 140.34 126.328 141.283C125.776 151 125.091 163.092 119.346 173.465C115.455 180.493 109.679 185.983 104.036 190.868C100.349 194.05 96.5468 197.102 92.6657 200.041C88.7179 204.509 83.7586 207.974 78.1981 210.151C71.8844 214.221 65.3805 217.998 58.6973 221.428L54.5239 223.558C50.7723 225.465 46.928 227.427 43.1515 229.483C43.7829 229.472 44.4147 229.456 45.0435 229.476C53.0209 229.765 60.7011 232.574 66.9738 237.497C73.2464 242.42 77.7866 249.202 79.9379 256.863L54.9473 273.911L81.2014 270.09C80.6709 276.405 78.5428 282.481 75.0159 287.752C71.489 293.023 66.6784 297.317 61.0333 300.232C55.3883 303.147 49.093 304.588 42.7354 304.422C36.3778 304.255 30.1654 302.485 24.6783 299.279C25.1945 300.05 25.7153 300.818 26.2405 301.581C27.2747 303.103 28.2949 304.616 29.3012 306.119C42.9516 326.609 45.6798 345.222 36.9824 358.517L28.2113 352.816C36.6774 339.878 27.0665 321.62 20.5835 311.887C19.5967 310.402 18.5932 308.916 17.573 307.429C8.83312 294.569 -1.06979 279.992 0.58615 263.256C3.0861 237.996 28.9594 224.835 49.7454 214.255Z" fill="#15C95A"/>
</svg>
