<svg width="630" height="652" viewBox="0 0 630 652" fill="none" xmlns="http://www.w3.org/2000/svg">
<g clip-path="url(#clip0)">
<path opacity="0.4" d="M147.85 568.084C156.741 568.084 163.948 561.404 163.948 553.164C163.948 544.924 156.741 538.244 147.85 538.244C138.959 538.244 131.752 544.924 131.752 553.164C131.752 561.404 138.959 568.084 147.85 568.084Z" fill="#15C95A"/>
<path opacity="0.4" d="M118.056 570.756C124.293 570.756 129.349 566.07 129.349 560.29C129.349 554.509 124.293 549.824 118.056 549.824C111.82 549.824 106.764 554.509 106.764 560.29C106.764 566.07 111.82 570.756 118.056 570.756Z" fill="#15C95A"/>
<path d="M572.922 349.261C588.473 312.924 594.819 273.763 591.47 234.795C588.122 195.827 575.168 158.091 553.606 124.494L113.289 181L535.254 99.4943C509.581 68.5172 476.562 43.4311 438.751 26.178C400.941 8.92501 359.354 -0.0321306 317.21 -5.44415e-06C165.259 -5.44415e-06 42.0788 114.167 42.0788 255C42.0818 266.639 42.9374 278.265 44.6395 289.797L572.922 349.261Z" fill="#F2F2F2"/>
<path d="M60.4689 346.81C100.237 442.274 200.183 510 317.21 510C427.022 510 521.796 450.366 565.922 364.139L60.4689 346.81Z" fill="#F2F2F2"/>
<path d="M114.368 124C121.519 124 127.315 118.627 127.315 112C127.315 105.373 121.519 100 114.368 100C107.217 100 101.421 105.373 101.421 112C101.421 118.627 107.217 124 114.368 124Z" fill="#3F3D56"/>
<path d="M580.472 264C587.622 264 593.419 258.627 593.419 252C593.419 245.373 587.622 240 580.472 240C573.321 240 567.524 245.373 567.524 252C567.524 258.627 573.321 264 580.472 264Z" fill="#15C95A"/>
<path d="M134.868 339H113.289V359H134.868V339Z" fill="#15C95A"/>
<path d="M289.157 193C289.157 193 324.762 178.621 341.486 193.81C358.209 209 296.71 204 289.157 193Z" fill="#3F3D56"/>
<path d="M350.638 124.805C338.672 106.066 315 105.193 315 105.193C315 105.193 291.932 102.459 277.135 130.998C263.342 157.598 244.307 183.282 274.07 189.509L279.446 174L282.776 190.663C287.014 190.946 291.265 191.013 295.511 190.865C327.385 189.911 357.74 191.144 356.763 180.543C355.464 166.451 362.151 142.835 350.638 124.805Z" fill="#2F2E41"/>
<path d="M317.749 411C351.119 411 378.17 405.18 378.17 398C378.17 390.82 351.119 385 317.749 385C284.379 385 257.328 390.82 257.328 398C257.328 405.18 284.379 411 317.749 411Z" fill="#3F3D56"/>
<path d="M366.222 557.506L307.959 561.5L308.118 563.494L366.381 559.501L366.222 557.506Z" fill="#2F2E41"/>
<path d="M269.716 550.624L268.677 552.376L290.256 563.376L291.295 561.624L269.716 550.624Z" fill="#2F2E41"/>
<path d="M330.696 543.5H311.275V545.5H330.696V543.5Z" fill="#2F2E41"/>
<path d="M260.563 650.568L258.409 650.432L274.593 418.432L276.747 418.568L260.563 650.568Z" fill="#2F2E41"/>
<path d="M340.408 650.549L329.618 422.549L331.774 422.451L342.564 650.451L340.408 650.549Z" fill="#2F2E41"/>
<path d="M361.983 420.418L359.832 420.582L380.331 650.582L382.482 650.418L361.983 420.418Z" fill="#2F2E41"/>
<path d="M367.38 464.5C367.38 464.5 352.275 490.5 342.565 490.5C332.854 490.5 333.933 507.5 336.091 511.5C338.249 515.5 343.644 524.5 335.012 537.5C331.997 542.041 332.536 547.192 334.515 551.973C340.058 565.368 361.622 561.309 360.934 546.977C360.927 546.819 360.917 546.66 360.907 546.5C359.828 530.5 368.459 505.5 377.091 499.5C385.722 493.5 393.275 477.5 393.275 477.5L367.38 464.5Z" fill="#FFB8B8"/>
<path d="M263.802 458.5C263.802 458.5 278.907 484.5 288.617 484.5C298.328 484.5 297.249 501.5 295.091 505.5C292.933 509.5 287.538 518.5 296.17 531.5C299.185 536.041 298.646 541.192 296.667 545.973C291.124 559.368 269.56 555.309 270.248 540.977C270.255 540.819 270.265 540.66 270.275 540.5C271.354 524.5 262.723 499.5 254.091 493.5C245.46 487.5 237.907 471.5 237.907 471.5L263.802 458.5Z" fill="#FFB8B8"/>
<path d="M275.67 330.5L269.196 343.5C269.196 343.5 174.249 372.5 182.881 406.5C191.512 440.5 233.591 493.5 240.065 491.5C246.539 489.5 281.065 483.5 282.144 466.5C283.223 449.5 257.328 419.5 257.328 419.5L292.933 389.5L344.744 388.5L388.959 419.5C388.959 419.5 342.565 457.5 363.065 472.5C383.564 487.5 413.775 497.5 418.091 491.5C422.406 485.5 470.959 396.5 463.406 388.5C455.854 380.5 379.249 350.5 379.249 350.5L358.749 323.5L278.907 319.5L275.67 330.5Z" fill="#2F2E41"/>
<path d="M295.091 165.5C295.091 165.5 300.486 198.5 289.696 202.5C278.907 206.5 311.275 223.5 311.275 223.5H329.617L341.486 200.5C341.486 200.5 330.696 182.5 337.17 165.5C343.644 148.5 295.091 165.5 295.091 165.5Z" fill="#FFB8B8"/>
<path opacity="0.1" d="M295.091 165.5C295.091 165.5 300.486 198.5 289.696 202.5C278.907 206.5 311.275 223.5 311.275 223.5H329.617L341.486 200.5C341.486 200.5 330.696 182.5 337.17 165.5C343.644 148.5 295.091 165.5 295.091 165.5Z" fill="black"/>
<path d="M287.539 193.5C287.539 193.5 299.407 205.5 301.565 207.5C303.723 209.5 313.433 220.5 333.933 204.5C354.433 188.5 356.591 207.5 356.591 207.5V327.5C356.591 327.5 339.328 320.5 325.302 327.5C311.275 334.5 282.144 325.5 282.144 325.5L276.749 201.5L287.539 193.5Z" fill="#D0CDE1"/>
<path d="M295.464 193.5C295.464 193.5 285.381 189.5 276.749 193.5C268.118 197.5 237.907 217.5 240.065 226.5C242.223 235.5 270.275 298.5 250.854 328.5C231.433 358.5 228.197 366.5 228.197 366.5L275.67 343.5C275.67 343.5 312.354 322.5 309.117 309.5C305.881 296.5 295.464 193.5 295.464 193.5Z" fill="#3F3D56"/>
<path d="M338.262 193.5C338.262 193.5 360.907 195.5 361.986 197.5C363.065 199.5 395.972 208 393.814 217C391.657 226 361.986 306.5 374.933 321.5C387.88 336.5 409.459 357.5 401.907 359.5C394.354 361.5 381.407 356.5 368.459 359.5C355.512 362.5 325.302 337.5 328.538 310.5C331.775 283.5 328.564 200.5 338.262 193.5Z" fill="#3F3D56"/>
<path d="M284.302 384.5V394.5C284.302 394.5 278.907 417.5 296.17 416.5C313.433 415.5 302.644 388.5 302.644 388.5L301.565 379.5L284.302 384.5Z" fill="#FFB8B8"/>
<path d="M332.854 385.5C332.854 385.5 320.986 408.5 332.854 410.5C344.723 412.5 353.354 397.5 353.354 393.5C353.354 389.5 332.854 385.5 332.854 385.5Z" fill="#FFB8B8"/>
<path d="M294.012 650.524L291.854 650.476L298.328 420.476L300.486 420.524L294.012 650.524Z" fill="#2F2E41"/>
<path d="M348.499 156C349.691 156 350.657 154.209 350.657 152C350.657 149.791 349.691 148 348.499 148C347.307 148 346.341 149.791 346.341 152C346.341 154.209 347.307 156 348.499 156Z" fill="#FFB8B8"/>
<path d="M284.841 156C286.033 156 286.999 154.209 286.999 152C286.999 149.791 286.033 148 284.841 148C283.649 148 282.683 149.791 282.683 152C282.683 154.209 283.649 156 284.841 156Z" fill="#FFB8B8"/>
<path d="M367.38 206.5C367.38 206.5 394.354 206.5 393.275 216.5C392.196 226.5 356.591 398.5 356.591 398.5C356.591 398.5 341.486 385.5 328.538 388.5L367.38 206.5Z" fill="#3F3D56"/>
<path d="M262.723 209.5C262.723 209.5 235.749 214.5 235.749 229.5C235.749 244.5 274.591 388.5 279.986 388.5C285.381 388.5 305.881 385.5 305.881 380.5C305.881 375.5 262.723 209.5 262.723 209.5Z" fill="#3F3D56"/>
<path opacity="0.2" d="M268.657 239L292.933 326.991C292.933 326.991 281.604 250 268.657 239Z" fill="black"/>
<path opacity="0.2" d="M363.083 226.636L338.531 341.68C338.531 341.68 346.378 233.272 363.083 226.636Z" fill="black"/>
<path d="M316.67 181.5C333.951 181.5 347.959 168.516 347.959 152.5C347.959 136.484 333.951 123.5 316.67 123.5C299.389 123.5 285.381 136.484 285.381 152.5C285.381 168.516 299.389 181.5 316.67 181.5Z" fill="#FFB8B8"/>
<path d="M345.347 122.998L321.96 111.644L289.664 116.289L282.982 143.642L299.615 143.049L304.262 133V142.884L311.938 142.61L316.392 126.611L319.176 143.642L346.462 143.126L345.347 122.998Z" fill="#2F2E41"/>
<path d="M599.893 650H10.7894V652H599.893V650Z" fill="#2F2E41"/>
<path d="M501.259 650.02L499.101 649.98C499.936 627.743 502.496 605.59 506.761 583.693C516.092 536.812 531.608 506.023 552.879 492.182L554.118 493.818C504.43 526.152 501.284 648.784 501.259 650.02Z" fill="#2F2E41"/>
<path d="M528.233 649.541L526.075 649.502C526.121 647.287 527.47 595.088 549.642 580.66L550.881 582.297C529.603 596.143 528.243 649.009 528.233 649.541Z" fill="#2F2E41"/>
<path d="M566.446 493C572.404 493 577.235 488.523 577.235 483C577.235 477.477 572.404 473 566.446 473C560.487 473 555.656 477.477 555.656 483C555.656 488.523 560.487 493 566.446 493Z" fill="#15C95A"/>
<path d="M561.051 580C567.01 580 571.84 575.523 571.84 570C571.84 564.477 567.01 560 561.051 560C555.092 560 550.261 564.477 550.261 570C550.261 575.523 555.092 580 561.051 580Z" fill="#15C95A"/>
<path d="M523.203 499.995C525.231 511.999 519.946 522.735 519.946 522.735C519.946 522.735 511.374 514.009 509.346 502.005C507.318 490.001 512.603 479.265 512.603 479.265C512.603 479.265 521.176 487.991 523.203 499.995Z" fill="#2F2E41"/>
<path d="M558.471 529.148C546.071 533.091 533.743 530.138 533.743 530.138C533.743 530.138 541.52 520.794 553.92 516.852C566.32 512.909 578.648 515.862 578.648 515.862C578.648 515.862 570.871 525.206 558.471 529.148Z" fill="#2F2E41"/>
<path d="M558.869 605.31C553.257 606.943 547.28 607.183 541.537 606.003C545.184 601.7 550.095 598.466 555.68 596.691C561.264 594.915 567.283 594.674 573.012 595.997C569.259 600.195 564.382 603.407 558.869 605.31V605.31Z" fill="#2F2E41"/>
<path d="M189.894 123H38.842V125H189.894V123Z" fill="#3F3D56"/>
<path d="M81.9997 105H79.8418V123.5H81.9997V105Z" fill="#3F3D56"/>
<path d="M147.815 105H145.657V123.5H147.815V105Z" fill="#3F3D56"/>
<path d="M597.735 264H446.683V266H597.735V264Z" fill="#3F3D56"/>
<path d="M489.84 246H487.683V264.5H489.84V246Z" fill="#3F3D56"/>
<path d="M555.656 246H553.498V264.5H555.656V246Z" fill="#3F3D56"/>
<path d="M199.605 358H48.5525V360H199.605V358Z" fill="#3F3D56"/>
<path d="M91.7103 340H89.5524V358.5H91.7103V340Z" fill="#3F3D56"/>
<path d="M157.526 340H155.368V358.5H157.526V340Z" fill="#3F3D56"/>
<path d="M135 5H296V95.1962H275.55V120L253.519 95.1962H135V5Z" fill="#15C95A"/>
<path d="M275.341 27.5633L151.385 27.5633V23.9241L275.341 23.9241V27.5633Z" fill="white"/>
<path d="M275.341 48.6709L151.385 48.6709V45.0317L275.341 45.0317V48.6709Z" fill="white"/>
<path d="M275.341 66.8671L151.385 66.8671V63.2279L275.341 63.2279V66.8671Z" fill="white"/>
<path d="M614 33.1433H383.099V195H614V33.1433Z" fill="#E6E6E6"/>
<path d="M607.397 53.4442H389.701V185.425H607.397V53.4442Z" fill="white"/>
<path d="M613.901 33H383V43.7367H613.901V33Z" fill="#15C95A"/>
<path d="M390.29 40.4791C391.294 40.4791 392.108 39.5882 392.108 38.4892C392.108 37.3901 391.294 36.4992 390.29 36.4992C389.286 36.4992 388.472 37.3901 388.472 38.4892C388.472 39.5882 389.286 40.4791 390.29 40.4791Z" fill="white"/>
<path d="M397.191 40.4791C398.195 40.4791 399.009 39.5882 399.009 38.4892C399.009 37.3901 398.195 36.4992 397.191 36.4992C396.187 36.4992 395.373 37.3901 395.373 38.4892C395.373 39.5882 396.187 40.4791 397.191 40.4791Z" fill="white"/>
<path d="M404.092 40.4791C405.096 40.4791 405.91 39.5882 405.91 38.4892C405.91 37.3901 405.096 36.4992 404.092 36.4992C403.088 36.4992 402.274 37.3901 402.274 38.4892C402.274 39.5882 403.088 40.4791 404.092 40.4791Z" fill="white"/>
<path d="M545.799 65.8058H474.924C474.773 65.784 474.634 65.7027 474.534 65.5772C474.433 65.4516 474.377 65.2902 474.377 65.1232C474.377 64.9562 474.433 64.7948 474.534 64.6693C474.634 64.5437 474.773 64.4624 474.924 64.4406H545.799C545.95 64.4624 546.089 64.5437 546.19 64.6693C546.291 64.7948 546.346 64.9562 546.346 65.1232C546.346 65.2902 546.291 65.4516 546.19 65.5772C546.089 65.7027 545.95 65.784 545.799 65.8058V65.8058Z" fill="#CCCCCC"/>
<path d="M496.69 73.3147H451.628C451.476 73.2929 451.337 73.2116 451.237 73.086C451.136 72.9604 451.081 72.7991 451.081 72.6321C451.081 72.465 451.136 72.3037 451.237 72.1781C451.337 72.0525 451.476 71.9713 451.628 71.9494H496.69C496.841 71.9713 496.98 72.0525 497.081 72.1781C497.181 72.3037 497.237 72.465 497.237 72.6321C497.237 72.7991 497.181 72.9604 497.081 73.086C496.98 73.2116 496.841 73.2929 496.69 73.3147V73.3147Z" fill="#CCCCCC"/>
<path d="M545.799 73.4512H500.737C500.586 73.4294 500.447 73.3481 500.346 73.2225C500.245 73.0969 500.19 72.9356 500.19 72.7686C500.19 72.6015 500.245 72.4402 500.346 72.3146C500.447 72.189 500.586 72.1078 500.737 72.0859H545.799C545.951 72.1078 546.089 72.189 546.19 72.3146C546.291 72.4402 546.346 72.6015 546.346 72.7686C546.346 72.9356 546.291 73.0969 546.19 73.2225C546.089 73.3481 545.951 73.4294 545.799 73.4512H545.799Z" fill="#CCCCCC"/>
<path d="M496.799 80.8235H451.737C451.586 80.8017 451.447 80.7204 451.346 80.5948C451.246 80.4692 451.19 80.3079 451.19 80.1409C451.19 79.9738 451.246 79.8125 451.346 79.6869C451.447 79.5613 451.586 79.4801 451.737 79.4583H496.799C496.951 79.4801 497.09 79.5613 497.19 79.6869C497.291 79.8125 497.346 79.9738 497.346 80.1409C497.346 80.3079 497.291 80.4692 497.19 80.5948C497.09 80.7204 496.951 80.8017 496.799 80.8235V80.8235Z" fill="#CCCCCC"/>
<path d="M496.909 88.3324H451.846C451.695 88.3106 451.556 88.2293 451.456 88.1037C451.355 87.9781 451.299 87.8168 451.299 87.6498C451.299 87.4828 451.355 87.3214 451.456 87.1959C451.556 87.0703 451.695 86.989 451.846 86.9672H496.909C497.06 86.989 497.199 87.0703 497.299 87.1959C497.4 87.3214 497.456 87.4828 497.456 87.6498C497.456 87.8168 497.4 87.9781 497.299 88.1037C497.199 88.2293 497.06 88.3106 496.909 88.3324V88.3324Z" fill="#CCCCCC"/>
<path d="M517.362 80.8235H504.456C504.304 80.8017 504.165 80.7204 504.065 80.5948C503.964 80.4692 503.909 80.3079 503.909 80.1409C503.909 79.9738 503.964 79.8125 504.065 79.6869C504.165 79.5613 504.304 79.4801 504.456 79.4583H517.362C517.513 79.4801 517.652 79.5613 517.753 79.6869C517.853 79.8125 517.909 79.9738 517.909 80.1409C517.909 80.3079 517.853 80.4692 517.753 80.5948C517.652 80.7204 517.513 80.8017 517.362 80.8235V80.8235Z" fill="#CCCCCC"/>
<path d="M517.362 88.1959H504.456C504.304 88.1741 504.165 88.0928 504.065 87.9672C503.964 87.8416 503.909 87.6803 503.909 87.5133C503.909 87.3462 503.964 87.1849 504.065 87.0593C504.165 86.9337 504.304 86.8525 504.456 86.8306H517.362C517.513 86.8525 517.652 86.9337 517.753 87.0593C517.853 87.1849 517.909 87.3462 517.909 87.5133C517.909 87.6803 517.853 87.8416 517.753 87.9672C517.652 88.0928 517.513 88.1741 517.362 88.1959V88.1959Z" fill="#CCCCCC"/>
<path d="M539.018 88.1959H526.112C525.96 88.1741 525.821 88.0928 525.721 87.9672C525.62 87.8416 525.565 87.6803 525.565 87.5133C525.565 87.3462 525.62 87.1849 525.721 87.0593C525.821 86.9337 525.96 86.8525 526.112 86.8306H539.018C539.169 86.8525 539.308 86.9337 539.409 87.0593C539.509 87.1849 539.565 87.3462 539.565 87.5133C539.565 87.6803 539.509 87.8416 539.409 87.9672C539.308 88.0928 539.169 88.1741 539.018 88.1959V88.1959Z" fill="#CCCCCC"/>
<path d="M464.206 65.8058H451.299C451.148 65.784 451.009 65.7027 450.909 65.5772C450.808 65.4516 450.753 65.2902 450.753 65.1232C450.753 64.9562 450.808 64.7948 450.909 64.6693C451.009 64.5437 451.148 64.4624 451.299 64.4406H464.206C464.357 64.4624 464.496 64.5437 464.596 64.6693C464.697 64.7948 464.753 64.9562 464.753 65.1232C464.753 65.2902 464.697 65.4516 464.596 65.5772C464.496 65.7027 464.357 65.784 464.206 65.8058Z" fill="#CCCCCC"/>
<path d="M496.526 151.901H451.464C451.312 151.88 451.173 151.798 451.073 151.673C450.972 151.547 450.917 151.386 450.917 151.219C450.917 151.052 450.972 150.891 451.073 150.765C451.173 150.639 451.312 150.558 451.464 150.536H496.526C496.677 150.558 496.816 150.639 496.917 150.765C497.017 150.891 497.073 151.052 497.073 151.219C497.073 151.386 497.017 151.547 496.917 151.673C496.816 151.798 496.677 151.88 496.526 151.901H496.526Z" fill="#CCCCCC"/>
<path d="M496.307 166.919H451.245C451.093 166.897 450.955 166.816 450.854 166.691C450.753 166.565 450.698 166.404 450.698 166.237C450.698 166.07 450.753 165.908 450.854 165.783C450.955 165.657 451.093 165.576 451.245 165.554H496.307C496.458 165.576 496.597 165.657 496.698 165.783C496.799 165.908 496.854 166.07 496.854 166.237C496.854 166.404 496.799 166.565 496.698 166.691C496.597 166.816 496.458 166.897 496.307 166.919H496.307Z" fill="#CCCCCC"/>
<path d="M496.416 174.428H451.354C451.203 174.406 451.064 174.325 450.963 174.199C450.863 174.074 450.807 173.913 450.807 173.745C450.807 173.578 450.863 173.417 450.963 173.292C451.064 173.166 451.203 173.085 451.354 173.063H496.417C496.568 173.085 496.707 173.166 496.807 173.292C496.908 173.417 496.963 173.578 496.963 173.745C496.963 173.913 496.908 174.074 496.807 174.199C496.707 174.325 496.568 174.406 496.417 174.428H496.416Z" fill="#CCCCCC"/>
<path d="M515.666 167.056H502.76C502.609 167.034 502.47 166.953 502.369 166.827C502.269 166.701 502.213 166.54 502.213 166.373C502.213 166.206 502.269 166.045 502.369 165.919C502.47 165.794 502.609 165.712 502.76 165.69H515.666C515.818 165.712 515.957 165.794 516.057 165.919C516.158 166.045 516.213 166.206 516.213 166.373C516.213 166.54 516.158 166.701 516.057 166.827C515.957 166.953 515.818 167.034 515.666 167.056V167.056Z" fill="#CCCCCC"/>
<path d="M515.666 174.428H502.76C502.609 174.406 502.47 174.325 502.369 174.199C502.269 174.074 502.213 173.913 502.213 173.745C502.213 173.578 502.269 173.417 502.369 173.292C502.47 173.166 502.609 173.085 502.76 173.063H515.666C515.818 173.085 515.957 173.166 516.057 173.292C516.158 173.417 516.213 173.578 516.213 173.745C516.213 173.913 516.158 174.074 516.057 174.199C515.957 174.325 515.818 174.406 515.666 174.428V174.428Z" fill="#CCCCCC"/>
<path d="M537.323 167.056H524.416C524.265 167.034 524.126 166.953 524.026 166.827C523.925 166.701 523.87 166.54 523.87 166.373C523.87 166.206 523.925 166.045 524.026 165.919C524.126 165.794 524.265 165.712 524.416 165.69H537.323C537.474 165.712 537.613 165.794 537.713 165.919C537.814 166.045 537.869 166.206 537.869 166.373C537.869 166.54 537.814 166.701 537.713 166.827C537.613 166.953 537.474 167.034 537.323 167.056V167.056Z" fill="#CCCCCC"/>
<path d="M545.854 159.41H474.979C474.828 159.389 474.689 159.307 474.588 159.182C474.488 159.056 474.432 158.895 474.432 158.728C474.432 158.561 474.488 158.399 474.588 158.274C474.689 158.148 474.828 158.067 474.979 158.045H545.854C546.005 158.067 546.144 158.148 546.245 158.274C546.345 158.399 546.401 158.561 546.401 158.728C546.401 158.895 546.345 159.056 546.245 159.182C546.144 159.307 546.005 159.389 545.854 159.41V159.41Z" fill="#CCCCCC"/>
<path d="M464.26 159.41H451.354C451.203 159.389 451.064 159.307 450.963 159.182C450.863 159.056 450.807 158.895 450.807 158.728C450.807 158.561 450.863 158.399 450.963 158.274C451.064 158.148 451.203 158.067 451.354 158.045H464.26C464.412 158.067 464.55 158.148 464.651 158.274C464.752 158.399 464.807 158.561 464.807 158.728C464.807 158.895 464.752 159.056 464.651 159.182C464.55 159.307 464.412 159.389 464.26 159.41V159.41Z" fill="#CCCCCC"/>
<path d="M485.643 100.462L468.143 119.376L485.643 138.291L489.581 133.981L476.346 119.496L489.69 104.891L485.643 100.462Z" fill="#15C95A"/>
<path d="M511.456 100.462L528.955 119.376L511.456 138.291L507.518 133.981L520.752 119.496L507.409 104.891L511.456 100.462Z" fill="#15C95A"/>
</g>
<defs>
<clipPath id="clip0">
<rect width="630" height="652" fill="white"/>
</clipPath>
</defs>
</svg>
