<svg width="899" height="545" viewBox="0 0 899 545" fill="none" xmlns="http://www.w3.org/2000/svg">
<path opacity="0.1" d="M651.153 41.2944C622.453 16.8781 577.402 11.8727 536.4 13.8167C407.595 19.9301 337.305 163.442 236.73 230.671C200.375 255.003 118.496 197.155 94.8554 230.671C46.7098 298.896 -42.9848 413.135 23.918 469.33C46.6741 488.459 178.275 483.409 206.593 496.377C256.959 519.488 311.304 538.036 368.47 543.332C409.236 547.088 450.504 544.036 491.025 538.787C617.131 436.116 715.393 491.635 808.54 436.116C849.395 411.765 887.902 381.489 904.743 342.094C921.584 302.7 885.796 253.989 844.076 230.671C912.171 204.353 875.805 150.689 855.603 146.595C825.881 140.575 824.791 88.2108 797.967 75.9745C770.258 63.3343 807.074 47.6413 745.891 5.95011C729.93 -23.2337 679.824 65.7108 651.153 41.2944Z" fill="#15C95A"/>
</svg>
