<svg width="605" height="587" viewBox="0 0 605 587" fill="none" xmlns="http://www.w3.org/2000/svg">
<g clip-path="url(#clip0)">
<path d="M287.942 572.377C367.177 572.377 431.41 569.619 431.41 566.218C431.41 562.817 367.177 560.06 287.942 560.06C208.707 560.06 144.474 562.817 144.474 566.218C144.474 569.619 208.707 572.377 287.942 572.377Z" fill="#3F3D56"/>
<path d="M221.063 291.036C249.415 291.036 272.399 263.411 272.399 229.334C272.399 195.257 249.415 167.632 221.063 167.632C192.711 167.632 169.728 195.257 169.728 229.334C169.728 263.411 192.711 291.036 221.063 291.036Z" fill="#FF6584"/>
<path d="M160.58 550.063C184.475 550.063 203.847 547.917 203.847 545.269C203.847 542.622 184.475 540.476 160.58 540.476C136.685 540.476 117.313 542.622 117.313 545.269C117.313 547.917 136.685 550.063 160.58 550.063Z" fill="#3F3D56"/>
<path d="M239.402 566.639C239.402 566.639 275.312 451.541 255.515 380.711C235.719 309.881 220.065 312.648 220.065 312.648C220.065 312.648 193.363 304.347 160.215 328.695C127.067 353.043 118.32 360.236 99.4438 350.276C80.5679 340.316 76.8848 324.822 30.846 326.482C30.846 326.482 55.2466 310.434 79.1867 324.822C103.127 339.209 119.24 346.956 143.641 324.822C168.042 302.687 201.65 273.913 234.338 291.067C234.338 291.067 210.397 262.845 202.571 262.845C194.744 262.845 157.913 258.419 145.943 243.478C145.943 243.478 128.909 229.091 98.5231 264.505C68.1375 299.92 75.5037 299.92 48.3408 297.154C21.1779 294.387 0 278.339 0 278.339C0 278.339 31.7668 293.833 51.1031 286.086C70.4394 278.339 87.0133 249.011 104.048 239.051C121.082 229.091 131.211 215.81 154.23 230.197C154.23 230.197 144.562 182.608 126.146 186.482C107.731 190.355 134.894 175.415 134.894 175.415C134.894 175.415 129.829 94.6243 120.161 89.0908C110.493 83.5572 116.478 69.1699 98.523 66.4031C98.523 66.4031 120.622 63.0829 124.765 81.3437C128.909 99.6045 157.453 198.102 157.453 198.102C157.453 198.102 174.947 240.158 194.284 230.197C213.62 220.237 186.918 164.348 186.918 164.348L153.77 146.087C153.77 146.087 178.631 144.98 193.823 162.134C209.016 179.288 209.937 234.624 209.937 234.624C209.937 234.624 248.149 241.264 257.357 266.166C257.357 266.166 263.342 244.031 251.832 230.751C248.955 227.43 245.934 221.655 243.02 214.859C231.879 188.87 228.099 159.245 231.604 130.313C233.319 116.156 234.375 102.313 232.496 99.0512C228.352 91.8575 210.858 47.5888 209.477 35.9683C208.095 24.3478 210.858 0 210.858 0C210.858 0 211.318 29.8814 216.843 39.2885C222.367 48.6956 238.021 95.1777 238.021 95.1777C238.021 95.1777 238.021 153.834 250.911 182.608C263.802 211.383 288.663 243.478 287.282 264.505V276.679C287.282 276.679 314.905 245.138 313.064 234.624C311.222 224.11 308.92 199.209 291.426 184.268C273.931 169.328 262.421 145.533 274.852 111.225C287.282 76.9168 287.282 70.8299 287.282 70.8299L278.995 113.439C278.995 113.439 274.391 151.62 287.282 164.901C300.173 178.181 317.207 202.529 317.207 202.529L313.524 122.846L325.494 154.387C325.494 154.387 351.276 114.545 381.662 101.265C412.047 87.984 430.923 41.5019 430.923 41.5019L456.705 17.1541L435.527 47.5888C435.527 47.5888 429.082 83.5571 392.711 109.012C356.34 134.466 332.861 172.095 331.479 195.336C330.098 218.577 328.717 239.051 328.717 239.051C328.717 239.051 396.854 236.284 412.047 200.316C427.24 164.348 428.621 92.9642 443.354 81.3437C458.086 69.7232 485.709 55.3359 485.709 55.3359L454.863 85.7706C454.863 85.7706 448.418 110.672 449.799 128.379C451.18 146.087 439.671 162.687 439.671 162.687L430.923 193.675L421.255 220.237C421.255 220.237 460.848 221.343 481.566 249.565C502.283 277.786 553.847 286.086 553.847 286.086L524.842 295.494C524.842 295.494 497.219 284.426 470.977 263.952C444.735 243.478 447.497 225.217 414.81 245.691C382.122 266.166 337.464 283.32 337.464 283.32C337.464 283.32 363.246 268.932 409.745 303.794C456.245 338.655 386.726 297.707 366.009 310.988C345.291 324.268 335.623 307.667 327.336 340.869C319.049 374.07 303.856 464.821 321.351 515.73L338.846 566.639H239.402Z" fill="#3F3D56"/>
<path opacity="0.1" d="M412.746 200.316C400.403 229.538 353.114 236.845 335.808 238.558C335.323 246.06 335.003 250.803 335.003 250.803C335.003 250.803 403.14 248.037 418.333 212.068C433.526 176.1 434.907 104.717 449.639 93.0962C451.202 91.8638 452.91 90.6002 454.714 89.326C455.221 87.0926 455.562 85.7707 455.562 85.7707L486.408 55.3359C486.408 55.3359 458.785 69.7232 444.052 81.3438C429.32 92.9643 427.939 164.348 412.746 200.316Z" fill="black"/>
<path opacity="0.1" d="M333.352 144.412C333.251 158.036 331.78 166.139 331.78 166.139C331.78 166.139 357.551 126.315 387.928 113.026C389.724 111.66 391.545 110.316 393.409 109.012C429.78 83.5571 436.225 47.5888 436.225 47.5888L457.403 17.1541L431.622 41.5018C431.622 41.5018 412.746 87.984 382.36 101.265C361.648 110.317 343.078 131.708 333.352 144.412Z" fill="black"/>
<path opacity="0.1" d="M293.568 276.258V288.432C293.568 288.432 321.191 256.89 319.35 246.377C317.941 238.336 316.255 221.884 307.719 207.904C311.566 218.469 312.738 228.774 313.762 234.624C315.083 242.164 301.253 260.515 293.321 270.295C293.599 272.264 293.682 274.266 293.568 276.258Z" fill="black"/>
<path opacity="0.1" d="M256.514 192.714C256.733 193.275 256.958 193.827 257.197 194.361C264.257 210.12 274.901 226.871 282.864 242.258C276.428 227.02 265.227 209.595 256.514 192.714Z" fill="black"/>
<path opacity="0.1" d="M278.959 169.156C275.246 158.222 274.635 145.212 278.9 129.967C278.846 124.442 279.112 118.919 279.694 113.439L286.943 76.1655C285.606 81.5406 282.548 91.9102 275.55 111.225C266.691 135.677 269.997 154.784 278.959 169.156Z" fill="black"/>
<path opacity="0.1" d="M482.264 249.565C467.897 229.993 444.455 223.464 431.432 221.299L427.541 231.989C427.541 231.989 467.134 233.096 487.852 261.317C499.34 276.967 520.312 286.489 536.719 291.868L554.545 286.087C554.545 286.087 502.982 277.786 482.264 249.565Z" fill="black"/>
<path opacity="0.1" d="M200.57 241.95C219.906 231.989 193.203 176.1 193.203 176.1L192.473 175.698C199.13 192.579 208.785 223.087 194.982 230.197C182.067 236.85 169.974 220.298 163.367 208.571C163.607 209.4 163.738 209.855 163.738 209.855C163.738 209.855 181.233 251.91 200.57 241.95Z" fill="black"/>
<path opacity="0.1" d="M263.643 277.918C263.643 277.918 269.469 256.331 258.523 243.004C261.208 254.485 258.055 266.165 258.055 266.165C250.932 246.903 226.457 238.569 215.737 235.782C216.152 242.195 216.223 246.376 216.223 246.376C216.223 246.376 254.435 253.017 263.643 277.918Z" fill="black"/>
<path opacity="0.1" d="M286.943 76.1655C287.98 71.9931 287.981 70.8298 287.981 70.8298L286.943 76.1655Z" fill="black"/>
<path opacity="0.1" d="M57.1095 297.945C57.2023 297.909 57.2966 297.876 57.3888 297.839C76.7251 290.092 93.2991 260.764 110.334 250.803C127.368 240.843 137.496 227.562 160.516 241.95C160.516 241.95 156.489 222.136 148.685 209.119C151.269 215.915 153.359 222.967 154.928 230.197C131.909 215.81 121.78 229.09 104.746 239.051C87.7118 249.011 71.1378 278.339 51.8015 286.086C32.4652 293.833 0.698425 278.339 0.698425 278.339C0.698425 278.339 21.8763 294.387 49.0392 297.154C52.1464 297.47 54.7977 297.749 57.1095 297.945Z" fill="black"/>
<path opacity="0.1" d="M249.051 566.639C257.486 535.558 277.773 449.61 261.801 392.463C254.903 367.784 248.51 352.047 243.105 342.007C247.147 351.511 251.566 364.082 256.214 380.711C276.01 451.541 240.1 566.639 240.1 566.639H249.051Z" fill="black"/>
<path opacity="0.1" d="M69.2563 330.932C74.9007 331.621 80.3947 333.532 85.4725 336.574C104.38 347.936 118.408 355.143 135.489 346.773C139.381 344.303 143.733 341.245 148.752 337.605C149.144 337.262 149.531 336.933 149.927 336.574C174.327 314.439 207.936 285.665 240.623 302.819C240.623 302.819 234.017 295.034 226.612 287.641C196.651 278.807 166.647 304.585 144.34 324.821C119.939 346.956 103.825 339.209 79.8852 324.821C55.9449 310.434 31.5444 326.481 31.5444 326.481C49.3326 325.84 60.7948 327.761 69.2563 330.932Z" fill="black"/>
<path opacity="0.1" d="M115.987 83.7188C116.512 84.7817 117.149 85.7594 117.881 86.628C117.343 85.5753 116.708 84.5993 115.987 83.7188V83.7188Z" fill="black"/>
<path opacity="0.1" d="M200.109 173.887C200.821 174.695 201.487 175.559 202.105 176.473C200.088 170.646 197.598 165.607 194.522 162.134C179.329 144.98 154.468 146.087 154.468 146.087L185.646 163.262C190.989 165.658 195.899 169.265 200.109 173.887V173.887Z" fill="black"/>
<path opacity="0.1" d="M233.194 99.0512C235.073 102.313 234.018 116.156 232.302 130.313C228.797 159.245 232.577 188.87 243.718 214.859C245.185 218.347 246.823 221.726 248.624 224.98C238.015 199.386 234.458 170.394 237.89 142.066C239.605 127.908 240.661 114.065 238.782 110.804C234.638 103.61 217.143 59.3413 215.762 47.7207C215.348 43.2125 215.252 38.6703 215.474 34.1425C211.898 21.9465 211.556 0 211.556 0C211.556 0 208.794 24.3478 210.175 35.9683C211.556 47.5888 229.051 91.8576 233.194 99.0512Z" fill="black"/>
<path opacity="0.1" d="M276.386 22.5515C276.201 21.4578 275.921 20.3906 275.55 19.3677C275.55 19.3677 275.904 20.5619 276.386 22.5515Z" fill="black"/>
<path opacity="0.1" d="M113.775 78.2819C117.832 78.8789 122.5 80.3752 126.06 83.8454C125.828 82.9013 125.625 82.055 125.464 81.3437C121.32 63.0829 99.2215 66.4031 99.2215 66.4031C109.208 67.942 111.788 73.076 113.775 78.2819Z" fill="black"/>
<path d="M228.203 542.996C231.485 557.58 242.729 566.613 242.729 566.613C242.729 566.613 248.65 551.999 245.367 537.415C242.085 522.83 230.841 513.797 230.841 513.797C230.841 513.797 224.92 528.411 228.203 542.996Z" fill="#3F3D56"/>
<path d="M233.026 539.861C242.033 550.4 243.134 566.601 243.134 566.601C243.134 566.601 229.63 565.715 220.623 555.176C211.615 544.637 210.515 528.436 210.515 528.436C210.515 528.436 224.019 529.322 233.026 539.861Z" fill="#15C95A"/>
<path d="M203.172 144.426C202.389 159.505 192.88 171.064 192.88 171.064C192.88 171.064 184.641 158.174 185.424 143.095C186.207 128.015 195.716 116.456 195.716 116.456C195.716 116.456 203.955 129.346 203.172 144.426Z" fill="#15C95A"/>
<path d="M104.055 49.0958C114.688 57.1536 118.567 72.7255 118.567 72.7255C118.567 72.7255 105.205 75.2331 94.5713 67.1753C83.9378 59.1175 80.0593 43.5456 80.0593 43.5456C80.0593 43.5456 93.4212 41.038 104.055 49.0958Z" fill="#15C95A"/>
<path d="M80.3084 232.937C90.9419 240.995 94.8204 256.567 94.8204 256.567C94.8204 256.567 81.4586 259.074 70.825 251.017C60.1915 242.959 56.313 227.387 56.313 227.387C56.313 227.387 69.6749 224.879 80.3084 232.937Z" fill="#15C95A"/>
<path d="M136.88 303.452C147.514 311.51 151.392 327.081 151.392 327.081C151.392 327.081 138.031 329.589 127.397 321.531C116.764 313.473 112.885 297.902 112.885 297.902C112.885 297.902 126.247 295.394 136.88 303.452Z" fill="#15C95A"/>
<path d="M296.483 75.972C293.276 90.581 282.08 99.6978 282.08 99.6978C282.08 99.6978 276.083 85.1287 279.29 70.5197C282.496 55.9108 293.693 46.7939 293.693 46.7939C293.693 46.7939 299.69 61.363 296.483 75.972Z" fill="#15C95A"/>
<path d="M397.639 87.3628C393.87 101.777 382.333 110.257 382.333 110.257C382.333 110.257 376.906 95.3683 380.675 80.9545C384.444 66.5408 395.982 58.0603 395.982 58.0603C395.982 58.0603 401.408 72.9491 397.639 87.3628Z" fill="#15C95A"/>
<path d="M506.973 247.781C500.145 260.467 487.145 264.947 487.145 264.947C487.145 264.947 485.215 248.859 492.042 236.173C498.87 223.487 511.87 219.007 511.87 219.007C511.87 219.007 513.8 235.095 506.973 247.781Z" fill="#15C95A"/>
<path d="M335.328 351.515C335.328 351.515 334.231 356.348 336.424 358.105C338.618 359.863 339.349 368.211 339.349 368.211L334.962 382.71L323.264 385.347L318.878 375.241V360.302C318.878 360.302 320.34 352.833 319.974 350.636C319.609 348.439 335.328 351.515 335.328 351.515Z" fill="#FFB9B9"/>
<path opacity="0.2" d="M335.328 351.515C335.328 351.515 334.231 356.348 336.424 358.105C338.618 359.863 339.349 368.211 339.349 368.211L334.962 382.71L323.264 385.347L318.878 375.241V360.302C318.878 360.302 320.34 352.833 319.974 350.636C319.609 348.439 335.328 351.515 335.328 351.515Z" fill="black"/>
<path d="M347.026 434.557L356.53 436.754C356.53 436.754 357.261 449.495 356.53 452.571C355.799 455.647 355.068 459.162 355.799 460.04C356.53 460.919 352.509 483.327 352.874 484.645C353.24 485.964 353.971 489.918 353.605 492.554C353.24 495.19 352.143 494.312 352.874 496.948C353.606 499.584 354.337 500.024 353.605 501.781C352.874 503.539 349.219 546.158 348.122 546.597C347.025 547.037 337.156 547.476 337.156 546.597C337.156 545.719 340.445 539.128 339.349 537.37C338.252 535.613 339.714 505.735 339.714 504.417C339.714 503.099 341.908 500.902 340.811 500.024C339.714 499.145 338.983 498.266 339.349 496.948C339.714 495.63 340.446 495.19 339.714 493.872C338.983 492.554 338.983 466.192 336.424 465.313C336.424 465.313 333.134 484.645 334.231 489.479C335.328 494.312 333.866 496.069 333.866 496.069L338.983 501.342L332.038 517.159L324.727 507.054C324.727 507.054 324.727 504.417 323.264 503.978C321.802 503.539 321.071 503.099 321.071 501.781C321.071 500.463 318.512 492.115 318.512 492.115C318.512 492.115 311.201 464.434 314.857 450.374C318.512 436.314 319.92 436.78 319.92 436.78L347.026 434.557Z" fill="#2F2E41"/>
<path d="M352.874 525.508L356.896 530.78L355.433 545.279H352.143L347.026 531.658L352.874 525.508Z" fill="#FFB9B9"/>
<path d="M355.433 535.174C355.433 535.174 353.971 539.128 352.874 538.249C351.778 537.371 351.414 536.053 349.768 536.053C348.122 536.053 346.66 536.492 347.026 537.371C347.391 538.249 351.778 547.916 351.778 547.916C352.421 549.566 352.755 551.366 352.755 553.188C352.755 555.011 352.421 556.811 351.778 558.461C349.584 564.172 357.627 567.248 359.089 561.097C360.551 554.946 360.917 547.916 360.551 545.279C360.185 542.643 362.379 529.023 362.379 529.023C362.379 529.023 356.473 525.75 354.674 525.629C354.674 525.629 356.164 533.416 355.433 535.174Z" fill="#2F2E41"/>
<path d="M345.563 544.84L347.025 550.112C347.025 550.112 347.025 555.385 348.488 558.021C349.95 560.657 351.412 566.369 345.563 566.809C339.714 567.248 337.155 564.612 337.155 564.612C337.155 564.612 338.252 561.097 337.155 559.779C336.059 558.461 337.155 555.824 337.155 555.824L338.252 545.279L345.563 544.84Z" fill="#2F2E41"/>
<path d="M335.693 500.902H338.983L355.433 526.825C355.433 526.825 352.509 535.174 348.122 536.052C348.122 536.052 347.391 535.613 344.101 532.977C340.811 530.34 332.038 517.159 332.038 517.159L330.941 509.69L335.693 500.902Z" fill="#2F2E41"/>
<path d="M327.651 357.227C334.112 357.227 339.349 350.932 339.349 343.167C339.349 335.402 334.112 329.107 327.651 329.107C321.191 329.107 315.953 335.402 315.953 343.167C315.953 350.932 321.191 357.227 327.651 357.227Z" fill="#FFB9B9"/>
<path d="M341.908 361.181L338.252 359.424C338.252 359.424 337.887 374.802 330.941 374.802C323.996 374.802 316.684 372.605 316.684 368.211C316.684 363.818 310.836 376.12 310.836 376.12C310.836 376.12 316.319 420.058 315.953 420.497C315.588 420.936 319.974 444.223 319.974 444.223C319.974 444.223 338.618 445.102 344.832 442.026C351.047 438.951 352.874 433.239 352.874 433.239L350.315 394.574L345.198 364.696L341.908 361.181Z" fill="#15C95A"/>
<path d="M335.695 357.227C335.695 357.227 337.156 355.469 339.349 357.227C341.542 358.984 355.068 362.939 355.068 364.257V380.953C355.068 380.953 355.433 383.589 354.337 385.347C353.24 387.104 350.681 393.695 352.143 396.771C353.606 399.846 359.089 435.436 357.992 439.829C356.896 444.223 353.971 448.178 353.971 448.178C353.971 448.178 338.252 408.194 338.252 396.771C338.252 385.347 338.405 371.332 338.405 371.332L335.695 357.227Z" fill="#575A89"/>
<path d="M351.778 364.696H355.068C355.068 364.696 367.497 393.256 367.497 398.968C367.497 404.679 359.454 436.314 358.723 436.754C357.992 437.193 355.799 431.921 355.799 431.921L353.971 414.346C353.971 414.346 357.627 403.801 356.53 402.043C355.433 400.286 349.95 386.665 349.95 386.665L351.778 364.696Z" fill="#575A89"/>
<path d="M319.418 357.227C319.418 357.227 315.222 360.742 314.491 362.06C313.76 363.378 302.793 370.847 302.428 372.605C302.062 374.362 310.836 389.301 310.836 389.301C310.836 389.301 314.491 413.906 314.491 415.664C314.491 417.421 315.953 447.299 315.953 447.299C315.953 447.299 330.941 452.571 330.941 449.496C330.941 446.42 331.307 402.482 329.113 392.816C326.92 383.15 319.418 357.227 319.418 357.227Z" fill="#575A89"/>
<path d="M321.802 448.177C321.802 448.177 334.231 468.388 327.651 467.949C321.071 467.51 316.684 450.374 316.684 450.374L321.802 448.177Z" fill="#FFB9B9"/>
<path d="M306.814 371.287L302.428 372.605C302.428 372.605 298.772 411.27 300.966 416.542C303.159 421.815 314.857 456.086 314.857 454.768C314.857 453.45 325.147 451.101 324.754 449.859C324.361 448.617 322.168 443.344 321.437 441.587C320.706 439.829 319.609 437.632 319.974 435.436C320.34 433.239 315.953 423.835 315.953 423.835C315.953 423.835 314.857 418.3 314.491 415.664C314.126 413.027 310.836 384.029 310.836 384.029L306.814 371.287Z" fill="#575A89"/>
<path d="M339.121 332.283C338.897 331.456 338.425 330.759 337.797 330.328C337.83 329.455 337.735 328.582 337.517 327.749C336.789 325.313 335.064 325.453 333.437 324.376C332.731 323.909 332.774 323.496 332.407 322.729C331.913 321.709 331.192 320.877 330.324 320.325C329.32 319.469 328.161 318.913 326.943 318.702C324.347 318.502 322.356 321.264 319.875 322.151C318.782 322.542 317.607 322.558 316.507 322.927C315.408 323.296 314.311 324.179 314.147 325.463C314.071 326.055 314.205 326.664 314.128 327.256C313.976 328.434 313.062 329.259 312.451 330.228C311.098 332.371 311.253 335.398 312.334 337.729C312.563 338.213 312.824 338.675 313.114 339.109C313.206 340.217 313.486 341.291 313.938 342.263C315.019 344.594 316.88 346.336 318.824 347.783C318.665 347.012 318.568 346.223 318.536 345.429C318.508 345.165 318.539 344.896 318.624 344.649C318.841 344.137 319.413 344.001 319.849 343.721C320.265 343.392 320.602 342.939 320.827 342.405C321.052 341.872 321.158 341.277 321.133 340.68C321.159 339.504 320.939 338.327 321.047 337.158C321.053 336.886 321.108 336.618 321.209 336.374C321.309 336.129 321.453 335.914 321.63 335.743C321.966 335.527 322.346 335.425 322.727 335.447C324.578 335.362 326.512 335.323 328.145 334.333C328.675 333.935 329.24 333.612 329.831 333.368C331.219 332.958 332.637 334.059 333.436 335.405C334.236 336.752 334.635 338.354 335.372 339.745C336.11 341.136 337.385 342.377 338.811 342.212C338.891 342.213 338.969 342.194 339.042 342.157C339.116 342.12 339.182 342.066 339.237 341.997C339.298 341.874 339.326 341.73 339.316 341.587L339.395 335.418C339.462 334.362 339.368 333.299 339.121 332.283V332.283Z" fill="#2F2E41"/>
<path d="M533.08 587C572.8 587 605 584.242 605 580.841C605 577.44 572.8 574.683 533.08 574.683C493.359 574.683 461.159 577.44 461.159 580.841C461.159 584.242 493.359 587 533.08 587Z" fill="#3F3D56"/>
<path d="M507.906 566.407C507.906 566.407 501.766 572.622 498.535 572.234C495.303 571.845 489.163 571.845 491.748 576.118C494.334 580.39 504.998 582.721 509.522 583.109C514.046 583.498 524.064 583.886 523.418 581.556C522.772 579.225 522.125 568.349 519.54 567.572C516.955 566.796 507.906 566.407 507.906 566.407Z" fill="#575A89"/>
<path d="M543.147 560.306C543.147 560.306 538.622 568.276 535.423 568.945C532.223 569.615 526.309 571.599 529.755 574.879C533.2 578.159 543.993 576.959 548.438 575.872C552.882 574.784 562.619 571.922 561.475 569.886C560.331 567.85 557.277 557.584 554.613 557.67C551.949 557.757 543.147 560.306 543.147 560.306Z" fill="#575A89"/>
<path d="M504.31 446.332C504.31 446.332 500.15 480.567 501.12 486.782C502.089 492.997 502.736 502.707 502.736 502.707C502.736 502.707 502.089 510.864 502.736 514.748C503.382 518.632 507.26 555.532 507.26 556.309C507.26 557.086 506.614 559.416 507.26 561.358C507.906 563.3 509.199 561.747 507.26 564.854C505.321 567.961 506.614 568.738 506.937 568.738C507.26 568.738 519.863 570.292 520.509 568.738C521.156 567.185 520.186 566.796 520.509 564.854C520.833 562.912 521.156 562.524 521.802 562.135C522.448 561.747 523.741 562.524 522.772 560.581C521.802 558.639 519.54 556.309 520.186 555.144C520.833 553.978 519.863 545.433 519.863 545.433C519.863 545.433 519.217 526.401 518.894 514.748C518.571 503.096 521.802 491.055 521.802 491.055C522.205 500.589 525.151 509.714 530.204 517.079C538.606 529.12 542.808 551.648 542.808 551.648C542.808 551.648 544.746 555.144 543.777 558.251C542.808 561.358 539.899 559.416 542.808 561.358C545.716 563.3 555.734 560.581 556.703 559.416C557.673 558.251 555.411 556.697 556.057 553.59C556.703 550.483 559.289 551.259 557.027 549.706C554.764 548.152 554.118 548.541 554.118 546.987C554.118 545.433 548.301 511.641 539.253 501.93L538.606 466.584C538.606 466.584 546.685 441.725 538.283 439.395C529.881 437.064 504.31 446.332 504.31 446.332Z" fill="#2F2E41"/>
<path d="M510.168 354.331C510.168 354.331 515.662 370.645 514.369 372.975C513.077 375.306 530.204 365.207 530.204 365.207C530.204 365.207 524.711 348.893 524.711 346.951C524.711 345.009 510.168 354.331 510.168 354.331Z" fill="#A0616A"/>
<path d="M514.208 358.409C520.812 358.409 526.165 351.975 526.165 344.038C526.165 336.101 520.812 329.667 514.208 329.667C507.604 329.667 502.251 336.101 502.251 344.038C502.251 351.975 507.604 358.409 514.208 358.409Z" fill="#A0616A"/>
<path d="M530.204 358.604C530.204 358.604 521.802 357.439 517.601 363.653C513.4 369.868 512.754 371.422 512.754 371.422C512.754 371.422 502.736 390.843 504.675 400.553C505.147 401.43 505.579 402.337 505.967 403.272C506.614 404.826 506.614 426.577 505.967 430.073C505.321 433.569 504.675 434.734 505.321 439.783C505.967 444.833 500.15 452.989 506.937 454.543C513.723 456.097 518.894 454.931 521.156 451.436C523.418 447.94 521.479 445.609 528.588 445.609C532.942 445.518 537.103 443.435 540.222 439.783C540.222 439.783 536.667 435.122 537.96 434.345C539.253 433.569 537.96 431.626 537.314 429.684C536.667 427.742 536.667 426.189 537.637 426.189C538.606 426.189 537.96 425.412 537.314 423.47C536.667 421.528 548.624 388.124 541.515 378.413C534.405 368.703 530.851 363.265 530.851 363.265C530.851 363.265 532.143 357.439 530.204 358.604Z" fill="#15C95A"/>
<path d="M511.784 395.503V412.594L501.443 453.766C501.443 453.766 494.657 475.129 501.443 475.129C508.229 475.129 507.866 454.739 507.866 454.739L522.448 423.858C522.448 423.858 528.265 399.388 527.619 397.446C526.973 395.503 511.784 395.503 511.784 395.503Z" fill="#A0616A"/>
<path d="M517.278 370.256C517.278 370.256 507.583 374.917 510.168 387.347C512.754 399.776 510.168 399.388 510.168 399.388C510.168 399.388 523.418 397.834 527.619 401.33L528.588 396.669C528.588 396.669 532.466 369.868 517.278 370.256Z" fill="#15C95A"/>
<path d="M510.125 333.249C509.379 333.567 508.579 333.657 507.796 333.511C507.014 333.365 506.274 332.987 505.644 332.411C505.03 331.81 504.598 330.982 504.414 330.057C504.23 329.131 504.304 328.158 504.626 327.289C505.244 325.829 506.568 325.028 507.837 324.431C510.637 323.115 513.585 322.315 516.584 322.057C518.014 321.935 519.515 321.954 520.791 322.739C521.422 323.128 521.97 323.688 522.595 324.091C523.745 324.83 525.082 324.995 526.325 325.471C527.596 325.969 528.763 326.79 529.747 327.877C530.731 328.965 531.509 330.293 532.029 331.774C532.367 332.779 532.603 333.829 532.732 334.902C533.104 337.84 532.844 340.843 531.978 343.626C530.601 348.035 527.711 351.889 527.548 356.594C525.78 355.052 525.124 352.268 523.707 350.27C522.653 348.792 521.213 347.789 519.623 347.422C519.182 347.39 518.759 347.204 518.405 346.889C518.158 346.534 518.004 346.101 517.96 345.642L516.75 338.775C516.504 337.378 516.193 335.854 515.237 335.005C514.642 334.547 513.967 334.262 513.265 334.17C511.597 333.819 509.907 333.634 508.213 333.616" fill="#2F2E41"/>
</g>
<defs>
<clipPath id="clip0">
<rect width="605" height="587" fill="white"/>
</clipPath>
</defs>
</svg>
