<svg width="304" height="262" viewBox="0 0 304 262" fill="none" xmlns="http://www.w3.org/2000/svg">
<g clip-path="url(#clip0)">
<path opacity="0.1" d="M304 171.229C304.016 184.842 301.615 198.199 297.059 209.843C297.059 224.082 292.77 236.988 285.813 246.395C284.072 248.746 282.197 250.85 280.211 252.68C280.132 252.758 280.049 252.832 279.967 252.906C279.818 253.042 279.669 253.177 279.518 253.317L279.377 253.445C278.742 254 278.094 254.535 277.432 255.036C271.335 259.677 264.626 262.07 257.831 262.029H57.7095C56.1151 262.029 54.5349 261.93 52.9688 261.732C47.4034 261.054 41.9346 259.094 36.7431 255.917C35.7297 255.297 34.7359 254.631 33.7615 253.918C33.2974 253.58 32.8377 253.234 32.3824 252.877C32.098 252.655 31.8137 252.425 31.532 252.194C29.8229 250.788 28.1673 249.23 26.5734 247.53C25.1167 245.987 23.7151 244.323 22.3748 242.545C13.3319 230.535 7.73816 213.914 7.73816 195.574C2.66944 183.494 -0.0192007 169.392 -2.01586e-05 154.987C-2.01586e-05 114.21 21.0568 81.154 47.0349 81.154C47.8322 81.154 48.6294 81.191 49.4266 81.2568C49.5408 81.2568 49.6524 81.2568 49.7667 81.2815C54.146 69.728 60.0001 59.1123 67.0394 49.7675C86.2361 24.3078 114.292 8.25879 145.545 8.25879C171.805 8.25879 195.809 19.5902 214.195 38.3127C221.162 32.2167 229.032 29.0211 237.035 29.0378C263.008 29.0378 284.07 62.0942 284.07 102.871C284.066 105.451 283.977 108.029 283.804 110.595C290.065 117.455 295.168 126.545 298.683 137.097C302.198 147.65 304.021 159.357 304 171.229V171.229Z" fill="#15C95A"/>
<path opacity="0.1" d="M242.002 112.685V108.271C244.232 106.87 246.078 104.312 247.224 101.036C248.369 97.7593 248.744 93.9683 248.282 90.3118C247.821 86.6553 246.553 83.3607 244.695 80.9922C242.837 78.6237 240.505 77.3285 238.098 77.3285C235.691 77.3285 233.359 78.6237 231.501 80.9922C229.643 83.3607 228.375 86.6553 227.913 90.3118C227.452 93.9683 227.826 97.7593 228.972 101.036C230.118 104.312 231.964 106.87 234.194 108.271V112.685C231.594 113.803 229.245 116.014 227.407 119.072C225.461 114.552 222.53 111.265 219.148 109.81V105.392C221.379 103.991 223.225 101.433 224.37 98.1566C225.516 94.8802 225.891 91.0892 225.429 87.4327C224.968 83.7762 223.7 80.4816 221.842 78.1131C219.984 75.7445 217.652 74.4494 215.245 74.4494C212.838 74.4494 210.506 75.7445 208.648 78.1131C206.79 80.4816 205.521 83.7762 205.06 87.4327C204.599 91.0892 204.973 94.8802 206.119 98.1566C207.265 101.433 209.111 103.991 211.341 105.392V109.806C209.029 110.799 206.911 112.658 205.173 115.218C203.234 111.19 200.485 108.273 197.358 106.927V102.513C199.588 101.112 201.434 98.5538 202.58 95.2775C203.726 92.0011 204.1 88.2101 203.639 84.5536C203.178 80.8971 201.91 77.6025 200.052 75.234C198.194 72.8654 195.862 71.5703 193.455 71.5703C191.048 71.5703 188.715 72.8654 186.857 75.234C184.999 77.6025 183.731 80.8971 183.27 84.5536C182.809 88.2101 183.183 92.0011 184.329 95.2775C185.475 98.5538 187.321 101.112 189.551 102.513V106.927C186.891 108.074 184.495 110.364 182.642 113.532C181.816 110.253 180.507 107.317 178.82 104.957C177.134 102.597 175.115 100.877 172.924 99.9344V95.5211C175.154 94.1196 177 91.5617 178.146 88.2853C179.292 85.0089 179.666 81.2179 179.205 77.5614C178.744 73.9049 177.475 70.6103 175.617 68.2418C173.759 65.8733 171.427 64.5781 169.02 64.5781C166.613 64.5781 164.281 65.8733 162.423 68.2418C160.565 70.6103 159.297 73.9049 158.836 77.5614C158.374 81.2179 158.749 85.0089 159.895 88.2853C161.04 91.5617 162.886 94.1196 165.117 95.5211V99.9344C162.269 101.162 159.729 103.696 157.831 107.204C155.933 110.712 154.768 115.028 154.487 119.582C153.146 118.141 151.657 117.061 150.084 116.386V111.973C152.314 110.572 154.16 108.014 155.306 104.737C156.452 101.461 156.826 97.6701 156.365 94.0135C155.904 90.357 154.636 87.0625 152.778 84.6939C150.92 82.3254 148.587 81.0302 146.18 81.0302C143.773 81.0302 141.441 82.3254 139.583 84.6939C137.725 87.0625 136.457 90.357 135.996 94.0135C135.535 97.6701 135.909 101.461 137.055 104.737C138.201 108.014 140.047 110.572 142.277 111.973V116.386C140.292 117.242 138.446 118.736 136.859 120.769C135.272 122.803 133.98 125.332 133.066 128.191C131.835 126.966 130.491 126.037 129.08 125.435V121.022C131.311 119.62 133.157 117.062 134.303 113.786C135.448 110.51 135.823 106.719 135.361 103.062C134.9 99.4057 133.632 96.1111 131.774 93.7426C129.916 91.3741 127.584 90.0789 125.177 90.0789C122.77 90.0789 120.438 91.3741 118.58 93.7426C116.722 96.1111 115.453 99.4057 114.992 103.062C114.531 106.719 114.905 110.51 116.051 113.786C117.197 117.062 119.043 119.62 121.273 121.022V125.435C119.942 126.004 118.67 126.865 117.497 127.993C116.578 125.182 115.29 122.697 113.715 120.699C112.141 118.7 110.315 117.232 108.353 116.386V111.973C110.583 110.572 112.429 108.014 113.575 104.737C114.721 101.461 115.095 97.6701 114.634 94.0135C114.173 90.357 112.905 87.0625 111.047 84.6939C109.189 82.3254 106.857 81.0302 104.45 81.0302C102.042 81.0302 99.7104 82.3254 97.8524 84.6939C95.9944 87.0625 94.7262 90.357 94.2649 94.0135C93.8036 97.6701 94.178 101.461 95.3238 104.737C96.4696 108.014 98.3157 110.572 100.546 111.973V116.386C98.4347 117.295 96.4823 118.926 94.8326 121.159C93.1829 123.391 91.878 126.168 91.014 129.285C89.5279 127.519 87.8364 126.212 86.0315 125.435V121.022C88.2617 119.62 90.1077 117.062 91.2536 113.786C92.3994 110.51 92.7737 106.719 92.3124 103.062C91.8511 99.4057 90.5829 96.1111 88.725 93.7426C86.867 91.3741 84.5348 90.0789 82.1278 90.0789C79.7208 90.0789 77.3887 91.3741 75.5307 93.7426C73.6727 96.1111 72.4045 99.4057 71.9433 103.062C71.482 106.719 71.8563 110.51 73.0021 113.786C74.1479 117.062 75.994 119.62 78.2242 121.022V125.435C75.1445 126.756 72.4294 129.603 70.4948 133.541C68.5601 137.478 67.5126 142.288 67.5125 147.234V249.237H96.7273V240.189H110.545V249.237H139.776V240.189H160.769V223.737H178.839V230.729H200.629V233.608H223.483V236.487H252.713V134.484C252.713 129.537 251.666 124.727 249.731 120.79C247.796 116.853 245.081 114.006 242.002 112.685V112.685Z" fill="#15C95A"/>
<path d="M130.417 69.5103H154.713C160.656 69.5097 166.54 71.3209 172.03 74.8403C177.52 78.3597 182.509 83.5185 186.711 90.0221C190.913 96.5256 194.246 104.247 196.52 112.744C198.795 121.242 199.965 130.349 199.965 139.547V234.443H85.1678V139.547C85.1678 120.972 89.9351 103.158 98.421 90.0235C106.907 76.8891 118.416 69.5103 130.417 69.5103V69.5103Z" fill="#2F2E41"/>
<path opacity="0.2" d="M133.074 73.3271H152.056C157.998 73.3266 163.883 75.1378 169.373 78.6572C174.863 82.1766 179.852 87.3354 184.054 93.839C188.256 100.343 191.589 108.063 193.863 116.561C196.137 125.059 197.308 134.166 197.308 143.364V230.622H87.8252V143.364C87.8252 124.789 92.5925 106.975 101.078 93.8404C109.564 80.706 121.074 73.3271 133.074 73.3271V73.3271Z" fill="black"/>
<path d="M277.427 247.847V255.028C271.329 259.669 264.621 262.062 257.826 262.02H57.7095C56.1151 262.02 54.5349 261.922 52.9688 261.724C47.4034 261.046 41.9346 259.086 36.7431 255.909C35.7297 255.289 34.7359 254.623 33.7615 253.91C33.2974 253.572 32.8377 253.225 32.3824 252.869C32.098 252.647 31.8137 252.417 31.532 252.186C29.823 250.782 28.1674 249.228 26.5734 247.53V228.026C26.5734 224.874 27.3825 221.85 28.8228 219.621C30.263 217.392 32.2164 216.14 34.2531 216.14H255.139C256.998 216.145 258.791 217.193 260.188 219.089L274.804 238.913C275.627 240.027 276.287 241.401 276.739 242.941C277.192 244.482 277.426 246.155 277.427 247.847V247.847Z" fill="#2F2E41"/>
<path d="M128.262 92.8762C122.467 93.4685 116.695 94.4282 110.944 95.7554C109.31 96.1338 107.652 96.5533 106.161 97.672C105.002 98.611 103.934 99.7961 102.988 101.193C98.7193 107.112 95.2822 114.326 92.8901 122.387C91.4099 127.385 90.347 132.67 88.9519 137.708C83.9853 155.703 74.9769 170.419 69.734 188.224C68.5993 192.078 67.6427 196.101 67.2627 200.292C66.8694 204.627 67.3158 209.686 69.6171 212.22C70.68 213.384 71.9715 213.865 73.2364 214.276C89.1596 219.734 105.268 223.806 121.486 226.472C119.729 223.847 119.142 219.78 119.373 216.02C119.604 212.261 120.558 208.707 121.499 205.224C112.321 202.09 103.165 198.799 94.0327 195.352C92.6695 194.838 91.0326 193.872 90.8652 191.716C90.7801 190.618 91.1309 189.561 91.4764 188.595C95.3712 177.678 100.042 167.47 105.401 158.158C105.401 169.699 105.031 182.734 105.031 194.279H191.156C190.12 187.692 189.511 180.961 189.338 174.187C188.937 152.075 193.747 130.132 192.498 108.066C192.381 106.03 192.2 103.932 191.512 102.188C190.324 99.1774 187.954 97.9312 185.775 96.9029C177.42 92.9708 168.89 88.9935 160.158 89.302C157.562 89.3966 154.976 89.8655 152.396 90.3385C144.533 91.774 136.162 92.066 128.262 92.8762Z" fill="#15C95A"/>
<path d="M87.9262 225.526L94.1975 256.591C94.2376 256.788 94.3172 256.96 94.4247 257.082C94.5322 257.204 94.6621 257.27 94.7954 257.27H121.706L115.329 221.075L88.4736 224.271C88.38 224.283 88.2894 224.328 88.2084 224.401C88.1274 224.474 88.0581 224.575 88.0055 224.695C87.953 224.816 87.9186 224.953 87.9049 225.097C87.8911 225.24 87.8984 225.387 87.9262 225.526V225.526Z" fill="#656478"/>
<path d="M133.93 106.235C132.761 107.276 131.398 107.65 130.069 108.008L121.494 110.311C119.825 110.76 118.068 111.27 116.782 112.977C114.151 116.46 114.72 122.873 115.517 128.088L117.112 138.551C118.313 146.416 119.541 154.374 122.004 161.498C126.306 173.932 134.198 182.886 142.877 187.2C145.978 188.743 149.255 189.746 152.492 189.195C158.832 188.118 164.256 181.121 167.599 172.71C170.942 164.299 172.533 154.543 173.992 144.927C175.393 135.722 176.724 126.385 176.634 116.925C176.607 113.98 176.416 110.904 175.401 108.407C173.176 102.924 168.135 102.513 164.003 103.525C163.36 103.685 162.693 103.858 162.074 103.558C160.214 102.661 160.171 98.7086 159.374 95.9652C157.867 90.791 153.398 89.8738 149.744 90.3427C146.09 90.8116 140.401 91.4162 137.217 94.6202C134.156 97.6844 137.52 103.031 133.93 106.235Z" fill="#FBBEBE"/>
<path opacity="0.1" d="M133.93 106.235C132.761 107.276 131.398 107.65 130.069 108.008L121.494 110.311C119.825 110.76 118.068 111.27 116.782 112.977C114.151 116.46 114.72 122.873 115.517 128.088L117.112 138.551C118.313 146.416 119.541 154.374 122.004 161.498C126.306 173.932 134.198 182.886 142.877 187.2C145.978 188.743 149.255 189.746 152.492 189.195C158.832 188.118 164.256 181.121 167.599 172.71C170.942 164.299 172.533 154.543 173.992 144.927C175.393 135.722 176.724 126.385 176.634 116.925C176.607 113.98 176.416 110.904 175.401 108.407C173.176 102.924 168.135 102.513 164.003 103.525C163.36 103.685 162.693 103.858 162.074 103.558C160.214 102.661 160.171 98.7086 159.374 95.9652C157.867 90.791 153.398 89.8738 149.744 90.3427C146.09 90.8116 140.401 91.4162 137.217 94.6202C134.156 97.6844 137.52 103.031 133.93 106.235Z" fill="black"/>
<path d="M126.832 118.023C128.129 122.235 129.102 126.702 130.67 130.687C131.916 133.854 133.513 136.647 135.102 139.423C139.218 146.629 143.388 153.893 148.482 159.38C150.591 142.606 155.687 127.078 163.195 114.548C165.39 110.9 168.138 107.305 171.359 107.44C173.357 107.527 175.201 109.061 176.865 110.768C178.725 112.672 180.484 114.881 181.821 117.624C183.933 121.992 184.845 127.524 185.01 132.974C185.174 138.424 184.627 143.861 184.085 149.249L181.295 177.099C181.132 178.711 180.907 180.492 180.056 181.459C179.573 181.932 179.029 182.235 178.462 182.347C168.319 185.403 157.865 183.42 147.53 183.264C136.104 183.096 124.361 185.111 113.538 179.484C112.972 179.188 112.384 178.847 112.002 178.143C111.75 177.613 111.57 177.01 111.47 176.371C108.948 163.735 110.971 150.158 112.467 137.141C113.651 126.824 114.495 116.421 114.994 105.972C115.039 105.03 121.725 107.111 122.472 107.778C124.504 109.641 125.854 114.848 126.832 118.023Z" fill="#15C95A"/>
<g opacity="0.2">
<path opacity="0.2" d="M44.3431 220.783C44.3431 220.973 44.3298 221.158 44.3165 221.339C43.3032 220.719 42.3093 220.053 41.3349 219.34C40.8144 219.234 40.3303 218.868 39.9558 218.299C39.6715 218.077 39.3871 217.847 39.1054 217.616C39.1692 217.41 39.2411 217.209 39.3207 217.016C39.8681 215.675 40.6998 214.836 41.6166 214.881C42.5334 214.926 43.328 215.844 43.8196 217.23C44.1955 218.321 44.3763 219.548 44.3431 220.783V220.783Z" fill="#3F3D56"/>
<path opacity="0.2" d="M44.4866 213.742C44.4685 214.976 44.2382 216.179 43.8196 217.23C43.2722 218.566 42.4404 219.405 41.5236 219.36L41.335 219.34C40.8144 219.234 40.3303 218.868 39.9558 218.299C39.7018 217.926 39.4875 217.493 39.3207 217.016C38.954 215.921 38.7746 214.699 38.7997 213.466C38.8249 212.233 39.0536 211.031 39.4642 209.974C40.0116 208.633 40.8433 207.794 41.7601 207.84C42.6769 207.885 43.4715 208.802 43.9631 210.188C44.3391 211.279 44.5198 212.506 44.4866 213.742V213.742Z" fill="#3F3D56"/>
<path opacity="0.2" d="M44.63 206.711C44.6949 203.53 43.4752 200.889 41.9056 200.812C40.3361 200.736 39.011 203.252 38.9461 206.433C38.8811 209.614 40.1009 212.255 41.6704 212.331C43.24 212.408 44.565 209.892 44.63 206.711Z" fill="#3F3D56"/>
<path opacity="0.2" d="M44.7749 199.669C44.8399 196.489 43.6202 193.848 42.0506 193.771C40.481 193.694 39.156 196.211 39.0911 199.391C39.0261 202.572 40.2459 205.213 41.8154 205.29C43.385 205.367 44.71 202.85 44.7749 199.669Z" fill="#3F3D56"/>
<path opacity="0.2" d="M44.9173 192.628C44.9822 189.447 43.7625 186.806 42.1929 186.729C40.6234 186.652 39.2983 189.169 39.2334 192.35C39.1685 195.531 40.3882 198.171 41.9577 198.248C43.5273 198.325 44.8523 195.809 44.9173 192.628Z" fill="#3F3D56"/>
<path opacity="0.2" d="M32.4206 143.771C32.0464 142.987 31.7089 142.162 31.4108 141.303L38.9205 139.769L30.8262 139.473C30.1048 136.824 29.74 133.976 29.7542 131.102C29.7684 128.228 30.1612 125.389 30.9086 122.757L41.5698 131.987L31.8041 120.125C32.7892 117.659 34.0924 115.534 35.6321 113.882C37.1717 112.23 38.9149 111.088 40.7527 110.525C42.5905 109.963 44.4835 109.994 46.3133 110.615C48.1432 111.236 49.8707 112.434 51.3879 114.135C52.9051 115.836 54.1794 118.003 55.1312 120.5C56.0831 122.997 56.692 125.772 56.92 128.65C57.1481 131.528 56.9902 134.448 56.4564 137.227C55.9226 140.006 55.0243 142.585 53.8175 144.803C54.399 146.024 54.8935 147.338 55.2923 148.723L45.4416 156.061L55.8929 151.195C56.5513 154.555 56.658 158.116 56.2033 161.556C55.7486 164.996 54.7468 168.206 53.2887 170.896C54.8065 174.083 55.7142 177.867 55.9078 181.815C56.1013 185.763 55.5731 189.716 54.3833 193.221C53.1936 196.726 51.3905 199.642 49.1803 201.635C46.9701 203.628 44.442 204.619 41.8853 204.492C39.3286 204.366 36.8464 203.128 34.7228 200.921C32.5992 198.714 30.92 195.626 29.8771 192.01C28.8342 188.395 28.4698 184.398 28.8256 180.477C29.1814 176.557 30.2431 172.87 31.8891 169.839C30.0763 166.031 29.1431 161.391 29.2395 156.663C29.3359 151.935 30.4563 147.395 32.4206 143.771V143.771Z" fill="#15C95A"/>
<path opacity="0.1" d="M56.4685 157.99C56.3749 162.721 55.2512 167.265 53.2797 170.884C54.7996 174.07 55.7094 177.853 55.9049 181.802C56.1003 185.751 55.5736 189.705 54.385 193.212C53.1964 196.718 51.3939 199.637 49.1839 201.632C46.9738 203.627 44.4454 204.619 41.8881 204.495C39.3308 204.37 36.8478 203.133 34.7234 200.926C32.599 198.719 30.919 195.631 29.8756 192.015C28.8322 188.399 28.4676 184.401 28.8235 180.479C29.1794 176.558 30.2414 172.87 31.8881 169.839C30.1263 166.162 56.5163 155.625 56.4685 157.99Z" fill="black"/>
</g>
<path opacity="0.1" d="M18.0753 66.9643C21.2497 66.9643 23.8231 62.9813 23.8231 58.0679C23.8231 53.1545 21.2497 49.1714 18.0753 49.1714C14.9008 49.1714 12.3274 53.1545 12.3274 58.0679C12.3274 62.9813 14.9008 66.9643 18.0753 66.9643Z" fill="#15C95A"/>
<path opacity="0.1" d="M42.0312 17.793C45.2056 17.793 47.779 13.8099 47.779 8.89648C47.779 3.98309 45.2056 0 42.0312 0C38.8568 0 36.2834 3.98309 36.2834 8.89648C36.2834 13.8099 38.8568 17.793 42.0312 17.793Z" fill="#15C95A"/>
<path opacity="0.1" d="M40.0834 57.5865C45.4035 57.5865 49.7162 50.9112 49.7162 42.6768C49.7162 34.4424 45.4035 27.7671 40.0834 27.7671C34.7633 27.7671 30.4505 34.4424 30.4505 42.6768C30.4505 50.9112 34.7633 57.5865 40.0834 57.5865Z" fill="#15C95A"/>
<path d="M144.294 110.846C156.622 110.846 166.615 95.3779 166.615 76.2968C166.615 57.2156 156.622 41.7473 144.294 41.7473C131.966 41.7473 121.972 57.2156 121.972 76.2968C121.972 95.3779 131.966 110.846 144.294 110.846Z" fill="#FBBEBE"/>
<path d="M135.227 8.5017C129.272 9.6698 122.844 11.2122 118.634 17.8342C116.28 21.5359 114.901 26.4715 113.766 31.3578C112.007 38.9669 110.697 46.9873 111.109 55.0612C111.476 62.2837 113.203 69.6707 111.805 76.5888C111.162 79.7723 109.9 82.5527 108.919 85.5182C107.102 91.0255 106.246 97.1992 105.932 103.365C105.714 107.605 105.757 111.969 106.658 115.988C107.617 120.265 109.488 123.905 110.673 128.043C112.427 134.155 112.602 141.032 112.738 147.715C112.873 154.399 112.988 161.038 113.089 167.697C113.152 171.884 113.158 176.367 111.662 179.859C117.186 176.433 122.788 172.937 127.515 167.343C132.243 161.749 136.069 153.683 136.68 144.52C137.175 137.091 135.554 129.77 134.156 122.622C130.701 104.936 128.469 86.0817 130.983 68.0214C131.889 61.5187 134.092 54.2592 138.32 53.0623C140.9 52.3343 143.475 54.1563 145.8 56.0401C151.296 60.4904 156.961 66.2486 159.007 75.3096C160.868 83.5028 159.302 92.6296 156.882 100.453C154.461 108.276 151.166 115.469 149.284 123.646C146.396 136.191 147.209 150.878 152.008 161.93C156.807 172.982 165.675 179.781 174.202 177.996C173.535 173.537 171.444 169.934 170.322 165.698C168.284 158.002 169.658 149.151 171.85 141.558C174.043 133.966 177.035 126.887 178.406 118.825C179.373 113.15 179.49 107.219 179.485 101.349C179.485 92.1114 179.19 82.8694 178.616 73.6727C178.042 64.4759 177.165 55.164 175.273 46.3169C173.753 39.2219 171.539 32.3614 168.228 26.9198C164.705 21.1246 160.118 17.1966 155.614 13.3468C152.919 11.0518 150.166 8.72792 147.142 7.86829C144.751 7.18964 142.237 6.22308 139.797 6.16138C138.139 6.12437 136.396 6.67963 135.227 8.5017Z" fill="#434175"/>
<path d="M177.24 53.0947L162.879 48.7821C162.461 48.6566 162.056 49.0792 161.975 49.7259L155.095 104.615C155.014 105.262 155.287 105.888 155.705 106.013L170.066 110.326C170.483 110.451 170.888 110.028 170.969 109.382L177.849 54.4928C177.93 53.8461 177.657 53.2202 177.24 53.0947Z" fill="#656478"/>
<path d="M178.325 53.4209L163.964 49.1083C163.546 48.9828 163.142 49.4054 163.061 50.052L156.18 104.941C156.099 105.588 156.372 106.214 156.79 106.339L171.151 110.652C171.569 110.777 171.973 110.355 172.054 109.708L178.935 54.819C179.016 54.1723 178.743 53.5463 178.325 53.4209Z" fill="#3F3D56"/>
<path d="M170.656 63.98C170.937 61.7389 170.68 59.7765 170.082 59.597C169.484 59.4174 168.772 61.0886 168.491 63.3298C168.21 65.5709 168.467 67.5333 169.065 67.7128C169.663 67.8924 170.375 66.2211 170.656 63.98Z" fill="#15C95A"/>
<path d="M174.056 82.6719C173.354 80.7511 172.605 78.7645 171.422 77.5347C170.743 76.8894 170.012 76.3821 169.249 76.0252C166.674 74.6309 164.056 73.2243 161.333 73.0022C160.889 72.9693 160.381 73.0022 160.092 73.5286C159.496 74.6104 160.44 76.0828 161.255 76.7368L167.745 81.9398L161.763 80.9609C160.894 80.8169 159.656 81.183 159.72 82.5321C159.762 83.4164 160.389 83.8976 160.931 84.1773C164.771 86.2338 169.209 87.8461 171.311 93.2259C168.51 92.8146 165.648 92.4033 162.903 93.3576C162.151 93.6208 161.372 94.028 160.881 94.9452C160.389 95.8624 160.333 97.413 160.953 98.141C161.335 98.5811 161.851 98.5934 162.329 98.5523C164.277 98.4083 166.275 97.8079 168.146 98.6675C170.017 99.5271 171.678 102.563 171.032 105.409C172.69 105.639 174.651 105.409 176.184 104.302C177.875 103.068 177.835 100.749 177.731 97.9518C177.51 92.4732 175.754 87.3607 174.056 82.6719Z" fill="#FBBEBE"/>
<path opacity="0.1" d="M172.379 172.332C170.892 156.146 168.852 140.094 166.267 124.242C164.939 116.016 163.429 107.65 163.809 99.1858C169.299 100.267 174.218 101.07 179.278 97.5981C179.36 102.044 181.443 105.824 182.201 110.122C182.708 113.001 182.517 116.049 182.716 119.015C182.916 121.98 183.513 124.855 184.026 127.738C186.571 142.026 187.171 156.976 185.788 171.641C181.093 172.505 177.064 173.455 172.379 172.332Z" fill="black"/>
<path d="M171.582 172.332C170.095 156.146 168.055 140.094 165.47 124.242C164.141 116.016 162.632 107.65 163.012 99.1858C168.502 100.267 173.421 101.07 178.48 97.5981C178.563 102.044 180.646 105.824 181.404 110.122C181.911 113.001 181.72 116.049 181.919 119.015C182.118 121.98 182.716 124.855 183.229 127.738C185.774 142.026 186.374 156.976 184.991 171.641C180.295 172.505 176.267 173.455 171.582 172.332Z" fill="#15C95A"/>
<path d="M94.7688 252.445L97.3704 152.552C97.4118 150.964 97.8511 149.464 98.5952 148.369C99.3393 147.274 100.33 146.671 101.356 146.687L204.068 148.209C204.612 148.218 205.149 148.4 205.646 148.746C206.142 149.091 206.587 149.591 206.953 150.215C207.318 150.84 207.597 151.574 207.77 152.372C207.944 153.171 208.009 154.016 207.961 154.856L202.535 250.553C202.449 252.058 202.007 253.461 201.293 254.491C200.579 255.521 199.644 256.105 198.668 256.131L98.7841 258.804C98.2463 258.818 97.7124 258.662 97.215 258.346C96.7176 258.029 96.2671 257.559 95.8912 256.964C95.5153 256.369 95.2219 255.661 95.0289 254.884C94.8359 254.107 94.7474 253.277 94.7688 252.445Z" fill="#3F3D56"/>
<path d="M152.133 200.304C154.628 200.304 156.65 196.622 156.65 192.078C156.65 187.535 154.628 183.852 152.133 183.852C149.638 183.852 147.615 187.535 147.615 192.078C147.615 196.622 149.638 200.304 152.133 200.304Z" fill="#15C95A"/>
<path d="M248.727 186.427L248.515 189.249L245.06 234.846C236.054 244.565 229.05 235.224 228.989 234.846L224.636 189.035L224.389 186.427H248.727Z" fill="#3F3D56"/>
<path opacity="0.1" d="M248.727 186.427L248.515 189.249C238.369 198.38 227.546 191.272 224.636 189.035L224.389 186.427H248.727Z" fill="black"/>
<path d="M223.881 183.951V188.064C223.881 188.064 237.301 200.14 249.392 188.064V183.951H223.881Z" fill="#15C95A"/>
<path d="M225.441 178.518C225.441 178.518 225.05 181.294 223.881 181.537V185.037H249.392V181.899C249.392 181.899 247.832 181.294 248.063 178.518H225.441Z" fill="#15C95A"/>
<path d="M236.559 183.951C242.914 183.951 248.066 181.653 248.066 178.818C248.066 175.983 242.914 173.685 236.559 173.685C230.205 173.685 225.053 175.983 225.053 178.818C225.053 181.653 230.205 183.951 236.559 183.951Z" fill="#15C95A"/>
<path opacity="0.1" d="M236.559 183.951C242.914 183.951 248.066 181.653 248.066 178.818C248.066 175.983 242.914 173.685 236.559 173.685C230.205 173.685 225.053 175.983 225.053 178.818C225.053 181.653 230.205 183.951 236.559 183.951Z" fill="black"/>
<path opacity="0.1" d="M246.66 178.518C246.66 180.574 242.297 182.261 236.91 182.261H236.623C233.006 182.22 229.881 181.438 228.287 180.27C227.567 179.744 227.158 179.147 227.158 178.518C227.158 177.473 228.274 176.527 230.081 175.848C232.326 175.089 234.62 174.728 236.918 174.775C242.297 174.775 246.66 176.449 246.66 178.518Z" fill="black"/>
<path opacity="0.1" d="M236.623 182.261C233.006 182.22 229.881 181.438 228.287 180.27L230.073 175.832L236.623 182.261Z" fill="black"/>
<path opacity="0.1" d="M226.432 178.806C226.294 178.76 226.111 178.835 226.084 179.048C226.081 179.157 226.099 179.265 226.137 179.357C226.442 180.102 226.884 180.689 227.407 181.039C227.497 181.117 227.595 181.166 227.697 181.183C227.75 181.193 227.804 181.178 227.851 181.14C227.899 181.101 227.938 181.042 227.963 180.969C227.977 180.907 227.983 180.841 227.98 180.775C227.977 180.709 227.965 180.645 227.944 180.587C227.863 180.364 227.75 180.173 227.615 180.027C227.259 179.595 226.895 178.925 226.432 178.806Z" fill="black"/>
<path d="M236.947 222.77C240.738 222.77 243.811 218.013 243.811 212.146C243.811 206.278 240.738 201.522 236.947 201.522C233.156 201.522 230.083 206.278 230.083 212.146C230.083 218.013 233.156 222.77 236.947 222.77Z" fill="#15C95A"/>
<path d="M50.0457 212.171H53.2638C55.0257 212.171 56.7155 213.254 57.9613 215.182C59.2072 217.111 59.9071 219.726 59.9071 222.453V237.733H43.4024V222.453C43.4024 219.726 44.1023 217.111 45.3482 215.182C46.594 213.254 48.2838 212.171 50.0457 212.171V212.171Z" fill="#3F3D56"/>
<path opacity="0.1" d="M50.0457 212.171H53.2638C55.0257 212.171 56.7155 213.254 57.9613 215.182C59.2072 217.111 59.9071 219.726 59.9071 222.453V237.733H43.4024V222.453C43.4024 219.726 44.1023 217.111 45.3482 215.182C46.594 213.254 48.2838 212.171 50.0457 212.171V212.171Z" fill="black"/>
<path d="M50.9944 217.793C51.7238 217.793 52.3151 216.878 52.3151 215.749C52.3151 214.62 51.7238 213.705 50.9944 213.705C50.265 213.705 49.6737 214.62 49.6737 215.749C49.6737 216.878 50.265 217.793 50.9944 217.793Z" fill="#3F3D56"/>
<path d="M50.9944 215.239C51.7238 215.239 52.3151 214.324 52.3151 213.195C52.3151 212.066 51.7238 211.151 50.9944 211.151C50.265 211.151 49.6737 212.066 49.6737 213.195C49.6737 214.324 50.265 215.239 50.9944 215.239Z" fill="#3F3D56"/>
<path d="M50.9944 212.681C51.7238 212.681 52.3151 211.765 52.3151 210.636C52.3151 209.507 51.7238 208.592 50.9944 208.592C50.265 208.592 49.6737 209.507 49.6737 210.636C49.6737 211.765 50.265 212.681 50.9944 212.681Z" fill="#3F3D56"/>
<path d="M50.9944 210.126C51.7238 210.126 52.3151 209.211 52.3151 208.082C52.3151 206.953 51.7238 206.038 50.9944 206.038C50.265 206.038 49.6737 206.953 49.6737 208.082C49.6737 209.211 50.265 210.126 50.9944 210.126Z" fill="#3F3D56"/>
<path d="M50.9944 207.572C51.7238 207.572 52.3151 206.657 52.3151 205.528C52.3151 204.399 51.7238 203.484 50.9944 203.484C50.265 203.484 49.6737 204.399 49.6737 205.528C49.6737 206.657 50.265 207.572 50.9944 207.572Z" fill="#3F3D56"/>
<path d="M50.9944 205.018C51.7238 205.018 52.3151 204.103 52.3151 202.974C52.3151 201.845 51.7238 200.93 50.9944 200.93C50.265 200.93 49.6737 201.845 49.6737 202.974C49.6737 204.103 50.265 205.018 50.9944 205.018Z" fill="#3F3D56"/>
<path d="M50.9944 202.464C51.7238 202.464 52.3151 201.549 52.3151 200.42C52.3151 199.291 51.7238 198.375 50.9944 198.375C50.265 198.375 49.6737 199.291 49.6737 200.42C49.6737 201.549 50.265 202.464 50.9944 202.464Z" fill="#3F3D56"/>
<path d="M52.9768 203.484C53.7062 203.484 54.2975 202.569 54.2975 201.44C54.2975 200.311 53.7062 199.396 52.9768 199.396C52.2474 199.396 51.6561 200.311 51.6561 201.44C51.6561 202.569 52.2474 203.484 52.9768 203.484Z" fill="#3F3D56"/>
<path d="M54.2975 202.464C55.0269 202.464 55.6182 201.549 55.6182 200.42C55.6182 199.291 55.0269 198.375 54.2975 198.375C53.5681 198.375 52.9768 199.291 52.9768 200.42C52.9768 201.549 53.5681 202.464 54.2975 202.464Z" fill="#3F3D56"/>
<path d="M55.6182 201.44C56.3476 201.44 56.9389 200.524 56.9389 199.395C56.9389 198.267 56.3476 197.351 55.6182 197.351C54.8888 197.351 54.2975 198.267 54.2975 199.395C54.2975 200.524 54.8888 201.44 55.6182 201.44Z" fill="#3F3D56"/>
<path d="M50.9944 199.91C51.7238 199.91 52.3151 198.994 52.3151 197.865C52.3151 196.736 51.7238 195.821 50.9944 195.821C50.265 195.821 49.6737 196.736 49.6737 197.865C49.6737 198.994 50.265 199.91 50.9944 199.91Z" fill="#3F3D56"/>
<path d="M50.9944 197.355C51.7238 197.355 52.3151 196.44 52.3151 195.311C52.3151 194.182 51.7238 193.267 50.9944 193.267C50.265 193.267 49.6737 194.182 49.6737 195.311C49.6737 196.44 50.265 197.355 50.9944 197.355Z" fill="#3F3D56"/>
<path d="M50.9944 194.797C51.7238 194.797 52.3151 193.882 52.3151 192.753C52.3151 191.624 51.7238 190.709 50.9944 190.709C50.265 190.709 49.6737 191.624 49.6737 192.753C49.6737 193.882 50.265 194.797 50.9944 194.797Z" fill="#3F3D56"/>
<path d="M50.9944 192.243C51.7238 192.243 52.3151 191.328 52.3151 190.199C52.3151 189.07 51.7238 188.155 50.9944 188.155C50.265 188.155 49.6737 189.07 49.6737 190.199C49.6737 191.328 50.265 192.243 50.9944 192.243Z" fill="#3F3D56"/>
<path d="M56.4685 183.61C56.1417 183.684 55.8122 183.737 55.4827 183.77C55.7901 183.354 56.0754 182.9 56.3357 182.413C56.1518 181.555 55.8828 180.746 55.5385 180.015C55.2111 180.3 54.8492 180.476 54.4755 180.533C54.1487 180.607 53.8192 180.661 53.4896 180.698C53.9228 180.151 54.3267 179.328 54.7519 178.641C53.7693 177.262 52.5025 176.467 51.1769 176.398C49.8512 176.329 48.5527 176.989 47.5121 178.262C46.4715 179.535 45.7564 181.338 45.4939 183.351C45.2314 185.363 45.4386 187.454 46.0785 189.253C46.7185 191.051 47.7498 192.44 48.989 193.172C50.2281 193.904 51.5949 193.932 52.8462 193.251C54.0976 192.57 55.1523 191.224 55.8228 189.453C56.4934 187.681 56.7363 185.599 56.5084 183.577L56.4685 183.61Z" fill="#15C95A"/>
<path d="M60.8824 193.765C60.5454 194.085 60.1653 194.281 59.7716 194.337C59.4447 194.411 59.1152 194.468 58.7857 194.501C59.1359 194.015 59.4628 193.49 59.7636 192.93C58.9673 192.609 58.1223 192.758 57.3936 193.35C56.6649 193.942 56.1051 194.933 55.8235 196.13C55.5419 197.327 55.5588 198.643 55.8709 199.822C56.183 201 56.7678 201.956 57.5111 202.503C58.2544 203.049 59.1027 203.147 59.8901 202.777C60.6775 202.407 61.3474 201.596 61.7688 200.502C62.1903 199.408 62.333 198.11 62.1691 196.862C62.0051 195.614 61.5463 194.505 60.8824 193.753V193.765Z" fill="#15C95A"/>
<path d="M49.0147 203.484C49.7441 203.484 50.3354 202.569 50.3354 201.44C50.3354 200.311 49.7441 199.396 49.0147 199.396C48.2853 199.396 47.694 200.311 47.694 201.44C47.694 202.569 48.2853 203.484 49.0147 203.484Z" fill="#3F3D56"/>
<path d="M47.694 202.464C48.4234 202.464 49.0147 201.549 49.0147 200.42C49.0147 199.291 48.4234 198.375 47.694 198.375C46.9646 198.375 46.3733 199.291 46.3733 200.42C46.3733 201.549 46.9646 202.464 47.694 202.464Z" fill="#3F3D56"/>
<path d="M46.3733 201.44C47.1027 201.44 47.694 200.524 47.694 199.395C47.694 198.267 47.1027 197.351 46.3733 197.351C45.6439 197.351 45.0526 198.267 45.0526 199.395C45.0526 200.524 45.6439 201.44 46.3733 201.44Z" fill="#3F3D56"/>
<path d="M41.1091 193.765C41.4459 194.086 41.8261 194.281 42.2199 194.337C42.5467 194.411 42.8762 194.468 43.2057 194.501C42.8549 194.016 42.528 193.491 42.2278 192.93C43.0241 192.609 43.8692 192.758 44.5978 193.35C45.3265 193.942 45.8864 194.933 46.168 196.13C46.4496 197.327 46.4327 198.643 46.1206 199.822C45.8085 201 45.2236 201.956 44.4803 202.503C43.7371 203.049 42.8888 203.147 42.1014 202.777C41.314 202.407 40.6441 201.596 40.2226 200.502C39.8012 199.408 39.6584 198.11 39.8224 196.862C39.9863 195.614 40.4451 194.505 41.1091 193.753V193.765Z" fill="#15C95A"/>
<path d="M50.0457 213.705H53.2638C55.0257 213.705 56.7155 214.788 57.9613 216.717C59.2072 218.645 59.9071 221.26 59.9071 223.987V237.507C59.9071 237.969 59.7884 238.413 59.5771 238.74C59.3658 239.067 59.0792 239.251 58.7804 239.251H44.5291C44.2303 239.251 43.9437 239.067 43.7324 238.74C43.5211 238.413 43.4024 237.969 43.4024 237.507V223.987C43.4024 221.26 44.1023 218.645 45.3482 216.717C46.594 214.788 48.2838 213.705 50.0457 213.705V213.705Z" fill="#3F3D56"/>
<g opacity="0.1">
<path opacity="0.1" d="M56.5695 184.169C56.4358 184.39 56.2938 184.599 56.1443 184.794C56.2958 184.794 56.4446 184.757 56.5961 184.733C56.6014 184.543 56.5828 184.354 56.5695 184.169Z" fill="black"/>
<path opacity="0.1" d="M54.162 181.726C54.4941 181.693 54.821 181.64 55.1505 181.566C55.4461 181.508 55.735 181.386 56.0088 181.204C55.875 180.792 55.7204 180.397 55.5464 180.023C55.3811 180.179 55.2021 180.297 55.015 180.373C54.7544 180.858 54.4691 181.311 54.162 181.726Z" fill="black"/>
<path opacity="0.1" d="M46.0438 186.115C46.0418 184.555 46.3116 183.024 46.8246 181.682C47.3377 180.34 48.0752 179.237 48.9592 178.489C49.8433 177.741 50.8413 177.377 51.8481 177.433C52.855 177.489 53.8333 177.965 54.6801 178.81L54.7652 178.67C54.2125 177.909 53.568 177.325 52.8688 176.951C52.1695 176.577 51.4294 176.421 50.6911 176.492C49.9528 176.563 49.2308 176.859 48.5667 177.364C47.9027 177.868 47.3098 178.571 46.8221 179.432C46.3344 180.293 45.9616 181.295 45.7251 182.38C45.4887 183.465 45.3933 184.612 45.4445 185.754C45.4956 186.896 45.6923 188.011 46.0232 189.035C46.3541 190.059 46.8127 190.972 47.3724 191.721C46.513 190.156 46.042 188.168 46.0438 186.115V186.115Z" fill="black"/>
</g>
<g opacity="0.1">
<path opacity="0.1" d="M58.7858 195.521C59.1153 195.488 59.4448 195.435 59.7716 195.361C60.1655 195.303 60.5456 195.106 60.8824 194.785C61.2555 195.21 61.5666 195.752 61.7955 196.376C62.0244 196.999 62.166 197.69 62.2111 198.404C62.224 198.225 62.2302 198.045 62.2297 197.865C62.2322 197.067 62.1132 196.278 61.8824 195.564C61.6516 194.849 61.3154 194.229 60.901 193.752C60.5641 194.073 60.184 194.268 59.7902 194.324L59.5245 194.378C59.2977 194.788 59.0508 195.17 58.7858 195.521V195.521Z" fill="black"/>
<path opacity="0.1" d="M58.9186 193.777C59.0288 193.779 59.1389 193.791 59.2481 193.814C59.4209 193.53 59.5909 193.226 59.7636 192.93C59.2751 192.728 58.7631 192.703 58.2673 192.856C57.7714 193.01 57.305 193.338 56.9042 193.815C56.5034 194.292 56.179 194.906 55.956 195.608C55.733 196.31 55.6174 197.083 55.6182 197.866C55.6182 198.038 55.6182 198.207 55.6341 198.376C55.7158 197.115 56.0972 195.947 56.7041 195.097C57.311 194.247 58.1002 193.777 58.9186 193.777V193.777Z" fill="black"/>
</g>
<g opacity="0.1">
<path opacity="0.1" d="M43.2057 195.521C42.8762 195.488 42.5467 195.435 42.2199 195.361C41.8259 195.304 41.4457 195.107 41.1091 194.785C40.736 195.21 40.4249 195.752 40.196 196.376C39.9671 196.999 39.8255 197.69 39.7804 198.404C39.7675 198.225 39.7613 198.045 39.7618 197.865C39.7593 197.067 39.8783 196.278 40.1091 195.564C40.3399 194.849 40.6761 194.229 41.0905 193.752C41.4273 194.073 41.8074 194.269 42.2013 194.324L42.467 194.378C42.6923 194.79 42.9394 195.172 43.2057 195.521Z" fill="black"/>
<path opacity="0.1" d="M43.0729 193.777C42.9618 193.779 42.8508 193.791 42.7407 193.814C42.5706 193.53 42.4006 193.226 42.2278 192.93C42.7164 192.728 43.2284 192.703 43.7242 192.856C44.2201 193.01 44.6865 193.338 45.0873 193.815C45.4881 194.292 45.8125 194.906 46.0355 195.608C46.2585 196.31 46.3741 197.083 46.3733 197.866C46.3733 198.038 46.3733 198.207 46.3574 198.376C46.2756 197.115 45.8943 195.947 45.2874 195.097C44.6805 194.247 43.8913 193.777 43.0729 193.777V193.777Z" fill="black"/>
</g>
</g>
<defs>
<clipPath id="clip0">
<rect width="304" height="262" fill="white"/>
</clipPath>
</defs>
</svg>
